<svg xmlns="http://www.w3.org/2000/svg" class="inline" viewBox="0 0 72 66.33" preserveAspectRatio="xMidYMid meet" role="img">
  <title>Book 6, Prop 33 -- Black, red, and blue outlined angle</title>
  <line class="stroke-black stroke-thin" x1="38.31" y1="1" x2="44.74" y2="43.82" style="stroke:#000000;stroke-width:2;stroke-opacity:1;stroke-linecap:round;stroke-linejoin:round;fill-opacity:0;"/>
  <line class="stroke-black stroke-thin" x1="38.31" y1="1" x2="28.24" y2="43.11" style="stroke:#000000;stroke-width:2;stroke-opacity:1;stroke-linecap:round;stroke-linejoin:round;fill-opacity:0;"/>
  <line class="stroke-black stroke-thin" x1="38.31" y1="1" x2="13.2" y2="36.26" style="stroke:#000000;stroke-width:2;stroke-opacity:1;stroke-linecap:round;stroke-linejoin:round;fill-opacity:0;"/>
  <line class="stroke-black stroke-thin" x1="38.31" y1="1" x2="60.31" y2="38.29" style="stroke:#000000;stroke-width:2;stroke-opacity:1;stroke-linecap:round;stroke-linejoin:round;fill-opacity:0;"/>
  <path class="fill-blue stroke-blue stroke-thin" d="M71,56.4L60.31,38.29c-4.7,2.78-9.97,4.7-15.57,5.53l3.12,20.8C56.19,63.37,64.01,60.53,71,56.4z" style="fill:#0e638e;fill-opacity:1;stroke:#0e638e;stroke-width:2;stroke-opacity:1;stroke-linecap:round;stroke-linejoin:round;"/>
  <path class="fill-red stroke-red stroke-thin" d="M44.74,43.82c-2.68,0.4-5.44,0.56-8.26,0.44c-2.84-0.12-5.59-0.52-8.25-1.15l-4.89,20.45c3.95,0.94,8.05,1.53,12.26,1.71c4.18,0.18,8.28-0.06,12.26-0.66L44.74,43.82z" style="fill:#d42a20;fill-opacity:1;stroke:#d42a20;stroke-width:2;stroke-opacity:1;stroke-linecap:round;stroke-linejoin:round;"/>
  <path class="fill-black stroke-black stroke-thin" d="M28.24,43.11c-5.51-1.31-10.59-3.67-15.04-6.85L1,53.39c6.61,4.72,14.16,8.22,22.34,10.17L28.24,43.11z" style="fill:#000000;fill-opacity:1;stroke:#000000;stroke-width:2;stroke-opacity:1;stroke-linecap:round;stroke-linejoin:round;"/>
</svg>
