<svg xmlns="http://www.w3.org/2000/svg" class="inline base" viewBox="0 0 72 55.47" preserveAspectRatio="xMidYMid meet" role="img">
  <title>Book 4, Prop 12 -- Black outlined and black angle</title>
  <path class="stroke-black stroke-thin" d="M71,3.62L54.47,54.47L23.05,11.22" style="stroke:#000000;stroke-width:2;stroke-opacity:1;stroke-linecap:round;stroke-linejoin:round;fill-opacity:0;"/>
  <path class="fill-black" d="M71,3.62l-2.86,8.81c-4.3-1.4-8.89-2.16-13.66-2.16c-9.71,0-18.69,3.14-25.98,8.45l-5.44-7.49C31.87,4.8,42.73,1,54.47,1C60.24,1,65.79,1.92,71,3.62z" style="fill:#000000;fill-opacity:1;stroke-opacity:0;"/>
  <path class="stroke-black stroke-thin" d="M71,3.62l-2.86,8.81c-4.3-1.4-8.89-2.16-13.66-2.16c-9.71,0-18.69,3.14-25.98,8.45l-5.44-7.49C31.87,4.8,42.73,1,54.47,1C60.24,1,65.79,1.92,71,3.62z" style="stroke:#000000;stroke-width:2;stroke-opacity:1;stroke-linecap:round;stroke-linejoin:round;fill-opacity:0;"/>
  <path class="fill-black" d="M23.05,11.22l31.43,43.26H1C1,36.69,9.69,20.94,23.05,11.22z" style="fill:#000000;fill-opacity:1;stroke-opacity:0;"/>
  <path class="stroke-black stroke-thin" d="M23.05,11.22l31.43,43.26H1C1,36.69,9.69,20.94,23.05,11.22z" style="stroke:#000000;stroke-width:2;stroke-opacity:1;stroke-linecap:round;stroke-linejoin:round;fill-opacity:0;"/>
</svg>
