<svg xmlns="http://www.w3.org/2000/svg" class="inline base" style="vertical-align: -9px;" viewBox="0 0 73.34 75" preserveAspectRatio="xMidYMid meet" role="img">
  <title>Book 1, Prop 24 -- Left top angles</title>
  <path class="stroke-black stroke-dotted" d="M21.56,68.25c7.5,2.75,15.61,4.25,24.07,4.25c8.89,0,17.39-1.68,25.21-4.7" style="stroke:#000000;stroke-width:5;stroke-opacity:1;stroke-linecap:butt;stroke-linejoin:round;stroke-dasharray:5;fill-opacity:0;"/>
  <line class="stroke-red stroke-dotted" x1="45.63" y1="2.5" x2="1.95" y2="57.18" style="stroke:#d42a20;stroke-width:5;stroke-opacity:1;stroke-linecap:butt;stroke-linejoin:round;stroke-dasharray:5;fill-opacity:0;"/>
  <path class="stroke-black stroke-thin" d="M1.95,57.18c5.85,4.68,12.45,8.45,19.61,11.07" style="stroke:#000000;stroke-width:2;stroke-opacity:1;stroke-linecap:round;stroke-linejoin:round;fill-opacity:0;"/>
  <path class="stroke-black stroke-thin" d="M6.42,51.6c5.25,4.2,11.18,7.58,17.6,9.94" style="stroke:#000000;stroke-width:2;stroke-opacity:1;stroke-linecap:round;stroke-linejoin:round;fill-opacity:0;"/>
  <path class="stroke-black stroke-thin" d="M10.88,46.01c4.65,3.72,9.9,6.72,15.6,8.81" style="stroke:#000000;stroke-width:2;stroke-opacity:1;stroke-linecap:round;stroke-linejoin:round;fill-opacity:0;"/>
  <path class="stroke-black stroke-thin" d="M15.34,40.42c4.05,3.24,8.63,5.86,13.6,7.68" style="stroke:#000000;stroke-width:2;stroke-opacity:1;stroke-linecap:round;stroke-linejoin:round;fill-opacity:0;"/>
  <path class="stroke-black stroke-thin" d="M19.81,34.83c3.46,2.76,7.36,4.99,11.59,6.54" style="stroke:#000000;stroke-width:2;stroke-opacity:1;stroke-linecap:round;stroke-linejoin:round;fill-opacity:0;"/>
  <path class="stroke-black stroke-thin" d="M24.27,29.24c2.86,2.29,6.09,4.13,9.59,5.41" style="stroke:#000000;stroke-width:2;stroke-opacity:1;stroke-linecap:round;stroke-linejoin:round;fill-opacity:0;"/>
  <path class="stroke-black stroke-thin" d="M28.73,23.66c2.26,1.81,4.82,3.27,7.59,4.28" style="stroke:#000000;stroke-width:2;stroke-opacity:1;stroke-linecap:round;stroke-linejoin:round;fill-opacity:0;"/>
  <path class="stroke-black stroke-thin" d="M33.2,18.06c1.66,1.33,3.55,2.39,5.59,3.13" style="stroke:#000000;stroke-width:2;stroke-opacity:1;stroke-linecap:round;stroke-linejoin:round;fill-opacity:0;"/>
  <path class="stroke-black stroke-thin" d="M37.66,12.48c1.07,0.85,2.27,1.53,3.58,2.01" style="stroke:#000000;stroke-width:2;stroke-opacity:1;stroke-linecap:round;stroke-linejoin:round;fill-opacity:0;"/>
  <line class="stroke-blue" x1="45.63" y1="2.5" x2="70.84" y2="67.8" style="stroke:#0e638e;stroke-width:5;stroke-opacity:1;stroke-linecap:round;stroke-linejoin:round;fill-opacity:0;"/>
  <line class="stroke-red" x1="45.63" y1="2.5" x2="21.56" y2="68.25" style="stroke:#d42a20;stroke-width:5;stroke-opacity:1;stroke-linecap:round;stroke-linejoin:round;fill-opacity:0;"/>
</svg>
