<svg xmlns="http://www.w3.org/2000/svg" class="inline large" viewBox="0 0 47.49 72" preserveAspectRatio="xMidYMid meet" role="img">
  <title>Book 4, Prop 13 -- Outlined angle</title>
  <path class="stroke-black stroke-thin" d="M9.69,1C4.23,8.51,1,17.74,1,27.73c0,4.91,0.79,9.63,2.22,14.06l43.27-14.06L9.69,1z" style="stroke:#000000;stroke-width:2;stroke-opacity:1;stroke-linecap:round;stroke-linejoin:round;fill-opacity:0;"/>
  <path class="stroke-black stroke-thin" d="M3.22,41.79C7.71,55.61,18.62,66.51,32.43,71l14.06-43.27L3.22,41.79z" style="stroke:#000000;stroke-width:2;stroke-opacity:1;stroke-linecap:round;stroke-linejoin:round;fill-opacity:0;"/>
  <path class="fill-black" d="M10.93,27.73c0-7.81,2.53-15.03,6.8-20.9L9.69,1C4.23,8.51,1,17.74,1,27.73C1,47.95,14.19,65.08,32.43,71l3.07-9.44C21.24,56.93,10.93,43.54,10.93,27.73z" style="fill:#000000;fill-opacity:1;stroke-opacity:0;"/>
</svg>
