<svg xmlns="http://www.w3.org/2000/svg" class="inline base" viewBox="0 0 46.72 70" preserveAspectRatio="xMidYMid meet" role="img">
  <title>Book 6, Prop 7 -- Yellow arc</title>
  <path class="stroke-black stroke-thin" d="M38.46,2.82l7.16,65.87c-2.15,0.2-4.32,0.3-6.46,0.3c-13.5,0-26.54-3.89-37.77-11.25L38.46,2.82 M39.16,0L0,58.03C11.18,65.59,24.65,70,39.16,70c2.55,0,5.08-0.14,7.56-0.41L39.16,0L39.16,0z" style="stroke:#000000;stroke-width:2;stroke-opacity:1;stroke-linecap:round;stroke-linejoin:round;fill-opacity:0;"/>
  <path class="fill-yellow stroke-yellow stroke-thin" d="M46.72,69.59l-1.81-16.65c-1.89,0.2-3.81,0.31-5.75,0.31c-11.04,0-21.29-3.36-29.8-9.11L0,58.03C11.18,65.59,24.65,70,39.16,70C41.72,70,44.24,69.86,46.72,69.59z" style="fill:#fac22b;fill-opacity:1;stroke:#fac22b;stroke-width:2;stroke-opacity:1;stroke-linecap:round;stroke-linejoin:round;"/>
</svg>
