<svg xmlns="http://www.w3.org/2000/svg" viewBox="0 0 185 148.25" preserveAspectRatio="xMidYMid meet" role="img">
  <title>Definition 7 figure</title>
  <path class="fill-yellow" d="M167.56,95.45l2.43-48.73l-40.72,26.88C137.59,86.17,151.56,94.67,167.56,95.45z" style="fill:#fac22b;fill-opacity:1;stroke-opacity:0;"/>
  <path class="fill-blue" d="M53.6,51.31c5.12,1.83,10.63,2.83,16.38,2.83c10.14,0,19.56-3.09,27.36-8.39L69.98,5.34L53.6,51.31z" style="fill:#0e638e;fill-opacity:1;stroke-opacity:0;"/>
  <path class="stroke-black" d="M165.05,145.75c10.96-14.91,17.45-33.33,17.45-53.25c0-49.71-40.29-90-90-90s-90,40.29-90,90c0,19.93,6.48,38.34,17.45,53.25H165.05z" style="stroke:#000000;stroke-width:5;stroke-opacity:1;stroke-linecap:round;stroke-linejoin:round;fill-opacity:0;"/>
  <line class="stroke-black" x1="19.95" y1="145.75" x2="69.98" y2="5.34" style="stroke:#000000;stroke-width:5;stroke-opacity:1;stroke-linecap:round;stroke-linejoin:round;fill-opacity:0;"/>
  <line class="stroke-black" x1="69.98" y1="5.34" x2="165.05" y2="145.75" style="stroke:#000000;stroke-width:5;stroke-opacity:1;stroke-linecap:round;stroke-linejoin:round;fill-opacity:0;"/>
  <line class="stroke-black" x1="19.95" y1="145.75" x2="169.99" y2="46.72" style="stroke:#000000;stroke-width:5;stroke-opacity:1;stroke-linecap:round;stroke-linejoin:round;fill-opacity:0;"/>
  <line class="stroke-black" x1="169.99" y1="46.72" x2="165.05" y2="145.75" style="stroke:#000000;stroke-width:5;stroke-opacity:1;stroke-linecap:round;stroke-linejoin:round;fill-opacity:0;"/>
</svg>