<svg xmlns="http://www.w3.org/2000/svg" viewBox="0 0 185 185" preserveAspectRatio="xMidYMid meet" role="img">
  <title>Definition 8 figure</title>
  <path class="fill-blue" d="M131.8,11.51l-31.11,31.4c7.62,7.54,17.96,12.33,29.42,12.76L131.8,11.51z" style="fill:#0e638e;fill-opacity:1;stroke-opacity:0;"/>
  <path class="stroke-black" d="M11.89,132.56c14.74,29.6,45.3,49.94,80.61,49.94c11.66,0,22.8-2.22,33.02-6.25c0,0,6.28-164.74,6.28-164.74S11.89,132.56,11.89,132.56z" style="stroke:#000000;stroke-width:5;stroke-opacity:1;stroke-linecap:round;stroke-linejoin:round;fill-opacity:0;"/>
  <path class="stroke-black stroke-dotted" d="M125.52,176.25c33.37-13.17,56.98-45.7,56.98-83.75c0-49.71-40.29-90-90-90s-90,40.29-90,90                         c0,14.39,3.39,28,9.39,40.06" style="stroke:#000000;stroke-width:5;stroke-opacity:1;stroke-linecap:butt;stroke-linejoin:round;stroke-dasharray:5;fill-opacity:0;"/>
</svg>