<svg xmlns="http://www.w3.org/2000/svg" viewBox="0 0 352.5 286.82" preserveAspectRatio="xMidYMid meet" role="img">
  <title>Angles diagram</title>
  <path class="fill-blue" data-name="angle-blue-top" d="M175.53,145.12l0.03,0.02l55.97-64.72c-15-12.99-34.57-20.85-55.97-20.85c-30.25,0-56.83,15.7-72.05,39.38 L175.53,145.12z" style="fill:#0e638e;fill-opacity:1;stroke-opacity:0;"/>
  <path class="fill-black" data-name="angle-black" d="M231.54,80.42c-27.75,32.08-55.97,64.72-55.97,64.72h85.57C261.14,119.28,249.67,96.11,231.54,80.42z" style="fill:#000000;fill-opacity:1;stroke-opacity:0;"/>
  <path class="fill-yellow" data-name="angle-yellow-right" d="M175.53,145.12l72.08,46.21c8.56-13.32,13.52-29.17,13.52-46.18h-85.57L175.53,145.12z" style="fill:#fac22b;fill-opacity:1;stroke-opacity:0;"/>
  <path class="fill-blue" data-name="angle-blue-bottom" d="M247.61,191.32l-13.27-8.5c-12.42,19.33-34.1,32.15-58.78,32.15c-17.47,0-33.42-6.43-45.67-17.03l-10.31,11.92 c15,12.99,34.57,20.85,55.97,20.85C205.81,230.71,232.4,215.01,247.61,191.32z" style="fill:#0e638e;fill-opacity:1;stroke-opacity:0;"/>
  <path class="fill-yellow" data-name="angle-yellow-left" d="M119.59,209.86c5.15-5.96,5.29-6.12,10.31-11.92c-14.79-12.8-24.17-31.7-24.17-52.81H90 C90,171,101.47,194.17,119.59,209.86z" style="fill:#fac22b;fill-opacity:1;stroke-opacity:0;"/>
  <path class="fill-red" data-name="angle-red" d="M175.53,145.12l-72.01-46.16C94.96,112.28,90,128.13,90,145.14h85.57L175.53,145.12z" style="fill:#d42a20;fill-opacity:1;stroke-opacity:0;"/>
  <line class="stroke-red" data-name="line-red-left" x1="66.34" y1="271.44" x2="175.57" y2="145.14" style="stroke:#d42a20;stroke-width:5;stroke-opacity:1;stroke-linecap:round;stroke-linejoin:round;fill-opacity:0;"/>
  <line class="stroke-red" data-name="line-red-right" x1="175.57" y1="145.14" x2="298.92" y2="2.5" style="stroke:#d42a20;stroke-width:5;stroke-opacity:1;stroke-linecap:round;stroke-linejoin:round;fill-opacity:0;"/>
  <line class="stroke-blue" data-name="line-blue-right" x1="175.57" y1="145.14" x2="348.63" y2="145.14" style="stroke:#0e638e;stroke-width:5;stroke-opacity:1;stroke-linecap:round;stroke-linejoin:round;fill-opacity:0;"/>
  <line class="stroke-blue" data-name="line-blue-left" x1="2.5" y1="145.14" x2="175.57" y2="145.14" style="stroke:#0e638e;stroke-width:5;stroke-opacity:1;stroke-linecap:round;stroke-linejoin:round;fill-opacity:0;"/>
  <line class="stroke-black" data-name="line-black-left" x1="2.95" y1="34.49" x2="175.53" y2="145.12" style="stroke:#000000;stroke-width:5;stroke-opacity:1;stroke-linecap:round;stroke-linejoin:round;fill-opacity:0;"/>
  <line class="stroke-black" data-name="line-black-right" x1="175.53" y1="145.12" x2="348.18" y2="255.79" style="stroke:#000000;stroke-width:5;stroke-opacity:1;stroke-linecap:round;stroke-linejoin:round;fill-opacity:0;"/>
  <text data-name="b" transform="matrix(1 0 0 1 340.2399 166.085)">B</text>
  <text data-name="c" transform="matrix(1 0 0 1 168.6715 172.9698)">C</text>
  <text data-name="d" transform="matrix(1 0 0 1 295.5602 25.4376)">D</text>
  <text data-name="e" transform="matrix(1 0 0 1 321.1344 266.4063)">E</text>
  <text data-name="f" transform="matrix(1 0 0 1 5.4718 66.7467)">F</text>
  <text data-name="g" transform="matrix(1 0 0 1 76.4562 281.1602)">G</text>
  <text data-name="h" transform="matrix(1 0 0 1 3.6056 171.003)">H</text>
</svg>