<svg xmlns="http://www.w3.org/2000/svg" class="inline xlarge base" viewBox="0 0 102 76.35" preserveAspectRatio="xMidYMid meet" role="img">
  <title>Book 4, Prop 3 -- Quadrilateral</title>
  <path class="fill-yellow" d="M89.83,20.56c-3.03,2.93-4.91,7.03-4.91,11.57c0,8.88,7.2,16.09,16.09,16.09V32.13L89.83,20.56z" style="fill:#fac22b;fill-opacity:1;stroke-opacity:0;"/>
  <path class="fill-red" d="M14.98,60.49L1,75.35h20.4C21.4,69.49,18.93,64.22,14.98,60.49z" style="fill:#d42a20;fill-opacity:1;stroke-opacity:0;"/>
  <path class="fill-black" d="M59.11,13.57c3.1,2.95,7.28,4.76,11.9,4.76c4.66,0,8.88-1.85,11.99-4.85L70.97,1.03L59.11,13.57z" style="fill:#000000;fill-opacity:1;stroke-opacity:0;"/>
  <path class="fill-black" d="M101,58.09c-9.53,0-17.26,7.73-17.26,17.26H101V58.09z" style="fill:#000000;fill-opacity:1;stroke-opacity:0;"/>
  <line class="stroke-black stroke-thin" x1="1" y1="75.35" x2="70.94" y2="1" style="stroke:#000000;stroke-width:2;stroke-opacity:1;stroke-linecap:round;stroke-linejoin:round;fill-opacity:0;"/>
  <line class="stroke-black stroke-thin" x1="1" y1="75.35" x2="101" y2="75.35" style="stroke:#000000;stroke-width:2;stroke-opacity:1;stroke-linecap:round;stroke-linejoin:round;fill-opacity:0;"/>
  <line class="stroke-black stroke-thin" x1="101" y1="32.13" x2="101" y2="75.35" style="stroke:#000000;stroke-width:2;stroke-opacity:1;stroke-linecap:round;stroke-linejoin:round;fill-opacity:0;"/>
  <line class="stroke-black stroke-thin" x1="101" y1="32.13" x2="70.97" y2="1.03" style="stroke:#000000;stroke-width:2;stroke-opacity:1;stroke-linecap:round;stroke-linejoin:round;fill-opacity:0;"/>
</svg>
