<?xml version="1.0" encoding="UTF-8" standalone="no"?>
<!-- Created with Inkscape (http://www.inkscape.org/) -->

<svg
   xmlns:dc="http://purl.org/dc/elements/1.1/"
   xmlns:cc="http://creativecommons.org/ns#"
   xmlns:rdf="http://www.w3.org/1999/02/22-rdf-syntax-ns#"
   xmlns:svg="http://www.w3.org/2000/svg"
   xmlns="http://www.w3.org/2000/svg"
   xmlns:sodipodi="http://sodipodi.sourceforge.net/DTD/sodipodi-0.dtd"
   xmlns:inkscape="http://www.inkscape.org/namespaces/inkscape"
   version="1.1"
   id="svg869"
   width="46.630817"
   height="81.826973"
   viewBox="0 0 46.630817 81.826973"
   sodipodi:docname="comma.svg"
   inkscape:version="0.92.5 (2060ec1f9f, 2020-04-08)">
  <metadata
     id="metadata875">
    <rdf:RDF>
      <cc:Work
         rdf:about="">
        <dc:format>image/svg+xml</dc:format>
        <dc:type
           rdf:resource="http://purl.org/dc/dcmitype/StillImage" />
        <dc:title></dc:title>
      </cc:Work>
    </rdf:RDF>
  </metadata>
  <defs
     id="defs873" />
  <sodipodi:namedview
     pagecolor="#ffffff"
     bordercolor="#666666"
     borderopacity="1"
     objecttolerance="10"
     gridtolerance="10"
     guidetolerance="10"
     inkscape:pageopacity="0"
     inkscape:pageshadow="2"
     inkscape:window-width="3768"
     inkscape:window-height="2096"
     id="namedview871"
     showgrid="false"
     inkscape:zoom="1.7094306"
     inkscape:cx="-61.04489"
     inkscape:cy="-102.0816"
     inkscape:window-x="72"
     inkscape:window-y="27"
     inkscape:window-maximized="1"
     inkscape:current-layer="svg869"
     fit-margin-top="0"
     fit-margin-left="0"
     fit-margin-right="0"
     fit-margin-bottom="0" />
  <path
     style="fill:#000000"
     d="m 4.6308096,79.568246 c 0,-1.87595 1.227008,-3.09702 5.5815454,-5.55457 7.978278,-4.50266 13.639841,-10.10287 17.460631,-17.27138 2.74685,-5.15362 3.33474,-7.36478 3.39044,-12.7521 0.0758,-7.33287 0.25532,-7.22709 -8.432616,-4.96955 C 13.474815,41.399826 4.8572586,36.451236 1.1481966,26.684361 -3.5571854,14.293941 6.8422486,0.05051971 20.63081,3.1971033e-4 28.352226,-0.02778029 32.730256,1.7917107 38.273176,7.3324407 c 6.26814,6.2656803 8.35764,12.3010303 8.35764,24.1403453 0,20.2114 -10.95892,37.10239 -30.073039,46.35157 -10.0092414,4.8434 -11.9269674,5.1238 -11.9269674,1.74389 z"
     id="path883"
     inkscape:connector-curvature="0" />
</svg>
