<?xml version="1.0" encoding="UTF-8" standalone="no"?>
<svg
   xmlns:dc="http://purl.org/dc/elements/1.1/"
   xmlns:cc="http://creativecommons.org/ns#"
   xmlns:rdf="http://www.w3.org/1999/02/22-rdf-syntax-ns#"
   xmlns:svg="http://www.w3.org/2000/svg"
   xmlns="http://www.w3.org/2000/svg"
   xmlns:sodipodi="http://sodipodi.sourceforge.net/DTD/sodipodi-0.dtd"
   xmlns:inkscape="http://www.inkscape.org/namespaces/inkscape"
   x="0px"
   y="0px"
   width="108.002"
   height="88.512001"
   viewBox="0 0 108.002 88.512002"
   xml:space="preserve"
   version="1.1"
   id="svg12"
   sodipodi:docname="therefore.svg"
   inkscape:version="0.92.5 (2060ec1f9f, 2020-04-08)"><metadata
   id="metadata18"><rdf:RDF><cc:Work
       rdf:about=""><dc:format>image/svg+xml</dc:format><dc:type
         rdf:resource="http://purl.org/dc/dcmitype/StillImage" /><dc:title></dc:title></cc:Work></rdf:RDF></metadata><defs
   id="defs16" /><sodipodi:namedview
   pagecolor="#ffffff"
   bordercolor="#666666"
   borderopacity="1"
   objecttolerance="10"
   gridtolerance="10"
   guidetolerance="10"
   inkscape:pageopacity="0"
   inkscape:pageshadow="2"
   inkscape:window-width="782"
   inkscape:window-height="480"
   id="namedview14"
   showgrid="false"
   fit-margin-top="0"
   fit-margin-left="0"
   fit-margin-right="0"
   fit-margin-bottom="0"
   inkscape:zoom="2.1851447"
   inkscape:cx="54.000999"
   inkscape:cy="44.256"
   inkscape:window-x="72"
   inkscape:window-y="27"
   inkscape:window-maximized="0"
   inkscape:current-layer="svg12" />
<g
   id="g10"
   transform="translate(0,-9.745)">
	<g
   id="g8">
		<path
   d="m 55.219,47.097 c 10.301,0 18.678,-8.378 18.678,-18.678 0,-10.3 -8.377,-18.674 -18.678,-18.674 -10.299,0 -18.678,8.377 -18.678,18.677 0,10.3 8.378,18.675 18.678,18.675 z"
   id="path2"
   inkscape:connector-curvature="0" />
		<path
   d="m 0,79.58 c 0,10.3 8.377,18.677 18.677,18.677 10.3,0 18.678,-8.377 18.678,-18.677 0,-10.3 -8.378,-18.679 -18.678,-18.679 C 8.377,60.901 0,69.28 0,79.58 Z"
   id="path4"
   inkscape:connector-curvature="0" />
		<path
   d="m 89.324,98.255 c 10.3,0 18.678,-8.377 18.678,-18.678 0,-10.3 -8.378,-18.677 -18.678,-18.677 -10.3,0 -18.678,8.38 -18.678,18.68 0,10.3 8.378,18.675 18.678,18.675 z"
   id="path6"
   inkscape:connector-curvature="0" />
	</g>
</g>
</svg>