<svg xmlns="http://www.w3.org/2000/svg" viewBox="0 0 355 355" preserveAspectRatio="xMidYMid meet" role="img">
  <title>Proposition 9 figure</title>
  <polygon class="fill-yellow" data-name="triangle-yellow" points="301.24,301.24 53.76,301.24 53.76,53.76 " style="fill:#fac22b;fill-opacity:1;stroke-opacity:0;"/>
  <polygon class="fill-red" data-name="triangle-red" points="301.24,301.24 53.76,53.76 301.24,53.76 " style="fill:#d42a20;fill-opacity:1;stroke-opacity:0;"/>
  <path class="fill-yellow" data-name="angle-yellow" d="M97.51,97.51c11.2-11.2,18.12-26.66,18.12-43.75H53.76L97.51,97.51z" style="fill:#fac22b;fill-opacity:1;stroke-opacity:0;"/>
  <path class="fill-black" data-name="angle-black" d="M53.76,53.76v61.87c17.09,0,32.55-6.93,43.75-18.12L53.76,53.76z" style="fill:#000000;fill-opacity:1;stroke-opacity:0;"/>
  <path class="fill-red" data-name="angle-red" d="M97.51,257.49c-11.2-11.2-26.66-18.12-43.75-18.12v61.87L97.51,257.49z" style="fill:#d42a20;fill-opacity:1;stroke-opacity:0;"/>
  <path class="fill-blue" data-name="angle-blue" d="M53.76,301.24h61.87c0-17.09-6.93-32.55-18.12-43.75L53.76,301.24z" style="fill:#0e638e;fill-opacity:1;stroke-opacity:0;"/>
  <line class="stroke-trans" data-name="line-blue-dotted-trans" x1="177.5" y1="177.5" x2="301.24" y2="301.24" style="stroke:#fcf3d9;stroke-width:5;stroke-opacity:1;stroke-linecap:round;stroke-linejoin:round;fill-opacity:0;"/>
  <line class="stroke-blue stroke-dotted" data-name="line-blue-dotted" x1="177.5" y1="177.5" x2="301.24" y2="301.24" style="stroke:#0e638e;stroke-width:5;stroke-opacity:1;stroke-linecap:butt;stroke-linejoin:round;stroke-dasharray:5;fill-opacity:0;"/>
  <line class="stroke-blue" data-name="line-blue" x1="53.76" y1="53.76" x2="177.5" y2="177.5" style="stroke:#0e638e;stroke-width:5;stroke-opacity:1;stroke-linecap:round;stroke-linejoin:round;fill-opacity:0;"/>
  <line class="stroke-trans" data-name="line-black-dotted-trans" x1="301.24" y1="53.76" x2="177.5" y2="177.5" style="stroke:#fcf3d9;stroke-width:5;stroke-opacity:1;stroke-linecap:round;stroke-linejoin:round;fill-opacity:0;"/>
  <line class="stroke-black stroke-dotted" data-name="line-black-dotted" x1="301.24" y1="53.76" x2="177.5" y2="177.5" style="stroke:#000000;stroke-width:5;stroke-opacity:1;stroke-linecap:butt;stroke-linejoin:round;stroke-dasharray:5;fill-opacity:0;"/>
  <line class="stroke-black" data-name="line-black" x1="177.5" y1="177.5" x2="53.76" y2="301.24" style="stroke:#000000;stroke-width:5;stroke-opacity:1;stroke-linecap:round;stroke-linejoin:round;fill-opacity:0;"/>
  <circle class="stroke-black" data-name="circle" cx="177.5" cy="177.5" r="175" style="stroke:#000000;stroke-width:5;stroke-opacity:1;stroke-linecap:round;stroke-linejoin:round;fill-opacity:0;"/>
</svg>