<svg xmlns="http://www.w3.org/2000/svg" viewBox="0 0 355 355" preserveAspectRatio="xMidYMid meet" role="img">
  <title>Proposition C figure</title>
  <path class="fill-red" data-name="angle-red" d="M245.41,16.16l-52.83,29.22c10.29,18.57,30.09,31.14,52.83,31.14c14.1,0,27.07-4.84,37.35-12.94L245.41,16.16z" style="fill:#d42a20;fill-opacity:1;stroke-opacity:0;"/>
  <path class="fill-blue" data-name="angle-blue" d="M245.41,102.08c-26.06,0-47.19,21.13-47.19,47.19c14.88,0,47.19,0,47.19,0V102.08z" style="fill:#0e638e;fill-opacity:1;stroke-opacity:0;"/>
  <path class="fill-yellow" data-name="angle-yellow" d="M350.24,149.27h-71.13c0,16.62,5.7,31.91,15.25,44.02L350.24,149.27z" style="fill:#fac22b;fill-opacity:1;stroke-opacity:0;"/>
  <path class="stroke-black stroke-thin" data-name="angle-outline-red" d="M166.35,294.12c-7.52-9.53-17.38-17.12-28.72-21.9l-28.04,66.61L166.35,294.12z" style="stroke:#000000;stroke-width:2;stroke-opacity:1;stroke-linecap:round;stroke-linejoin:round;fill-opacity:0;"/>
  <path class="fill-red stroke-red stroke-thin" data-name="arc-red" d="M137.63,272.22L131.41,287c8.82,3.72,16.5,9.63,22.35,17.04l12.59-9.92C158.84,284.59,148.97,277,137.63,272.22z" style="fill:#d42a20;fill-opacity:1;stroke:#d42a20;stroke-width:2;stroke-opacity:1;stroke-linecap:round;stroke-linejoin:round;"/>
  <path class="stroke-black stroke-thin" data-name="angle-outline-blue" d="M306.23,93.39c-16.52,13.03-27.12,33.22-27.12,55.88h71.13L306.23,93.39z" style="stroke:#000000;stroke-width:2;stroke-opacity:1;stroke-linecap:round;stroke-linejoin:round;fill-opacity:0;"/>
  <path class="fill-blue stroke-blue stroke-thin" data-name="arc-blue" d="M316.15,105.99l-9.92-12.6c-16.52,13.03-27.12,33.22-27.12,55.88h16.03C295.14,131.72,303.35,116.08,316.15,105.99z" style="fill:#0e638e;fill-opacity:1;stroke:#0e638e;stroke-width:2;stroke-opacity:1;stroke-linecap:round;stroke-linejoin:round;"/>
  <path class="stroke-black stroke-thin" data-name="angle-outline-yellow" d="M4.76,149.27h76.32c0-13.4-3.46-26-9.53-36.95L4.76,149.27z" style="stroke:#000000;stroke-width:2;stroke-opacity:1;stroke-linecap:round;stroke-linejoin:round;fill-opacity:0;"/>
  <path class="fill-yellow stroke-yellow stroke-thin" data-name="arc-yellow" d="M57.53,120.09c4.79,8.65,7.53,18.6,7.53,29.19h16.03c0-13.4-3.46-26-9.53-36.95L57.53,120.09z" style="fill:#fac22b;fill-opacity:1;stroke:#fac22b;stroke-width:2;stroke-opacity:1;stroke-linecap:round;stroke-linejoin:round;"/>
  <line class="stroke-yellow" data-name="line-yellow" x1="245.41" y1="16.16" x2="350.24" y2="149.27" style="stroke:#fac22b;stroke-width:5;stroke-opacity:1;stroke-linecap:round;stroke-linejoin:round;fill-opacity:0;"/>
  <line class="stroke-trans" data-name="line-blue-dotted-trans" x1="4.76" y1="149.27" x2="245.41" y2="16.16" style="stroke:#fcf3d9;stroke-width:5;stroke-opacity:1;stroke-linecap:round;stroke-linejoin:round;fill-opacity:0;"/>
  <line class="stroke-blue stroke-dotted" data-name="line-blue-dotted" x1="4.76" y1="149.27" x2="245.41" y2="16.16" style="stroke:#0e638e;stroke-width:5;stroke-opacity:1;stroke-linecap:butt;stroke-linejoin:round;stroke-dasharray:5;fill-opacity:0;"/>
  <line class="stroke-trans" data-name="line-yellow-dotted-trans" x1="245.41" y1="16.16" x2="245.41" y2="149.27" style="stroke:#fcf3d9;stroke-width:5;stroke-opacity:1;stroke-linecap:round;stroke-linejoin:round;fill-opacity:0;"/>
  <line class="stroke-yellow stroke-dotted" data-name="line-yellow-dotted" x1="245.41" y1="16.16" x2="245.41" y2="149.27" style="stroke:#fac22b;stroke-width:5;stroke-opacity:1;stroke-linecap:butt;stroke-linejoin:round;stroke-dasharray:5;fill-opacity:0;"/>
  <line class="stroke-blue" data-name="line-blue" x1="245.41" y1="16.16" x2="109.59" y2="338.84" style="stroke:#0e638e;stroke-width:5;stroke-opacity:1;stroke-linecap:round;stroke-linejoin:round;fill-opacity:0;"/>
  <line class="stroke-trans" data-name="line-red-dotted-trans" x1="4.76" y1="149.27" x2="245.41" y2="149.27" style="stroke:#fcf3d9;stroke-width:5;stroke-opacity:1;stroke-linecap:round;stroke-linejoin:round;fill-opacity:0;"/>
  <line class="stroke-red stroke-dotted" data-name="line-red-dotted" x1="4.76" y1="149.27" x2="245.41" y2="149.27" style="stroke:#d42a20;stroke-width:5;stroke-opacity:1;stroke-linecap:butt;stroke-linejoin:round;stroke-dasharray:5;fill-opacity:0;"/>
  <line class="stroke-black" data-name="line-black" x1="350.24" y1="149.27" x2="109.59" y2="338.84" style="stroke:#000000;stroke-width:5;stroke-opacity:1;stroke-linecap:round;stroke-linejoin:round;fill-opacity:0;"/>
  <line class="stroke-red" data-name="line-red" x1="245.41" y1="149.27" x2="350.24" y2="149.27" style="stroke:#d42a20;stroke-width:5;stroke-opacity:1;stroke-linecap:round;stroke-linejoin:round;fill-opacity:0;"/>
  <circle class="stroke-red" data-name="circle" cx="177.5" cy="177.5" r="175" style="stroke:#d42a20;stroke-width:5;stroke-opacity:1;stroke-linecap:round;stroke-linejoin:round;fill-opacity:0;"/>
</svg>