<svg xmlns="http://www.w3.org/2000/svg" viewBox="0 0 355 355" preserveAspectRatio="xMidYMid meet" role="img">
  <title>Proposition D figure</title>
  <path class="fill-red" data-name="angle-red" d="M98.6,21.25l57.48,81.44c14.38-10.17,25.95-24.04,33.31-40.24L98.6,21.25z" style="fill:#d42a20;fill-opacity:1;stroke-opacity:0;"/>
  <path class="fill-black" data-name="angle-black" d="M98.6,21.25c0,0,13.77,47.99,27.49,95.83c10.87-3.11,20.98-8.02,29.98-14.39L98.6,21.25z" style="fill:#000000;fill-opacity:1;stroke-opacity:0;"/>
  <path class="fill-blue" data-name="angle-blue" d="M98.6,120.92c9.54,0,18.76-1.34,27.49-3.84C112.37,69.24,98.6,21.25,98.6,21.25l-24.74,96.58C81.77,119.85,90.06,120.92,98.6,120.92z" style="fill:#0e638e;fill-opacity:1;stroke-opacity:0;"/>
  <path class="fill-yellow" data-name="angle-yellow" d="M298.26,304.15l-44.02-62.37c-17.52,12.39-29.6,31.98-31.91,54.46L298.26,304.15z" style="fill:#fac22b;fill-opacity:1;stroke-opacity:0;"/>
  <path class="stroke-black stroke-thin" data-name="angle-outline-red" d="M298.26,304.15l21.05-73.4c-6.69-1.91-13.75-2.94-21.05-2.94c-16.39,0-31.58,5.17-44.02,13.97L298.26,304.15z" style="stroke:#000000;stroke-width:2;stroke-opacity:1;stroke-linecap:round;stroke-linejoin:round;fill-opacity:0;"/>
  <path class="fill-red stroke-red stroke-thin" data-name="arc-red" d="M254.24,241.78l15.83,22.43c7.97-5.63,17.69-8.94,28.19-8.94c4.67,0,9.2,0.66,13.48,1.88l7.57-26.4c-6.69-1.91-13.75-2.94-21.05-2.94C281.87,227.81,266.68,232.98,254.24,241.78z" style="fill:#d42a20;fill-opacity:1;stroke:#d42a20;stroke-width:2;stroke-opacity:1;stroke-linecap:round;stroke-linejoin:round;"/>
  <path class="stroke-black stroke-thin" data-name="angle-outline-blue" d="M277.52,102.45c-4.37,9.62-6.81,20.3-6.81,31.55c0,11.26,2.44,21.95,6.82,31.57L347.05,134L277.52,102.45z" style="stroke:#000000;stroke-width:2;stroke-opacity:1;stroke-linecap:round;stroke-linejoin:round;fill-opacity:0;"/>
  <path class="fill-blue stroke-blue stroke-thin" data-name="arc-blue" d="M298.17,134c0-7.21,1.56-14.05,4.36-20.21l-25.01-11.35c-4.37,9.62-6.81,20.3-6.81,31.55c0,11.26,2.44,21.95,6.82,31.57l25-11.36C299.73,148.06,298.17,141.21,298.17,134z" style="fill:#0e638e;fill-opacity:1;stroke:#0e638e;stroke-width:2;stroke-opacity:1;stroke-linecap:round;stroke-linejoin:round;"/>
  <path class="stroke-black stroke-thin" data-name="angle-outline-yellow" d="M111.06,241.18c-10.6-23.31-31.37-41.02-56.63-47.48L33.2,276.54L111.06,241.18z" style="stroke:#000000;stroke-width:2;stroke-opacity:1;stroke-linecap:round;stroke-linejoin:round;fill-opacity:0;"/>
  <path class="fill-yellow stroke-yellow stroke-thin" data-name="arc-yellow" d="M54.42,193.7l-6.82,26.6c17.15,4.38,31.25,16.4,38.45,32.23l25-11.36C100.45,217.87,79.69,200.16,54.42,193.7z" style="fill:#fac22b;fill-opacity:1;stroke:#fac22b;stroke-width:2;stroke-opacity:1;stroke-linecap:round;stroke-linejoin:round;"/>
  <line class="stroke-trans" data-name="line-blue-dotted-trans" x1="298.26" y1="304.15" x2="33.2" y2="276.54" style="stroke:#fcf3d9;stroke-width:5;stroke-opacity:1;stroke-linecap:round;stroke-linejoin:round;fill-opacity:0;"/>
  <line class="stroke-blue stroke-dotted" data-name="line-blue-dotted" x1="298.26" y1="304.15" x2="33.2" y2="276.54" style="stroke:#0e638e;stroke-width:5;stroke-opacity:1;stroke-linecap:butt;stroke-linejoin:round;stroke-dasharray:5;fill-opacity:0;"/>
  <line class="stroke-black" data-name="line-black" x1="347.05" y1="134" x2="298.26" y2="304.15" style="stroke:#000000;stroke-width:5;stroke-opacity:1;stroke-linecap:round;stroke-linejoin:round;fill-opacity:0;"/>
  <line class="stroke-yellow" data-name="line-yellow" x1="98.6" y1="21.25" x2="347.05" y2="134" style="stroke:#fac22b;stroke-width:5;stroke-opacity:1;stroke-linecap:round;stroke-linejoin:round;fill-opacity:0;"/>
  <line class="stroke-trans" data-name="line-black-dotted-trans" x1="33.2" y1="276.54" x2="98.6" y2="21.25" style="stroke:#fcf3d9;stroke-width:5;stroke-opacity:1;stroke-linecap:round;stroke-linejoin:round;fill-opacity:0;"/>
  <line class="stroke-black stroke-dotted" data-name="line-black-dotted" x1="33.2" y1="276.54" x2="98.6" y2="21.25" style="stroke:#000000;stroke-width:5;stroke-opacity:1;stroke-linecap:butt;stroke-linejoin:round;stroke-dasharray:5;fill-opacity:0;"/>
  <line class="stroke-blue" data-name="line-blue" x1="298.26" y1="304.15" x2="98.6" y2="21.25" style="stroke:#0e638e;stroke-width:5;stroke-opacity:1;stroke-linecap:round;stroke-linejoin:round;fill-opacity:0;"/>
  <line class="stroke-trans" data-name="line-yellow-dotted-trans" x1="98.6" y1="21.25" x2="155.86" y2="220.83" style="stroke:#fcf3d9;stroke-width:5;stroke-opacity:1;stroke-linecap:round;stroke-linejoin:round;fill-opacity:0;"/>
  <line class="stroke-yellow stroke-dotted" data-name="line-yellow-dotted" x1="98.6" y1="21.25" x2="155.86" y2="220.83" style="stroke:#fac22b;stroke-width:5;stroke-opacity:1;stroke-linecap:butt;stroke-linejoin:round;stroke-dasharray:5;fill-opacity:0;"/>
  <line class="stroke-trans" data-name="line-red-dotted-trans" x1="33.2" y1="276.54" x2="155.86" y2="220.83" style="stroke:#fcf3d9;stroke-width:5;stroke-opacity:1;stroke-linecap:round;stroke-linejoin:round;fill-opacity:0;"/>
  <line class="stroke-red stroke-dotted" data-name="line-red-dotted" x1="33.2" y1="276.54" x2="155.86" y2="220.83" style="stroke:#d42a20;stroke-width:5;stroke-opacity:1;stroke-linecap:butt;stroke-linejoin:round;stroke-dasharray:5;fill-opacity:0;"/>
  <line class="stroke-red" data-name="line-red" x1="155.86" y1="220.83" x2="347.05" y2="134" style="stroke:#d42a20;stroke-width:5;stroke-opacity:1;stroke-linecap:round;stroke-linejoin:round;fill-opacity:0;"/>
  <circle class="stroke-red" data-name="circle" cx="177.5" cy="177.5" r="175" style="stroke:#d42a20;stroke-width:5;stroke-opacity:1;stroke-linecap:round;stroke-linejoin:round;fill-opacity:0;"/>
</svg>