<svg xmlns="http://www.w3.org/2000/svg" viewBox="0 0 355 207.4" preserveAspectRatio="xMidYMid meet" role="img">
  <title>Proposition 24 figure</title>
  <path class="stroke-black stroke-dotted" data-name="arc-right" d="M270.67,54.44c5.93,2.17,12.33,3.36,19.01,3.36c7.02,0,13.74-1.32,19.92-3.71" style="stroke:#000000;stroke-width:5;stroke-opacity:1;stroke-linecap:butt;stroke-linejoin:round;stroke-dasharray:5;fill-opacity:0;"/>
  <line class="stroke-blue stroke-thin" data-name="line-blue-thin-bottom" x1="309.61" y1="54.08" x2="352.5" y2="165.17" style="stroke:#0e638e;stroke-width:2;stroke-opacity:1;stroke-linecap:round;stroke-linejoin:round;fill-opacity:0;"/>
  <line class="stroke-blue stroke-thin" data-name="line-blue-thin-top" x1="289.69" y1="2.5" x2="309.61" y2="54.08" style="stroke:#0e638e;stroke-width:2;stroke-opacity:1;stroke-linecap:round;stroke-linejoin:round;fill-opacity:0;"/>
  <line class="stroke-red stroke-thin" data-name="line-red-thin-bottom" x1="270.67" y1="54.44" x2="215.6" y2="204.9" style="stroke:#d42a20;stroke-width:2;stroke-opacity:1;stroke-linecap:round;stroke-linejoin:round;fill-opacity:0;"/>
  <line class="stroke-red stroke-thin" data-name="line-red-thin-top" x1="289.69" y1="2.5" x2="270.67" y2="54.44" style="stroke:#d42a20;stroke-width:2;stroke-opacity:1;stroke-linecap:round;stroke-linejoin:round;fill-opacity:0;"/>
  <line class="stroke-yellow" data-name="line-yellow" x1="352.5" y1="165.17" x2="215.6" y2="204.9" style="stroke:#fac22b;stroke-width:5;stroke-opacity:1;stroke-linecap:round;stroke-linejoin:round;fill-opacity:0;"/>
  <path class="fill-red" data-name="angle-red" d="M25.76,181.72c3.33-4.67,5.29-10.38,5.29-16.55H2.5L25.76,181.72z" style="fill:#d42a20;fill-opacity:1;stroke-opacity:0;"/>
  <path class="fill-blue" data-name="angle-blue" d="M20.32,142.86L2.5,165.17h28.55C31.05,156.14,26.86,148.1,20.32,142.86z" style="fill:#0e638e;fill-opacity:1;stroke-opacity:0;"/>
  <path class="fill-black" data-name="angle-black" d="M58.33,204.9l24.33-7.06c-2.25-7.75-8.09-13.98-15.62-16.74L58.33,204.9z" style="fill:#000000;fill-opacity:1;stroke-opacity:0;"/>
  <path class="fill-yellow" data-name="angle-yellow" d="M58.33,204.9l8.71-23.8c-2.72-0.99-5.65-1.54-8.71-1.54c-8.52,0-16.04,4.21-20.64,10.65L58.33,204.9z" style="fill:#fac22b;fill-opacity:1;stroke-opacity:0;"/>
  <line class="stroke-trans" data-name="line-black-dotted-trans" x1="195.23" y1="165.17" x2="58.33" y2="204.9" style="stroke:#fcf3d9;stroke-width:5;stroke-opacity:1;stroke-linecap:round;stroke-linejoin:round;fill-opacity:0;"/>
  <line class="stroke-black stroke-dotted" data-name="line-black-dotted" x1="195.23" y1="165.17" x2="58.33" y2="204.9" style="stroke:#000000;stroke-width:5;stroke-opacity:1;stroke-linecap:butt;stroke-linejoin:round;stroke-dasharray:5;fill-opacity:0;"/>
  <line class="stroke-trans" data-name="line-blue-dotted-trans" x1="2.5" y1="165.17" x2="58.33" y2="204.9" style="stroke:#fcf3d9;stroke-width:5;stroke-opacity:1;stroke-linecap:round;stroke-linejoin:round;fill-opacity:0;"/>
  <line class="stroke-blue stroke-dotted" data-name="line-blue-dotted" x1="2.5" y1="165.17" x2="58.33" y2="204.9" style="stroke:#0e638e;stroke-width:5;stroke-opacity:1;stroke-linecap:butt;stroke-linejoin:round;stroke-dasharray:5;fill-opacity:0;"/>
  <path class="stroke-black stroke-dotted" data-name="arc-left" d="M113.41,54.44c5.93,2.17,12.33,3.36,19.01,3.36c7.02,0,13.74-1.32,19.92-3.71" style="stroke:#000000;stroke-width:5;stroke-opacity:1;stroke-linecap:butt;stroke-linejoin:round;stroke-dasharray:5;fill-opacity:0;"/>
  <path class="stroke-black stroke-thin" data-name="arc9" d="M97.92,45.7c4.62,3.69,9.83,6.67,15.49,8.74" style="stroke:#000000;stroke-width:2;stroke-opacity:1;stroke-linecap:round;stroke-linejoin:round;fill-opacity:0;"/>
  <path class="stroke-black stroke-thin" data-name="arc8" d="M101.44,41.28c4.15,3.32,8.83,5.99,13.91,7.85" style="stroke:#000000;stroke-width:2;stroke-opacity:1;stroke-linecap:round;stroke-linejoin:round;fill-opacity:0;"/>
  <path class="stroke-black stroke-thin" data-name="arc7" d="M104.97,36.87c3.67,2.94,7.82,5.31,12.32,6.96" style="stroke:#000000;stroke-width:2;stroke-opacity:1;stroke-linecap:round;stroke-linejoin:round;fill-opacity:0;"/>
  <path class="stroke-black stroke-thin" data-name="arc6" d="M108.5,32.46c3.2,2.56,6.82,4.63,10.74,6.06" style="stroke:#000000;stroke-width:2;stroke-opacity:1;stroke-linecap:round;stroke-linejoin:round;fill-opacity:0;"/>
  <path class="stroke-black stroke-thin" data-name="arc5" d="M112.02,28.04c2.73,2.18,5.81,3.95,9.16,5.17" style="stroke:#000000;stroke-width:2;stroke-opacity:1;stroke-linecap:round;stroke-linejoin:round;fill-opacity:0;"/>
  <path class="stroke-black stroke-thin" data-name="arc4" d="M115.55,23.63c2.26,1.81,4.81,3.26,7.58,4.28" style="stroke:#000000;stroke-width:2;stroke-opacity:1;stroke-linecap:round;stroke-linejoin:round;fill-opacity:0;"/>
  <path class="stroke-black stroke-thin" data-name="arc3" d="M119.07,19.21c1.79,1.43,3.8,2.58,5.99,3.38" style="stroke:#000000;stroke-width:2;stroke-opacity:1;stroke-linecap:round;stroke-linejoin:round;fill-opacity:0;"/>
  <path class="stroke-black stroke-thin" data-name="arc2" d="M122.6,14.79c1.31,1.05,2.8,1.89,4.41,2.48" style="stroke:#000000;stroke-width:2;stroke-opacity:1;stroke-linecap:round;stroke-linejoin:round;fill-opacity:0;"/>
  <path class="stroke-black stroke-thin" data-name="arc1" d="M126.13,10.38c0.84,0.67,1.8,1.21,2.83,1.59" style="stroke:#000000;stroke-width:2;stroke-opacity:1;stroke-linecap:round;stroke-linejoin:round;fill-opacity:0;"/>
  <line class="stroke-trans" data-name="line-red-dotted-top-trans" x1="132.42" y1="2.5" x2="97.92" y2="45.7" style="stroke:#fcf3d9;stroke-width:5;stroke-opacity:1;stroke-linecap:round;stroke-linejoin:round;fill-opacity:0;"/>
  <line class="stroke-red stroke-dotted" data-name="line-red-dotted-top" x1="132.42" y1="2.5" x2="97.92" y2="45.7" style="stroke:#d42a20;stroke-width:5;stroke-opacity:1;stroke-linecap:butt;stroke-linejoin:round;stroke-dasharray:5;fill-opacity:0;"/>
  <line class="stroke-trans" data-name="line-red-dotted-bottom-trans" x1="97.92" y1="45.7" x2="2.5" y2="165.17" style="stroke:#fcf3d9;stroke-width:5;stroke-opacity:1;stroke-linecap:round;stroke-linejoin:round;fill-opacity:0;"/>
  <line class="stroke-red stroke-dotted" data-name="line-red-dotted-bottom" x1="97.92" y1="45.7" x2="2.5" y2="165.17" style="stroke:#d42a20;stroke-width:5;stroke-opacity:1;stroke-linecap:butt;stroke-linejoin:round;stroke-dasharray:5;fill-opacity:0;"/>
  <line class="stroke-blue" data-name="line-blue-bottom" x1="152.34" y1="54.08" x2="195.23" y2="165.17" style="stroke:#0e638e;stroke-width:5;stroke-opacity:1;stroke-linecap:round;stroke-linejoin:round;fill-opacity:0;"/>
  <line class="stroke-blue" data-name="line-blue-top" x1="132.42" y1="2.5" x2="152.34" y2="54.08" style="stroke:#0e638e;stroke-width:5;stroke-opacity:1;stroke-linecap:round;stroke-linejoin:round;fill-opacity:0;"/>
  <line class="stroke-red" data-name="line-red-top" x1="132.42" y1="2.5" x2="113.41" y2="54.44" style="stroke:#d42a20;stroke-width:5;stroke-opacity:1;stroke-linecap:round;stroke-linejoin:round;fill-opacity:0;"/>
  <line class="stroke-red" data-name="line-red-bottom" x1="113.41" y1="54.44" x2="58.33" y2="204.9" style="stroke:#d42a20;stroke-width:5;stroke-opacity:1;stroke-linecap:round;stroke-linejoin:round;fill-opacity:0;"/>
  <line class="stroke-black" data-name="line-black" x1="195.23" y1="165.17" x2="2.5" y2="165.17" style="stroke:#000000;stroke-width:5;stroke-opacity:1;stroke-linecap:round;stroke-linejoin:round;fill-opacity:0;"/>
</svg>