<svg xmlns="http://www.w3.org/2000/svg" viewBox="0 0 347.77 355" preserveAspectRatio="xMidYMid meet" role="img">
  <title>Proposition 20 figure</title>
  <path class="fill-blue" data-name="angle-blue" d="M295.55,308.31l49.72,44.19l-2.65-66.46C323.91,286.77,307.19,295.23,295.55,308.31z" style="fill:#0e638e;fill-opacity:1;stroke-opacity:0;"/>
  <path class="fill-yellow" data-name="angle-yellow" d="M295.55,308.31c-10.45,11.75-16.81,27.22-16.81,44.19h66.53L295.55,308.31z" style="fill:#fac22b;fill-opacity:1;stroke-opacity:0;"/>
  <path class="fill-red" data-name="angle-red" d="M331.32,74.94c0.97,0,1.93-0.04,2.89-0.07L331.32,2.5l-49.59,52.78C294.69,67.47,312.13,74.94,331.32,74.94z" style="fill:#d42a20;fill-opacity:1;stroke-opacity:0;"/>
  <line class="stroke-trans" data-name="line-blue-dotted-trans" x1="331.32" y1="2.5" x2="158.46" y2="186.49" style="stroke:#fcf3d9;stroke-width:5;stroke-opacity:1;stroke-linecap:round;stroke-linejoin:round;fill-opacity:0;"/>
  <line class="stroke-blue stroke-dotted" data-name="line-blue-dotted" x1="331.32" y1="2.5" x2="158.46" y2="186.49" style="stroke:#0e638e;stroke-width:5;stroke-opacity:1;stroke-linecap:butt;stroke-linejoin:round;stroke-dasharray:5;fill-opacity:0;"/>
  <line class="stroke-red" data-name="line-red" x1="345.27" y1="352.5" x2="158.46" y2="186.49" style="stroke:#d42a20;stroke-width:5;stroke-opacity:1;stroke-linecap:round;stroke-linejoin:round;fill-opacity:0;"/>
  <line class="stroke-yellow" data-name="line-yellow" x1="345.27" y1="352.5" x2="331.32" y2="2.5" style="stroke:#fac22b;stroke-width:5;stroke-opacity:1;stroke-linecap:round;stroke-linejoin:round;fill-opacity:0;"/>
  <line class="stroke-black" data-name="line-black" x1="2.5" y1="352.5" x2="345.27" y2="352.5" style="stroke:#000000;stroke-width:5;stroke-opacity:1;stroke-linecap:round;stroke-linejoin:round;fill-opacity:0;"/>
  <line class="stroke-blue" data-name="line-blue" x1="158.46" y1="186.49" x2="2.5" y2="352.5" style="stroke:#0e638e;stroke-width:5;stroke-opacity:1;stroke-linecap:round;stroke-linejoin:round;fill-opacity:0;"/>
</svg>