<svg xmlns="http://www.w3.org/2000/svg" viewBox="0 0 355 355" preserveAspectRatio="xMidYMid meet" role="img">
  <title>Proposition 2 figure</title>
  <path class="fill-black" data-name="angle-black" d="M259.05,332.38l-20.28-38.51c-7.73,4.08-14.08,10.41-18.18,18.13L259.05,332.38z" style="fill:#000000;fill-opacity:1;stroke-opacity:0;"/>
  <path class="fill-yellow" data-name="angle-yellow" d="M149.67,274.42l12.01-41.83c-3.82-1.09-7.84-1.69-12.01-1.69c-16.67,0-31.15,9.38-38.46,23.15C133.14,265.66,149.67,274.42,149.67,274.42z" style="fill:#fac22b;fill-opacity:1;stroke-opacity:0;"/>
  <path class="fill-blue" data-name="angle-blue" d="M42.04,217.39c3.23-6.08,5.07-13.01,5.07-20.38c0-1.64-0.1-3.26-0.28-4.85l-43.25,4.85L42.04,217.39z" style="fill:#0e638e;fill-opacity:1;stroke-opacity:0;"/>
  <line class="stroke-black stroke-dotted" data-name="line-black-dotted" x1="149.67" y1="274.42" x2="129.19" y2="345.74" style="stroke:#000000;stroke-width:5;stroke-opacity:1;stroke-linecap:butt;stroke-linejoin:round;stroke-dasharray:5;fill-opacity:0;"/>
  <line class="stroke-black" data-name="line-black" x1="177.5" y1="177.5" x2="149.67" y2="274.42" style="stroke:#000000;stroke-width:5;stroke-opacity:1;stroke-linecap:round;stroke-linejoin:round;fill-opacity:0;"/>
  <line class="stroke-yellow" data-name="line-yellow" x1="177.5" y1="177.5" x2="3.58" y2="197.01" style="stroke:#fac22b;stroke-width:5;stroke-opacity:1;stroke-linecap:round;stroke-linejoin:round;fill-opacity:0;"/>
  <line class="stroke-blue" data-name="line-blue" x1="259.05" y1="332.38" x2="177.5" y2="177.5" style="stroke:#0e638e;stroke-width:5;stroke-opacity:1;stroke-linecap:round;stroke-linejoin:round;fill-opacity:0;"/>
  <line class="stroke-red" data-name="line-red" x1="3.58" y1="197.01" x2="259.05" y2="332.38" style="stroke:#d42a20;stroke-width:5;stroke-opacity:1;stroke-linecap:round;stroke-linejoin:round;fill-opacity:0;"/>
  <circle class="stroke-red" data-name="circle" cx="177.5" cy="177.5" r="175" style="stroke:#d42a20;stroke-width:5;stroke-opacity:1;stroke-linecap:round;stroke-linejoin:round;fill-opacity:0;"/>
</svg>