<svg xmlns="http://www.w3.org/2000/svg" viewBox="0 0 355 327.19" preserveAspectRatio="xMidYMid meet" role="img">
  <title>Proposition 37 figure</title>
  <path class="fill-blue" data-name="angle-blue" d="M156.1,53.85c0-3.1-0.33-6.11-0.96-9.03l-42.09,9.03l8.22,42.25C141.12,92.26,156.1,74.81,156.1,53.85z" style="fill:#0e638e;fill-opacity:1;stroke-opacity:0;"/>
  <path class="fill-red" data-name="angle-red" d="M268.44,232.5l14.78-40.44c-4.61-1.69-9.59-2.61-14.78-2.61c-18.87,0-34.89,12.14-40.7,29.04L268.44,232.5z" style="fill:#d42a20;fill-opacity:1;stroke-opacity:0;"/>
  <line class="stroke-black stroke-dotted" data-name="line-black-dotted" x1="352.5" y1="2.5" x2="213.77" y2="73.5" style="stroke:#000000;stroke-width:5;stroke-opacity:1;stroke-linecap:butt;stroke-linejoin:round;stroke-dasharray:5;fill-opacity:0;"/>
  <line class="stroke-yellow" data-name="line-yellow" x1="139.17" y1="188.02" x2="352.5" y2="2.5" style="stroke:#fac22b;stroke-width:5;stroke-opacity:1;stroke-linecap:round;stroke-linejoin:round;fill-opacity:0;"/>
  <circle class="stroke-black" data-name="circle" cx="139.17" cy="188.02" r="136.67" style="stroke:#000000;stroke-width:5;stroke-opacity:1;stroke-linecap:round;stroke-linejoin:round;fill-opacity:0;"/>
  <line class="stroke-trans" data-name="line-blue-dotted-trans" x1="139.17" y1="188.02" x2="268.44" y2="232.5" style="stroke:#fcf3d9;stroke-width:5;stroke-opacity:1;stroke-linecap:round;stroke-linejoin:round;fill-opacity:0;"/>
  <line class="stroke-blue stroke-dotted" data-name="line-blue-dotted" x1="139.17" y1="188.02" x2="268.44" y2="232.5" style="stroke:#0e638e;stroke-width:5;stroke-opacity:1;stroke-linecap:butt;stroke-linejoin:round;stroke-dasharray:5;fill-opacity:0;"/>
  <line class="stroke-trans" data-name="line-red-dotted-trans" x1="139.17" y1="188.02" x2="113.06" y2="53.85" style="stroke:#fcf3d9;stroke-width:5;stroke-opacity:1;stroke-linecap:round;stroke-linejoin:round;fill-opacity:0;"/>
  <line class="stroke-red stroke-dotted" data-name="line-red-dotted" x1="139.17" y1="188.02" x2="113.06" y2="53.85" style="stroke:#d42a20;stroke-width:5;stroke-opacity:1;stroke-linecap:butt;stroke-linejoin:round;stroke-dasharray:5;fill-opacity:0;"/>
  <line class="stroke-red" data-name="line-red" x1="113.06" y1="53.85" x2="352.5" y2="2.5" style="stroke:#d42a20;stroke-width:5;stroke-opacity:1;stroke-linecap:round;stroke-linejoin:round;fill-opacity:0;"/>
  <line class="stroke-blue" data-name="line-blue" x1="268.44" y1="232.5" x2="352.5" y2="2.5" style="stroke:#0e638e;stroke-width:5;stroke-opacity:1;stroke-linecap:round;stroke-linejoin:round;fill-opacity:0;"/>
  <line class="stroke-black" data-name="line-black" x1="213.77" y1="73.5" x2="2.65" y2="181.54" style="stroke:#000000;stroke-width:5;stroke-opacity:1;stroke-linecap:round;stroke-linejoin:round;fill-opacity:0;"/>
</svg>