<svg xmlns="http://www.w3.org/2000/svg" viewBox="0 0 355 530" preserveAspectRatio="xMidYMid meet" role="img">
  <title>Proposition 15 figure</title>
  <path class="stroke-black stroke-thin" data-name="angle-outline" d="M223.8,150.77c-9.27-16.11-26.64-26.96-46.56-26.96c-29.65,0-53.69,24.04-53.69,53.69c0,9.83,2.65,19.03,7.26,26.95l46.56-26.88L223.8,150.77z" style="stroke:#000000;stroke-width:2;stroke-opacity:1;stroke-linecap:round;stroke-linejoin:round;fill-opacity:0;"/>
  <path class="fill-red" data-name="angle-red" d="M130.82,204.45c9.3,15.98,26.6,26.74,46.43,26.74c0.09,0,0.17-0.01,0.26-0.01V177.5l-0.13,0.07L130.82,204.45z" style="fill:#d42a20;fill-opacity:1;stroke-opacity:0;"/>
  <path class="fill-black" data-name="angle-black" d="M230.93,177.5c0-9.74-2.6-18.86-7.13-26.73l-46.3,26.73l46.3,26.73C228.33,196.36,230.93,187.24,230.93,177.5z" style="fill:#000000;fill-opacity:1;stroke-opacity:0;"/>
  <path class="fill-blue" data-name="angle-blue" d="M223.8,204.23l-46.3-26.73v53.68C197.31,231.09,214.57,220.27,223.8,204.23z" style="fill:#0e638e;fill-opacity:1;stroke-opacity:0;"/>
  <line class="stroke-black stroke-thin" data-name="line-black-thin" x1="177.5" y1="2.5" x2="25.92" y2="89.99" style="stroke:#000000;stroke-width:2;stroke-opacity:1;stroke-linecap:round;stroke-linejoin:round;fill-opacity:0;"/>
  <line class="stroke-blue stroke-dotted" data-name="line-blue-dotted" x1="329.08" y1="265.01" x2="329.08" y2="89.99" style="stroke:#0e638e;stroke-width:5;stroke-opacity:1;stroke-linecap:butt;stroke-linejoin:round;stroke-dasharray:5;fill-opacity:0;"/>
  <line class="stroke-red stroke-dotted" data-name="line-red-dotted" x1="177.5" y1="352.5" x2="329.08" y2="265.01" style="stroke:#d42a20;stroke-width:5;stroke-opacity:1;stroke-linecap:butt;stroke-linejoin:round;stroke-dasharray:5;fill-opacity:0;"/>
  <line class="stroke-black stroke-dotted" data-name="line-black-dotted" x1="25.92" y1="265.01" x2="177.5" y2="352.5" style="stroke:#000000;stroke-width:5;stroke-opacity:1;stroke-linecap:butt;stroke-linejoin:round;stroke-dasharray:5;fill-opacity:0;"/>
  <line class="stroke-black stroke-thin" data-name="line-black-thin" x1="25.92" y1="265.01" x2="25.92" y2="89.99" style="stroke:#000000;stroke-width:2;stroke-opacity:1;stroke-linecap:round;stroke-linejoin:round;fill-opacity:0;"/>
  <line class="stroke-black stroke-thin" data-name="line-black-thin" x1="329.08" y1="89.99" x2="177.5" y2="2.5" style="stroke:#000000;stroke-width:2;stroke-opacity:1;stroke-linecap:round;stroke-linejoin:round;fill-opacity:0;"/>
  <line class="stroke-blue" data-name="line-blue-right" x1="177.37" y1="177.57" x2="329.08" y2="89.99" style="stroke:#0e638e;stroke-width:5;stroke-opacity:1;stroke-linecap:round;stroke-linejoin:round;fill-opacity:0;"/>
  <line class="stroke-blue" data-name="line-blue-left" x1="25.92" y1="265.01" x2="177.37" y2="177.57" style="stroke:#0e638e;stroke-width:5;stroke-opacity:1;stroke-linecap:round;stroke-linejoin:round;fill-opacity:0;"/>
  <line class="stroke-yellow" data-name="line-yellow-left" x1="177.44" y1="177.46" x2="25.92" y2="89.99" style="stroke:#fac22b;stroke-width:5;stroke-opacity:1;stroke-linecap:round;stroke-linejoin:round;fill-opacity:0;"/>
  <line class="stroke-yellow" data-name="line-yellow-right" x1="329.08" y1="265.01" x2="177.44" y2="177.46" style="stroke:#fac22b;stroke-width:5;stroke-opacity:1;stroke-linecap:round;stroke-linejoin:round;fill-opacity:0;"/>
  <circle class="stroke-red" data-name="circle-red" cx="177.5" cy="352.5" r="175" style="stroke:#d42a20;stroke-width:5;stroke-opacity:1;stroke-linecap:round;stroke-linejoin:round;fill-opacity:0;"/>
  <line class="stroke-black" data-name="line-black-top" x1="177.5" y1="177.5" x2="177.5" y2="2.5" style="stroke:#000000;stroke-width:5;stroke-opacity:1;stroke-linecap:round;stroke-linejoin:round;fill-opacity:0;"/>
  <line class="stroke-black" data-name="line-black-bottom" x1="177.5" y1="352.5" x2="177.5" y2="177.5" style="stroke:#000000;stroke-width:5;stroke-opacity:1;stroke-linecap:round;stroke-linejoin:round;fill-opacity:0;"/>
  <line class="stroke-red" data-name="line-red" x1="177.5" y1="352.5" x2="177.5" y2="527.5" style="stroke:#d42a20;stroke-width:5;stroke-opacity:1;stroke-linecap:round;stroke-linejoin:round;fill-opacity:0;"/>
  <circle class="stroke-yellow" data-name="circle-yellow" cx="177.5" cy="177.5" r="175" style="stroke:#fac22b;stroke-width:5;stroke-opacity:1;stroke-linecap:round;stroke-linejoin:round;fill-opacity:0;"/>
</svg>