<svg xmlns="http://www.w3.org/2000/svg" viewBox="0 0 355 262.78" preserveAspectRatio="xMidYMid meet" role="img">
  <title>Proposition 16 figure</title>
  <path class="stroke-black stroke-thin" data-name="angle-outline-stroke" d="M286.33,185.96c-1.3,3.41-2.02,7.1-2.02,10.97c0,3.74,0.67,7.33,1.89,10.65c8.08-2.98,28.89-10.65,28.89-10.65L286.33,185.96z" style="stroke:#000000;stroke-width:2;stroke-opacity:1;stroke-linecap:round;stroke-linejoin:round;fill-opacity:0;"/>
  <path class="fill-black" data-name="angle-outline" d="M290.98,196.93c0-3.03,0.56-5.92,1.58-8.59l-6.24-2.38c-1.3,3.41-2.02,7.1-2.02,10.97c0,3.74,0.67,7.33,1.89,10.65c1.75-0.65,4.83-1.78,6.26-2.31C291.51,202.67,290.98,199.86,290.98,196.93z" style="fill:#000000;fill-opacity:1;stroke-opacity:0;"/>
  <line class="stroke-trans" data-name="line-red-dotted-trans" x1="143.23" y1="260.28" x2="315.09" y2="196.93" style="stroke:#fcf3d9;stroke-width:5;stroke-opacity:1;stroke-linecap:round;stroke-linejoin:round;fill-opacity:0;"/>
  <line class="stroke-red stroke-dotted" data-name="line-red-dotted-right" x1="263.69" y1="215.88" x2="315.09" y2="196.93" style="stroke:#d42a20;stroke-width:5;stroke-opacity:1;stroke-linecap:butt;stroke-linejoin:round;stroke-dasharray:5;fill-opacity:0;"/>
  <line class="stroke-red stroke-dotted" data-name="line-red-dotted-left" x1="143.23" y1="260.28" x2="263.69" y2="215.88" style="stroke:#d42a20;stroke-width:5;stroke-opacity:1;stroke-linecap:butt;stroke-linejoin:round;stroke-dasharray:5;fill-opacity:0;"/>
  <path class="fill-red" data-name="angle-red" d="M143.23,260.28h30.79c0-3.74-0.67-7.33-1.89-10.65L143.23,260.28z" style="fill:#d42a20;fill-opacity:1;stroke-opacity:0;"/>
  <path class="fill-blue" data-name="angle-blue" d="M172.12,249.63c-4.33-11.75-15.63-20.14-28.89-20.14v30.79L172.12,249.63z" style="fill:#0e638e;fill-opacity:1;stroke-opacity:0;"/>
  <path class="fill-yellow" data-name="angle-yellow" d="M118.89,241.44l24.34,18.84v-30.79C133.32,229.49,124.52,234.17,118.89,241.44z" style="fill:#fac22b;fill-opacity:1;stroke-opacity:0;"/>
  <path class="fill-black" data-name="angle-black" d="M43.38,183c4.04-5.21,6.45-11.74,6.45-18.84c0-2.88-0.4-5.67-1.14-8.31l-30.27,7.83L43.38,183z" style="fill:#000000;fill-opacity:1;stroke-opacity:0;"/>
  <line class="stroke-yellow" data-name="line-yellow" x1="2.5" y1="260.28" x2="352.5" y2="260.28" style="stroke:#fac22b;stroke-width:5;stroke-opacity:1;stroke-linecap:round;stroke-linejoin:round;fill-opacity:0;"/>
  <line class="stroke-black" data-name="line-black" x1="143.23" y1="260.28" x2="143.23" y2="131.39" style="stroke:#000000;stroke-width:5;stroke-opacity:1;stroke-linecap:round;stroke-linejoin:round;fill-opacity:0;"/>
  <line class="stroke-red" data-name="line-red" x1="143.23" y1="260.28" x2="18.41" y2="163.67" style="stroke:#d42a20;stroke-width:5;stroke-opacity:1;stroke-linecap:round;stroke-linejoin:round;fill-opacity:0;"/>
  <line class="stroke-yellow stroke-dotted" data-name="line-yellow-dotted" x1="143.23" y1="131.39" x2="143.23" y2="2.5" style="stroke:#fac22b;stroke-width:5;stroke-opacity:1;stroke-linecap:butt;stroke-linejoin:round;stroke-dasharray:5;fill-opacity:0;"/>
  <line class="stroke-trans" data-name="line-black-dotted-left-trans" x1="263.69" y1="177.32" x2="315.09" y2="196.93" style="stroke:#fcf3d9;stroke-width:5;stroke-opacity:1;stroke-linecap:round;stroke-linejoin:round;fill-opacity:0;"/>
  <line class="stroke-black stroke-dotted" data-name="line-black-dotted-left" x1="263.69" y1="177.32" x2="315.09" y2="196.93" style="stroke:#000000;stroke-width:5;stroke-opacity:1;stroke-linecap:butt;stroke-linejoin:round;stroke-dasharray:5;fill-opacity:0;"/>
  <line class="stroke-blue stroke-dotted" data-name="line-blue-dotted" x1="143.23" y1="131.39" x2="263.69" y2="177.32" style="stroke:#0e638e;stroke-width:5;stroke-opacity:1;stroke-linecap:butt;stroke-linejoin:round;stroke-dasharray:5;fill-opacity:0;"/>
  <line class="stroke-black stroke-dotted" data-name="line-black-dotted-right" x1="315.09" y1="196.93" x2="352.5" y2="183.14" style="stroke:#000000;stroke-width:5;stroke-opacity:1;stroke-linecap:butt;stroke-linejoin:round;stroke-dasharray:5;fill-opacity:0;"/>
  <line class="stroke-blue" data-name="line-blue" x1="18.41" y1="163.67" x2="143.23" y2="131.39" style="stroke:#0e638e;stroke-width:5;stroke-opacity:1;stroke-linecap:round;stroke-linejoin:round;fill-opacity:0;"/>
  <circle class="stroke-blue" data-name="circle" cx="143.23" cy="131.39" r="128.89" style="stroke:#0e638e;stroke-width:5;stroke-opacity:1;stroke-linecap:round;stroke-linejoin:round;fill-opacity:0;"/>
</svg>