<svg xmlns="http://www.w3.org/2000/svg" viewBox="0 0 355 336.37" preserveAspectRatio="xMidYMid meet" role="img">
  <title>Proposition 13 figure</title>
  <path class="fill-red" data-name="angle-red-left" d="M266.67,307.74c-8.07,5.87-13.32,15.38-13.32,26.13h32.3L266.67,307.74z" style="fill:#d42a20;fill-opacity:1;stroke-opacity:0;"/>
  <path class="fill-red" data-name="angle-red-right" d="M285.66,333.87l9.98-30.72c-3.14-1.02-6.5-1.58-9.98-1.58c-7.1,0-13.65,2.29-18.98,6.17L285.66,333.87z" style="fill:#d42a20;fill-opacity:1;stroke-opacity:0;"/>
  <path class="fill-blue" data-name="angle-blue-left" d="M69.34,333.87l18.98-26.13c-5.33-3.88-11.89-6.17-18.98-6.17c-3.48,0-6.84,0.56-9.98,1.58L69.34,333.87z" style="fill:#0e638e;fill-opacity:1;stroke-opacity:0;"/>
  <path class="fill-blue" data-name="angle-blue-right" d="M88.33,307.74l-18.98,26.13h32.3C101.64,323.13,96.39,313.62,88.33,307.74z" style="fill:#0e638e;fill-opacity:1;stroke-opacity:0;"/>
  <path class="fill-black" data-name="angle-black-right" d="M177.5,301.57c-17.84,0-32.3,14.46-32.3,32.3c13.53,0,32.3,0,32.3,0V301.57z" style="fill:#000000;fill-opacity:1;stroke-opacity:0;"/>
  <path class="fill-black" data-name="angle-black-left" d="M45.9,261.73c12.95-4.21,22.32-16.37,22.32-30.72c0-3.48-0.56-6.84-1.58-9.98l-30.72,9.98L45.9,261.73z" style="fill:#000000;fill-opacity:1;stroke-opacity:0;"/>
  <path class="fill-yellow" data-name="angle-yellow-top" d="M33.22,138.13c1.02-3.14,1.58-6.5,1.58-9.98c0-7.1-2.29-13.65-6.17-18.98L2.5,128.14L33.22,138.13z" style="fill:#fac22b;fill-opacity:1;stroke-opacity:0;"/>
  <path class="fill-yellow" data-name="angle-yellow-bottom" d="M2.5,128.14l9.98,30.72c9.81-3.18,17.55-10.93,20.74-20.74L2.5,128.14z" style="fill:#fac22b;fill-opacity:1;stroke-opacity:0;"/>
  <path class="stroke-black stroke-thin" data-name="angle-outline-top" d="M326.37,109.16c-3.88,5.33-6.17,11.89-6.17,18.98c0,3.48,0.56,6.84,1.58,9.98l30.72-9.98L326.37,109.16z" style="stroke:#000000;stroke-width:2;stroke-opacity:1;stroke-linecap:round;stroke-linejoin:round;fill-opacity:0;"/>
  <path class="stroke-black stroke-thin" data-name="angle-outline-bottom" d="M321.78,138.13c3.18,9.81,10.93,17.55,20.74,20.74l9.98-30.72L321.78,138.13z" style="stroke:#000000;stroke-width:2;stroke-opacity:1;stroke-linecap:round;stroke-linejoin:round;fill-opacity:0;"/>
  <path class="fill-black" data-name="arc" d="M327.25,128.14c0-5.55,1.79-10.67,4.83-14.84l-5.7-4.14c-3.88,5.33-6.17,11.89-6.17,18.98c0,14.35,9.37,26.51,22.32,30.72l2.18-6.7C334.57,148.87,327.25,139.37,327.25,128.14z" style="fill:#000000;fill-opacity:1;stroke-opacity:0;"/>
  <line class="stroke-black stroke-thin" data-name="line-edge" x1="177.5" y1="1" x2="2.5" y2="128.14" style="stroke:#000000;stroke-width:2;stroke-opacity:1;stroke-linecap:round;stroke-linejoin:round;fill-opacity:0;"/>
  <line class="stroke-black stroke-thin" data-name="line-edge" x1="352.5" y1="128.14" x2="177.5" y2="1" style="stroke:#000000;stroke-width:2;stroke-opacity:1;stroke-linecap:round;stroke-linejoin:round;fill-opacity:0;"/>
  <line class="stroke-black stroke-thin" data-name="line-edge" x1="285.66" y1="333.87" x2="352.5" y2="128.14" style="stroke:#000000;stroke-width:2;stroke-opacity:1;stroke-linecap:round;stroke-linejoin:round;fill-opacity:0;"/>
  <line class="stroke-black stroke-thin" data-name="spoke" x1="90" y1="64.57" x2="177.5" y2="185.01" style="stroke:#000000;stroke-width:2;stroke-opacity:1;stroke-linecap:round;stroke-linejoin:round;fill-opacity:0;"/>
  <line class="stroke-black stroke-thin" data-name="spoke" x1="177.5" y1="185.01" x2="265.01" y2="64.56" style="stroke:#000000;stroke-width:2;stroke-opacity:1;stroke-linecap:round;stroke-linejoin:round;fill-opacity:0;"/>
  <line class="stroke-black stroke-thin" data-name="spoke" x1="177.5" y1="185.01" x2="177.5" y2="1" style="stroke:#000000;stroke-width:2;stroke-opacity:1;stroke-linecap:round;stroke-linejoin:round;fill-opacity:0;"/>
  <line class="stroke-blue" data-name="line-blue" x1="177.5" y1="333.87" x2="177.5" y2="185.01" style="stroke:#0e638e;stroke-width:5;stroke-opacity:1;stroke-linecap:round;stroke-linejoin:round;fill-opacity:0;"/>
  <line class="stroke-trans" data-name="line-black-dotted-left-trans" x1="2.5" y1="128.14" x2="35.92" y2="231.01" style="stroke:#fcf3d9;stroke-width:5;stroke-opacity:1;stroke-linecap:round;stroke-linejoin:round;fill-opacity:0;"/>
  <line class="stroke-black stroke-dotted" data-name="line-black-dotted-left" x1="2.5" y1="128.14" x2="35.92" y2="231.01" style="stroke:#000000;stroke-width:5;stroke-opacity:1;stroke-linecap:butt;stroke-linejoin:round;stroke-dasharray:5;fill-opacity:0;"/>
  <line class="stroke-trans" data-name="line-black-dotted-right-trans" x1="177.5" y1="333.87" x2="285.66" y2="333.87" style="stroke:#fcf3d9;stroke-width:5;stroke-opacity:1;stroke-linecap:round;stroke-linejoin:round;fill-opacity:0;"/>
  <line class="stroke-black stroke-dotted" data-name="line-black-dotted-right" x1="177.5" y1="333.87" x2="285.66" y2="333.87" style="stroke:#000000;stroke-width:5;stroke-opacity:1;stroke-linecap:butt;stroke-linejoin:round;stroke-dasharray:5;fill-opacity:0;"/>
  <line class="stroke-black" data-name="line-black" x1="69.34" y1="333.87" x2="177.5" y2="185.01" style="stroke:#000000;stroke-width:5;stroke-opacity:1;stroke-linecap:round;stroke-linejoin:round;fill-opacity:0;"/>
  <line class="stroke-yellow" data-name="line-yellow-left" x1="35.92" y1="231.01" x2="69.34" y2="333.87" style="stroke:#fac22b;stroke-width:5;stroke-opacity:1;stroke-linecap:round;stroke-linejoin:round;fill-opacity:0;"/>
  <line class="stroke-yellow" data-name="line-yellow-right" x1="69.34" y1="333.87" x2="177.5" y2="333.87" style="stroke:#fac22b;stroke-width:5;stroke-opacity:1;stroke-linecap:round;stroke-linejoin:round;fill-opacity:0;"/>
  <line class="stroke-trans" data-name="line-blue-dotted-trans" x1="35.92" y1="231.01" x2="177.5" y2="185.01" style="stroke:#fcf3d9;stroke-width:5;stroke-opacity:1;stroke-linecap:round;stroke-linejoin:round;fill-opacity:0;"/>
  <line class="stroke-blue stroke-dotted" data-name="line-blue-dotted" x1="35.92" y1="231.01" x2="177.5" y2="185.01" style="stroke:#0e638e;stroke-width:5;stroke-opacity:1;stroke-linecap:butt;stroke-linejoin:round;stroke-dasharray:5;fill-opacity:0;"/>
  <line class="stroke-trans" data-name="line-red-dotted-trans" x1="177.5" y1="185.01" x2="352.5" y2="128.14" style="stroke:#fcf3d9;stroke-width:5;stroke-opacity:1;stroke-linecap:round;stroke-linejoin:round;fill-opacity:0;"/>
  <line class="stroke-red stroke-dotted" data-name="line-red-dotted" x1="177.5" y1="185.01" x2="352.5" y2="128.14" style="stroke:#d42a20;stroke-width:5;stroke-opacity:1;stroke-linecap:butt;stroke-linejoin:round;stroke-dasharray:5;fill-opacity:0;"/>
  <line class="stroke-red" data-name="line-red" x1="2.5" y1="128.14" x2="177.5" y2="185.01" style="stroke:#d42a20;stroke-width:5;stroke-opacity:1;stroke-linecap:round;stroke-linejoin:round;fill-opacity:0;"/>
  <line class="stroke-trans" data-name="line-yellow-dotted-trans" x1="177.5" y1="185.01" x2="285.66" y2="333.87" style="stroke:#fcf3d9;stroke-width:5;stroke-opacity:1;stroke-linecap:round;stroke-linejoin:round;fill-opacity:0;"/>
  <line class="stroke-yellow stroke-dotted" data-name="line-yellow-dotted" x1="177.5" y1="185.01" x2="285.66" y2="333.87" style="stroke:#fac22b;stroke-width:5;stroke-opacity:1;stroke-linecap:butt;stroke-linejoin:round;stroke-dasharray:5;fill-opacity:0;"/>
  <circle class="stroke-yellow" data-name="circle" cx="177.5" cy="185.01" r="148.86" style="stroke:#fac22b;stroke-width:5;stroke-opacity:1;stroke-linecap:round;stroke-linejoin:round;fill-opacity:0;"/>
</svg>