<svg xmlns="http://www.w3.org/2000/svg" viewBox="0 0 355 355" preserveAspectRatio="xMidYMid meet" role="img">
  <title>Proposition 7 figure</title>
  <path class="fill-red" data-name="angle-red-sw" d="M56.8,352.5c0-29.99-24.31-54.3-54.3-54.3c0,0,0,0,0,0v54.3L56.8,352.5C56.8,352.5,56.8,352.5,56.8,352.5z" style="fill:#d42a20;fill-opacity:1;stroke-opacity:0;"/>
  <path class="fill-red" data-name="angle-red-se" d="M352.5,298.2C352.5,298.2,352.5,298.2,352.5,298.2c-29.99,0-54.3,24.31-54.3,54.3c0,0,0,0,0,0h54.3V298.2z" style="fill:#d42a20;fill-opacity:1;stroke-opacity:0;"/>
  <path class="fill-red" data-name="angle-red-ne" d="M352.5,56.8C352.5,56.8,352.5,56.8,352.5,56.8l0-54.3h-54.3C298.2,32.49,322.51,56.8,352.5,56.8z" style="fill:#d42a20;fill-opacity:1;stroke-opacity:0;"/>
  <path class="fill-red" data-name="angle-red-nw" d="M2.5,56.8c29.99,0,54.3-24.31,54.3-54.3H2.5V56.8z" style="fill:#d42a20;fill-opacity:1;stroke-opacity:0;"/>
  <path class="fill-black" data-name="angle-black" d="M123.2,177.5c0,29.99,24.31,54.3,54.3,54.3v-54.3H123.2z" style="fill:#000000;fill-opacity:1;stroke-opacity:0;"/>
  <path class="fill-yellow" data-name="angle-yellow" d="M123.2,352.5C123.2,352.5,123.2,352.5,123.2,352.5c30.26,0,54.3,0,54.3,0v-54.3C147.51,298.2,123.2,322.51,123.2,352.5z" style="fill:#fac22b;fill-opacity:1;stroke-opacity:0;"/>
  <circle class="stroke-blue" data-name="circle" cx="177.5" cy="177.5" r="175" style="stroke:#0e638e;stroke-width:5;stroke-opacity:1;stroke-linecap:round;stroke-linejoin:round;fill-opacity:0;"/>
  <line class="stroke-trans" data-name="line-red-dotted-trans" x1="177.5" y1="2.5" x2="177.5" y2="352.5" style="stroke:#fcf3d9;stroke-width:5;stroke-opacity:1;stroke-linecap:round;stroke-linejoin:round;fill-opacity:0;"/>
  <line class="stroke-red stroke-dotted" data-name="line-red-dotted" x1="177.5" y1="2.5" x2="177.5" y2="352.5" style="stroke:#d42a20;stroke-width:5;stroke-opacity:1;stroke-linecap:butt;stroke-linejoin:round;stroke-dasharray:5;fill-opacity:0;"/>
  <line class="stroke-trans" data-name="line-blue-dotted-trans" x1="2.5" y1="177.5" x2="352.5" y2="177.5" style="stroke:#fcf3d9;stroke-width:5;stroke-opacity:1;stroke-linecap:round;stroke-linejoin:round;fill-opacity:0;"/>
  <line class="stroke-blue stroke-dotted" data-name="line-blue-dotted" x1="2.5" y1="177.5" x2="352.5" y2="177.5" style="stroke:#0e638e;stroke-width:5;stroke-opacity:1;stroke-linecap:butt;stroke-linejoin:round;stroke-dasharray:5;fill-opacity:0;"/>
  <line class="stroke-red" data-name="line-red" x1="2.5" y1="352.5" x2="2.5" y2="2.5" style="stroke:#d42a20;stroke-width:5;stroke-opacity:1;stroke-linecap:round;stroke-linejoin:round;fill-opacity:0;"/>
  <line class="stroke-yellow" data-name="line-yellow" x1="352.5" y1="2.5" x2="352.5" y2="352.5" style="stroke:#fac22b;stroke-width:5;stroke-opacity:1;stroke-linecap:round;stroke-linejoin:round;fill-opacity:0;"/>
  <line class="stroke-blue" data-name="line-blue" x1="352.5" y1="352.5" x2="2.5" y2="352.5" style="stroke:#0e638e;stroke-width:5;stroke-opacity:1;stroke-linecap:round;stroke-linejoin:round;fill-opacity:0;"/>
  <line class="stroke-black" data-name="line-black" x1="2.5" y1="2.5" x2="352.5" y2="2.5" style="stroke:#000000;stroke-width:5;stroke-opacity:1;stroke-linecap:round;stroke-linejoin:round;fill-opacity:0;"/>
</svg>