<svg xmlns="http://www.w3.org/2000/svg" viewBox="0 0 355 231.41" preserveAspectRatio="xMidYMid meet" role="img">
  <title>Proposition 17 figure</title>
  <path class="fill-blue" data-name="angle-blue" d="M33.28,177.79L2.5,228.91h59.67C62.17,207.22,50.59,188.23,33.28,177.79z" style="fill:#0e638e;fill-opacity:1;stroke-opacity:0;"/>
  <path class="fill-yellow" data-name="angle-yellow" d="M222.28,169.24c-7.26,0-14.21,1.3-20.65,3.67c7.69,20.85,20.65,56,20.65,56h59.67C281.95,195.96,255.23,169.24,222.28,169.24z" style="fill:#fac22b;fill-opacity:1;stroke-opacity:0;"/>
  <path class="fill-red" data-name="angle-red" d="M201.63,172.91c-22.78,8.4-39.02,30.3-39.02,56h59.67C222.28,228.91,209.32,193.76,201.63,172.91z" style="fill:#d42a20;fill-opacity:1;stroke-opacity:0;"/>
  <path class="fill-black" data-name="angle-black" d="M111.02,48.64c8.11,4.89,17.61,7.71,27.78,7.71c6.55,0,12.83-1.17,18.63-3.31C150.97,35.51,138.79,2.5,138.79,2.5L111.02,48.64z" style="fill:#000000;fill-opacity:1;stroke-opacity:0;"/>
  <line class="stroke-red" data-name="line-red" x1="2.5" y1="228.91" x2="138.79" y2="2.5" style="stroke:#d42a20;stroke-width:5;stroke-opacity:1;stroke-linecap:round;stroke-linejoin:round;fill-opacity:0;"/>
  <line class="stroke-blue" data-name="line-blue" x1="138.79" y1="2.5" x2="222.28" y2="228.91" style="stroke:#0e638e;stroke-width:5;stroke-opacity:1;stroke-linecap:round;stroke-linejoin:round;fill-opacity:0;"/>
  <line class="stroke-black" data-name="line-black-right" x1="222.28" y1="228.91" x2="352.5" y2="228.91" style="stroke:#000000;stroke-width:5;stroke-opacity:1;stroke-linecap:round;stroke-linejoin:round;fill-opacity:0;"/>
  <line class="stroke-black" data-name="line-black-left" x1="2.5" y1="228.91" x2="222.28" y2="228.91" style="stroke:#000000;stroke-width:5;stroke-opacity:1;stroke-linecap:round;stroke-linejoin:round;fill-opacity:0;"/>
</svg>