<svg xmlns="http://www.w3.org/2000/svg" viewBox="0 0 355 278.31" preserveAspectRatio="xMidYMid meet" role="img">
  <title>Proposition 4 figure</title>
  <path class="fill-blue" data-name="angle-blue" d="M55.11,243.24c-6.04-9.74-14.71-17.67-25.01-22.82L2.5,275.81L55.11,243.24z" style="fill:#0e638e;fill-opacity:1;stroke-opacity:0;"/>
  <path class="fill-yellow" data-name="angle-yellow" d="M2.5,275.81h61.87c0-11.95-3.39-23.1-9.26-32.56L2.5,275.81z" style="fill:#fac22b;fill-opacity:1;stroke-opacity:0;"/>
  <path class="fill-black" data-name="angle-black" d="M352.5,275.81l-34.46-44.05c-6.65,5.21-12.08,11.89-15.82,19.55L352.5,275.81z" style="fill:#000000;fill-opacity:1;stroke-opacity:0;"/>
  <path class="stroke-black stroke-thin" data-name="angle-outline-right" d="M302.21,251.3c-3.61,7.4-5.64,15.72-5.64,24.51h55.93L302.21,251.3z" style="stroke:#000000;stroke-width:2;stroke-opacity:1;stroke-linecap:round;stroke-linejoin:round;fill-opacity:0;"/>
  <path class="fill-red" data-name="angle-red-bottom" d="M156.68,233.1c-23.59,0-42.71,19.12-42.71,42.71h42.71V233.1z" style="fill:#d42a20;fill-opacity:1;stroke-opacity:0;"/>
  <path class="fill-red" data-name="angle-red-top" d="M71.26,137.81l-19.05,38.22c5.74,2.86,12.2,4.48,19.05,4.48c16.74,0,31.22-9.64,38.22-23.66L71.26,137.81z" style="fill:#d42a20;fill-opacity:1;stroke-opacity:0;"/>
  <path class="stroke-black stroke-thin" data-name="angle-outline-left" d="M118.46,161.33c-2.86,5.74-4.48,12.2-4.48,19.05c0,23.59,19.12,42.71,42.71,42.71c0-21.12,0-42.71,0-42.71L118.46,161.33z" style="stroke:#000000;stroke-width:2;stroke-opacity:1;stroke-linecap:round;stroke-linejoin:round;fill-opacity:0;"/>
  <line class="stroke-trans" data-name="line-yellow-dotted-trans" x1="156.68" y1="180.38" x2="71.26" y2="137.81" style="stroke:#fcf3d9;stroke-width:5;stroke-opacity:1;stroke-linecap:round;stroke-linejoin:round;fill-opacity:0;"/>
  <line class="stroke-yellow stroke-dotted" data-name="line-yellow-dotted" x1="156.68" y1="180.38" x2="71.26" y2="137.81" style="stroke:#fac22b;stroke-width:5;stroke-opacity:1;stroke-linecap:butt;stroke-linejoin:round;stroke-dasharray:5;fill-opacity:0;"/>
  <line class="stroke-red stroke-dotted" data-name="line-red-dotted" x1="156.68" y1="180.31" x2="231.81" y2="121.53" style="stroke:#d42a20;stroke-width:5;stroke-opacity:1;stroke-linecap:butt;stroke-linejoin:round;stroke-dasharray:5;fill-opacity:0;"/>
  <line class="stroke-trans" data-name="line-blue-dotted-trans" x1="156.68" y1="180.38" x2="2.5" y2="275.81" style="stroke:#fcf3d9;stroke-width:5;stroke-opacity:1;stroke-linecap:round;stroke-linejoin:round;fill-opacity:0;"/>
  <line class="stroke-blue stroke-dotted" data-name="line-blue-dotted" x1="156.68" y1="180.38" x2="2.5" y2="275.81" style="stroke:#0e638e;stroke-width:5;stroke-opacity:1;stroke-linecap:butt;stroke-linejoin:round;stroke-dasharray:5;fill-opacity:0;"/>
  <line class="stroke-blue" data-name="line-blue" x1="352.5" y1="275.81" x2="156.68" y2="180.38" style="stroke:#0e638e;stroke-width:5;stroke-opacity:1;stroke-linecap:round;stroke-linejoin:round;fill-opacity:0;"/>
  <line class="stroke-trans" data-name="line-black-dotted-trans" x1="156.68" y1="180.38" x2="156.68" y2="275.81" style="stroke:#fcf3d9;stroke-width:5;stroke-opacity:1;stroke-linecap:round;stroke-linejoin:round;fill-opacity:0;"/>
  <line class="stroke-black stroke-dotted" data-name="line-black-dotted" x1="156.68" y1="180.38" x2="156.68" y2="275.81" style="stroke:#000000;stroke-width:5;stroke-opacity:1;stroke-linecap:butt;stroke-linejoin:round;stroke-dasharray:5;fill-opacity:0;"/>
  <line class="stroke-yellow" data-name="line-yellow-bottom" x1="71.26" y1="137.81" x2="2.5" y2="275.81" style="stroke:#fac22b;stroke-width:5;stroke-opacity:1;stroke-linecap:round;stroke-linejoin:round;fill-opacity:0;"/>
  <line class="stroke-yellow" data-name="line-yellow-top" x1="138.69" y1="2.5" x2="71.26" y2="137.81" style="stroke:#fac22b;stroke-width:5;stroke-opacity:1;stroke-linecap:round;stroke-linejoin:round;fill-opacity:0;"/>
  <line class="stroke-red" data-name="line-red" x1="352.5" y1="275.81" x2="138.69" y2="2.5" style="stroke:#d42a20;stroke-width:5;stroke-opacity:1;stroke-linecap:round;stroke-linejoin:round;fill-opacity:0;"/>
  <line class="stroke-black" data-name="line-black-right" x1="156.68" y1="275.81" x2="352.5" y2="275.81" style="stroke:#000000;stroke-width:5;stroke-opacity:1;stroke-linecap:round;stroke-linejoin:round;fill-opacity:0;"/>
  <line class="stroke-black" data-name="line-black-left" x1="2.5" y1="275.81" x2="156.68" y2="275.81" style="stroke:#000000;stroke-width:5;stroke-opacity:1;stroke-linecap:round;stroke-linejoin:round;fill-opacity:0;"/>
  <circle class="stroke-black" data-name="circle" cx="156.68" cy="180.38" r="95.43" style="stroke:#000000;stroke-width:5;stroke-opacity:1;stroke-linecap:round;stroke-linejoin:round;fill-opacity:0;"/>
</svg>