<svg xmlns="http://www.w3.org/2000/svg" viewBox="0 0 355 355" preserveAspectRatio="xMidYMid meet" role="img">
  <title>Proposition 5 figure</title>
  <path class="fill-red" data-name="angle-red" d="M138.81,140.31c0-18.89-11.36-35.12-27.61-42.26l-18.52,42.26l42.26,18.52C137.42,153.17,138.81,146.9,138.81,140.31z" style="fill:#d42a20;fill-opacity:1;stroke-opacity:0;"/>
  <path class="fill-black" data-name="angle-black" d="M92.67,186.46c18.89,0,35.12-11.36,42.26-27.62l-42.26-18.53l0,0l-18.52,42.26C79.82,185.06,86.08,186.46,92.67,186.46z" style="fill:#000000;fill-opacity:1;stroke-opacity:0;"/>
  <line class="stroke-yellow stroke-dotted" data-name="line-yellow-dotted" x1="237.58" y1="139.62" x2="177.5" y2="177.5" style="stroke:#fac22b;stroke-width:5;stroke-opacity:1;stroke-linecap:butt;stroke-linejoin:round;stroke-dasharray:5;fill-opacity:0;"/>
  <line class="stroke-yellow" data-name="line-yellow" x1="177.5" y1="177.5" x2="92.67" y2="140.31" style="stroke:#fac22b;stroke-width:5;stroke-opacity:1;stroke-linecap:round;stroke-linejoin:round;fill-opacity:0;"/>
  <line class="stroke-red stroke-thin" data-name="line-red-thin" x1="322.89" y1="274.94" x2="33.06" y2="276.32" style="stroke:#d42a20;stroke-width:2;stroke-opacity:1;stroke-linecap:round;stroke-linejoin:round;fill-opacity:0;"/>
  <line class="stroke-black stroke-dotted" data-name="line-black-dotted" x1="177.5" y1="177.5" x2="152.29" y2="4.31" style="stroke:#000000;stroke-width:5;stroke-opacity:1;stroke-linecap:butt;stroke-linejoin:round;stroke-dasharray:5;fill-opacity:0;"/>
  <line class="stroke-black" data-name="line-black" x1="177.5" y1="177.5" x2="33.06" y2="276.32" style="stroke:#000000;stroke-width:5;stroke-opacity:1;stroke-linecap:round;stroke-linejoin:round;fill-opacity:0;"/>
  <line class="stroke-black stroke-thin" data-name="line-black-thin" x1="322.89" y1="274.94" x2="177.5" y2="177.5" style="stroke:#000000;stroke-width:2;stroke-opacity:1;stroke-linecap:round;stroke-linejoin:round;fill-opacity:0;"/>
  <line class="stroke-blue" data-name="line-blue" x1="92.67" y1="140.31" x2="152.29" y2="4.31" style="stroke:#0e638e;stroke-width:5;stroke-opacity:1;stroke-linecap:round;stroke-linejoin:round;fill-opacity:0;"/>
  <line class="stroke-trans" data-name="line-blue-dotted-trans" x1="33.06" y1="276.32" x2="92.67" y2="140.31" style="stroke:#fcf3d9;stroke-width:5;stroke-opacity:1;stroke-linecap:round;stroke-linejoin:round;fill-opacity:0;"/>
  <line class="stroke-blue stroke-dotted" data-name="line-blue-dotted" x1="33.06" y1="276.32" x2="92.67" y2="140.31" style="stroke:#0e638e;stroke-width:5;stroke-opacity:1;stroke-linecap:butt;stroke-linejoin:round;stroke-dasharray:5;fill-opacity:0;"/>
  <line class="stroke-red" data-name="line-red" x1="237.59" y1="139.62" x2="322.89" y2="274.94" style="stroke:#d42a20;stroke-width:5;stroke-opacity:1;stroke-linecap:round;stroke-linejoin:round;fill-opacity:0;"/>
  <line class="stroke-red stroke-dotted" data-name="line-red-dotted" x1="152.29" y1="4.31" x2="237.59" y2="139.62" style="stroke:#d42a20;stroke-width:5;stroke-opacity:1;stroke-linecap:butt;stroke-linejoin:round;stroke-dasharray:5;fill-opacity:0;"/>
  <circle class="stroke-black" data-name="circle" cx="177.5" cy="177.5" r="175" style="stroke:#000000;stroke-width:5;stroke-opacity:1;stroke-linecap:round;stroke-linejoin:round;fill-opacity:0;"/>
</svg>