<svg xmlns="http://www.w3.org/2000/svg" viewBox="0 0 355 252.27" preserveAspectRatio="xMidYMid meet" role="img">
  <title>Proposition 30 figure</title>
  <path class="fill-red" data-name="angle-red" d="M177.5,206.63v43.13c0,0,26.11,0,43.13,0C220.63,225.94,201.32,206.63,177.5,206.63z" style="fill:#d42a20;fill-opacity:1;stroke-opacity:0;"/>
  <path class="fill-blue" data-name="angle-blue" d="M177.5,206.63c-23.82,0-43.13,19.31-43.13,43.13c17.02,0,43.13,0,43.13,0V206.63z" style="fill:#0e638e;fill-opacity:1;stroke-opacity:0;"/>
  <line class="stroke-yellow" data-name="line-yellow" x1="177.5" y1="2.5" x2="177.5" y2="249.77" style="stroke:#fac22b;stroke-width:5;stroke-opacity:1;stroke-linecap:round;stroke-linejoin:round;fill-opacity:0;"/>
  <line class="stroke-blue stroke-dotted" data-name="line-blue-dotted" x1="177.5" y1="2.5" x2="18.07" y2="249.77" style="stroke:#0e638e;stroke-width:5;stroke-opacity:1;stroke-linecap:butt;stroke-linejoin:round;stroke-dasharray:5;fill-opacity:0;"/>
  <line class="stroke-blue" data-name="line-blue" x1="336.94" y1="249.77" x2="177.5" y2="2.5" style="stroke:#0e638e;stroke-width:5;stroke-opacity:1;stroke-linecap:round;stroke-linejoin:round;fill-opacity:0;"/>
  <line class="stroke-trans" data-name="line-black-dotted-trans" x1="177.5" y1="249.77" x2="336.94" y2="249.77" style="stroke:#fcf3d9;stroke-width:5;stroke-opacity:1;stroke-linecap:round;stroke-linejoin:round;fill-opacity:0;"/>
  <line class="stroke-black stroke-dotted" data-name="line-black-dotted" x1="177.5" y1="249.77" x2="336.94" y2="249.77" style="stroke:#000000;stroke-width:5;stroke-opacity:1;stroke-linecap:butt;stroke-linejoin:round;stroke-dasharray:5;fill-opacity:0;"/>
  <line class="stroke-black" data-name="line-black" x1="18.07" y1="249.77" x2="177.5" y2="249.77" style="stroke:#000000;stroke-width:5;stroke-opacity:1;stroke-linecap:round;stroke-linejoin:round;fill-opacity:0;"/>
  <path class="stroke-red" data-name="arc-red" d="M18.07,249.77c-10-22.03-15.57-46.5-15.57-72.27c0-96.65,78.35-175,175-175" style="stroke:#d42a20;stroke-width:5;stroke-opacity:1;stroke-linecap:round;stroke-linejoin:round;fill-opacity:0;"/>
  <path class="stroke-red stroke-dotted" data-name="arc-red-dotted" d="M177.5,2.5c96.65,0,175,78.35,175,175c0,25.77-5.57,50.23-15.57,72.26" style="stroke:#d42a20;stroke-width:5;stroke-opacity:1;stroke-linecap:butt;stroke-linejoin:round;stroke-dasharray:5;fill-opacity:0;"/>
</svg>