<svg xmlns="http://www.w3.org/2000/svg" viewBox="0 0 355 355" preserveAspectRatio="xMidYMid meet" role="img">
  <title>Proposition 33 figure</title>
  <path class="stroke-black stroke-thin" data-name="angle-outline-obtuse" d="M177.5,352.5h-48.1c0-26.56,21.53-48.1,48.1-48.1c11.86,0,22.71,4.3,31.1,11.42L177.5,352.5z" style="stroke:#000000;stroke-width:2;stroke-opacity:1;stroke-linecap:round;stroke-linejoin:round;fill-opacity:0;"/>
  <path class="fill-red" data-name="angle-red-bottom" d="M208.6,315.82c-8.39-7.12-19.24-11.42-31.1-11.42v48.1L208.6,315.82z" style="fill:#d42a20;fill-opacity:1;stroke-opacity:0;"/>
  <path class="fill-red" data-name="angle-red-top" d="M295.8,157.88c2.17,13.16,8.99,24.75,18.73,33.01l35.64-42.03L295.8,157.88z" style="fill:#d42a20;fill-opacity:1;stroke-opacity:0;"/>
  <path class="fill-black" data-name="angle-black" d="M208.6,315.82l-31.1,36.68h48.1C225.6,337.8,219,324.64,208.6,315.82z" style="fill:#000000;fill-opacity:1;stroke-opacity:0;"/>
  <path class="fill-yellow" data-name="angle-yellow" d="M208.6,315.82l-31.1,36.68h48.1C225.6,337.8,219,324.64,208.6,315.82z" style="fill:#fac22b;fill-opacity:1;stroke-opacity:0;"/>
  <path class="stroke-black stroke-thin" data-name="angle-outline-right" d="M177.5,304.4c-26.56,0-48.1,21.53-48.1,48.1h48.1V304.4z" style="stroke:#000000;stroke-width:2;stroke-opacity:1;stroke-linecap:round;stroke-linejoin:round;fill-opacity:0;"/>
  <line class="stroke-red" data-name="line-red" x1="2.5" y1="352.5" x2="352.5" y2="352.5" style="stroke:#d42a20;stroke-width:5;stroke-opacity:1;stroke-linecap:round;stroke-linejoin:round;fill-opacity:0;"/>
  <line class="stroke-blue stroke-dotted" data-name="line-blue-dotted" x1="177.5" y1="177.5" x2="177.5" y2="2.5" style="stroke:#0e638e;stroke-width:5;stroke-opacity:1;stroke-linecap:butt;stroke-linejoin:round;stroke-dasharray:5;fill-opacity:0;"/>
  <line class="stroke-blue" data-name="line-blue" x1="177.5" y1="352.5" x2="177.5" y2="177.5" style="stroke:#0e638e;stroke-width:5;stroke-opacity:1;stroke-linecap:round;stroke-linejoin:round;fill-opacity:0;"/>
  <line class="stroke-black" data-name="line-black" x1="177.5" y1="352.5" x2="350.17" y2="148.87" style="stroke:#000000;stroke-width:5;stroke-opacity:1;stroke-linecap:round;stroke-linejoin:round;fill-opacity:0;"/>
  <line class="stroke-yellow" data-name="line-yellow" x1="177.5" y1="177.5" x2="350.17" y2="148.87" style="stroke:#fac22b;stroke-width:5;stroke-opacity:1;stroke-linecap:round;stroke-linejoin:round;fill-opacity:0;"/>
  <circle class="stroke-blue" data-name="circle" cx="177.5" cy="177.5" r="175" style="stroke:#0e638e;stroke-width:5;stroke-opacity:1;stroke-linecap:round;stroke-linejoin:round;fill-opacity:0;"/>
</svg>