<svg xmlns="http://www.w3.org/2000/svg" viewBox="0 0 355 355" preserveAspectRatio="xMidYMid meet" role="img">
  <title>Proposition 26 figure</title>
  <path class="fill-blue" data-name="angle-blue" d="M135.94,71.36c9.34,4.18,19.69,6.5,30.59,6.5c12.57,0,24.41-3.1,34.82-8.56L166.53,2.84L135.94,71.36z" style="fill:#0e638e;fill-opacity:1;stroke-opacity:0;"/>
  <path class="fill-black" data-name="angle-black" d="M231.79,220.37L177.5,177.5l-54.33,42.9c12.68,16.01,32.29,26.29,54.3,26.29C199.49,246.69,219.11,236.4,231.79,220.37z" style="fill:#000000;fill-opacity:1;stroke-opacity:0;"/>
  <path class="fill-yellow" data-name="segment-yellow-bottom" d="M40.15,285.95c32.05,40.54,81.66,66.55,137.35,66.55c55.69,0,105.3-26.01,137.35-66.55L40.15,285.95L40.15,285.95z" style="fill:#fac22b;fill-opacity:1;stroke-opacity:0;"/>
  <path class="stroke-red" data-name="arc-red" d="M40.15,285.95C16.57,256.14,2.5,218.46,2.5,177.5c0-96.65,78.35-175,175-175s175,78.35,175,175c0,40.96-14.07,78.63-37.65,108.45" style="stroke:#d42a20;stroke-width:5;stroke-opacity:1;stroke-linecap:round;stroke-linejoin:round;fill-opacity:0;"/>
  <line class="stroke-trans" data-name="line-black-dotted-trans" x1="40.15" y1="285.95" x2="314.85" y2="285.95" style="stroke:#fcf3d9;stroke-width:5;stroke-opacity:1;stroke-linecap:round;stroke-linejoin:round;fill-opacity:0;"/>
  <line class="stroke-black stroke-dotted" data-name="line-black-dotted" x1="40.15" y1="285.95" x2="314.85" y2="285.95" style="stroke:#000000;stroke-width:5;stroke-opacity:1;stroke-linecap:butt;stroke-linejoin:round;stroke-dasharray:5;fill-opacity:0;"/>
  <line class="stroke-trans" data-name="line-blue-dotted-trans" x1="177.5" y1="177.5" x2="40.15" y2="285.95" style="stroke:#fcf3d9;stroke-width:5;stroke-opacity:1;stroke-linecap:round;stroke-linejoin:round;fill-opacity:0;"/>
  <line class="stroke-blue stroke-dotted" data-name="line-blue-dotted" x1="177.5" y1="177.5" x2="40.15" y2="285.95" style="stroke:#0e638e;stroke-width:5;stroke-opacity:1;stroke-linecap:butt;stroke-linejoin:round;stroke-dasharray:5;fill-opacity:0;"/>
  <line class="stroke-trans" data-name="line-red-dotted-trans" x1="314.85" y1="285.95" x2="177.5" y2="177.5" style="stroke:#fcf3d9;stroke-width:5;stroke-opacity:1;stroke-linecap:round;stroke-linejoin:round;fill-opacity:0;"/>
  <line class="stroke-red stroke-dotted" data-name="line-red-dotted" x1="314.85" y1="285.95" x2="177.5" y2="177.5" style="stroke:#d42a20;stroke-width:5;stroke-opacity:1;stroke-linecap:butt;stroke-linejoin:round;stroke-dasharray:5;fill-opacity:0;"/>
  <line class="stroke-black stroke-thin" data-name="line-black-thin" x1="166.53" y1="2.84" x2="40.15" y2="285.95" style="stroke:#000000;stroke-width:2;stroke-opacity:1;stroke-linecap:round;stroke-linejoin:round;fill-opacity:0;"/>
  <line class="stroke-black stroke-thin" data-name="line-black-thin" x1="314.85" y1="285.95" x2="166.53" y2="2.84" style="stroke:#000000;stroke-width:2;stroke-opacity:1;stroke-linecap:round;stroke-linejoin:round;fill-opacity:0;"/>
  <circle class="stroke-red" data-name="circle-red" cx="177.5" cy="177.5" r="175" style="stroke:#d42a20;stroke-width:5;stroke-opacity:1;stroke-linecap:round;stroke-linejoin:round;fill-opacity:0;"/>
  <path class="stroke-black" data-name="arc-black-bottom" d="M314.85,285.95c-32.05,40.54-81.66,66.55-137.35,66.55c-55.69,0-105.3-26.01-137.35-66.55" style="stroke:#000000;stroke-width:5;stroke-opacity:1;stroke-linecap:round;stroke-linejoin:round;fill-opacity:0;"/>
</svg>