<svg xmlns="http://www.w3.org/2000/svg" viewBox="0 0 355 263.36" preserveAspectRatio="xMidYMid meet" role="img">
  <title>Proposition 41 figure</title>
  <polygon class="fill-blue" data-name="tri-blue-bottom" points="213.69,179.81 310.23,260.86 150.24,260.86 " style="fill:#0e638e;fill-opacity:1;stroke-opacity:0;"/>
  <polygon class="fill-blue" data-name="tri-blue-top" points="213.69,179.81 2.5,2.5 150.24,260.86 " style="fill:#0e638e;fill-opacity:1;stroke-opacity:0;"/>
  <polygon class="fill-yellow" data-name="tri-yellow-bottom" points="213.69,179.81 310.23,260.86 242.69,142.76 " style="fill:#fac22b;fill-opacity:1;stroke-opacity:0;"/>
  <polygon class="fill-yellow" data-name="tri-yellow-top" points="242.69,142.76 213.69,179.81 2.5,2.5 162.48,2.5 " style="fill:#fac22b;fill-opacity:1;stroke-opacity:0;"/>
  <polygon class="fill-red" data-name="tri-red" points="352.5,2.5 310.23,260.86 242.69,142.76 " style="fill:#d42a20;fill-opacity:1;stroke-opacity:0;"/>
  <line class="stroke-red" data-name="line-red" x1="2.5" y1="2.5" x2="310.23" y2="260.86" style="stroke:#d42a20;stroke-width:5;stroke-opacity:1;stroke-linecap:round;stroke-linejoin:round;fill-opacity:0;"/>
  <line class="stroke-black" data-name="line-black" x1="310.23" y1="260.86" x2="150.24" y2="260.86" style="stroke:#000000;stroke-width:5;stroke-opacity:1;stroke-linecap:round;stroke-linejoin:round;fill-opacity:0;"/>
  <line class="stroke-trans" data-name="line-black-dotted-trans" x1="2.5" y1="2.5" x2="352.5" y2="2.5" style="stroke:#fcf3d9;stroke-width:5;stroke-opacity:1;stroke-linecap:round;stroke-linejoin:round;fill-opacity:0;"/>
  <line class="stroke-black stroke-dotted" data-name="line-black-dotted" x1="2.5" y1="2.5" x2="352.5" y2="2.5" style="stroke:#000000;stroke-width:5;stroke-opacity:1;stroke-linecap:butt;stroke-linejoin:round;stroke-dasharray:5;fill-opacity:0;"/>
  <polygon class="fill-trans ignore" data-name="mask" points="136.36,271.56 -25.08,-10.76 -5.08,-10.76 156.36,271.56 " style="fill:#fcf3d9;fill-opacity:1;stroke-opacity:0;"/>
  <polygon class="fill-trans ignore" data-name="mask" points="328.47,271.56 374.67,-10.76 354.67,-10.76 308.47,271.56 " style="fill:#fcf3d9;fill-opacity:1;stroke-opacity:0;"/>
</svg>