<svg xmlns="http://www.w3.org/2000/svg" viewBox="0 0 355 250.12" preserveAspectRatio="xMidYMid meet" role="img">
  <title>Proposition 25 figure</title>
  <path class="fill-black" data-name="angle-black" d="M284.95,54.44c5.08,1.57,10.49,2.42,16.09,2.42c5.31,0,10.43-0.77,15.27-2.19L301.04,2.5L284.95,54.44z" style="fill:#000000;fill-opacity:1;stroke-opacity:0;"/>
  <line class="stroke-red stroke-thin" data-name="line-red-thin" x1="301.04" y1="2.5" x2="225.11" y2="247.62" style="stroke:#d42a20;stroke-width:2;stroke-opacity:1;stroke-linecap:round;stroke-linejoin:round;fill-opacity:0;"/>
  <line class="stroke-blue stroke-thin" data-name="line-blue-thin" x1="301.04" y1="2.5" x2="352.5" y2="178.29" style="stroke:#0e638e;stroke-width:2;stroke-opacity:1;stroke-linecap:round;stroke-linejoin:round;fill-opacity:0;"/>
  <line class="stroke-yellow" data-name="line-yellow" x1="225.11" y1="247.62" x2="352.5" y2="178.29" style="stroke:#fac22b;stroke-width:5;stroke-opacity:1;stroke-linecap:round;stroke-linejoin:round;fill-opacity:0;"/>
  <path class="fill-yellow" data-name="angle-yellow" d="M81.75,52.53c6.54,2.79,13.74,4.34,21.31,4.34c9.18,0,17.82-2.29,25.41-6.3L103.06,2.5L81.75,52.53z" style="fill:#fac22b;fill-opacity:1;stroke-opacity:0;"/>
  <line class="stroke-red" data-name="line-red" x1="103.06" y1="2.5" x2="2.5" y2="238.59" style="stroke:#d42a20;stroke-width:5;stroke-opacity:1;stroke-linecap:round;stroke-linejoin:round;fill-opacity:0;"/>
  <line class="stroke-blue" data-name="line-blue" x1="103.06" y1="2.5" x2="188.66" y2="164.43" style="stroke:#0e638e;stroke-width:5;stroke-opacity:1;stroke-linecap:round;stroke-linejoin:round;fill-opacity:0;"/>
  <line class="stroke-black" data-name="line-black" x1="2.5" y1="238.59" x2="188.66" y2="164.43" style="stroke:#000000;stroke-width:5;stroke-opacity:1;stroke-linecap:round;stroke-linejoin:round;fill-opacity:0;"/>
</svg>