<svg xmlns="http://www.w3.org/2000/svg" viewBox="0 0 352.5 221.93" preserveAspectRatio="xMidYMid meet" role="img">
  <title>Proposition 36 figure</title>
  <polygon class="fill-red" data-name="par-red-bottom" points="43.75,219.43 153.58,219.43 133.57,120.23 " style="fill:#d42a20;fill-opacity:1;stroke-opacity:0;"/>
  <polygon class="fill-red" data-name="par-red-top" points="109.83,2.5 0,2.5 43.75,219.43 133.57,120.23 " style="fill:#d42a20;fill-opacity:1;stroke-opacity:0;"/>
  <polygon class="fill-yellow" data-name="par-yellow-bottom" points="226.73,138.64 218.75,219.43 328.58,219.43 350,2.5 " style="fill:#fac22b;fill-opacity:1;stroke-opacity:0;"/>
  <polygon class="fill-yellow" data-name="par-yellow-top" points="350,2.5 240.17,2.5 226.73,138.64 " style="fill:#fac22b;fill-opacity:1;stroke-opacity:0;"/>
  <polygon class="fill-blue" data-name="par-blue" points="240.17,2.5 133.57,120.23 153.58,219.43 226.73,138.64 " style="fill:#0e638e;fill-opacity:1;stroke-opacity:0;"/>
  <line class="stroke-blue" data-name="line-blue" x1="328.58" y1="219.43" x2="218.75" y2="219.43" style="stroke:#0e638e;stroke-width:5;stroke-opacity:1;stroke-linecap:round;stroke-linejoin:round;fill-opacity:0;"/>
  <line class="stroke-yellow" data-name="line-yellow" x1="240.17" y1="2.5" x2="43.75" y2="219.43" style="stroke:#fac22b;stroke-width:5;stroke-opacity:1;stroke-linecap:round;stroke-linejoin:round;fill-opacity:0;"/>
  <line class="stroke-trans" data-name="line-black-dotted-trans" x1="350" y1="2.5" x2="153.58" y2="219.43" style="stroke:#fcf3d9;stroke-width:5;stroke-opacity:1;stroke-linecap:round;stroke-linejoin:round;fill-opacity:0;"/>
  <line class="stroke-black stroke-dotted" data-name="line-black-dotted" x1="350" y1="2.5" x2="153.58" y2="219.43" style="stroke:#000000;stroke-width:5;stroke-opacity:1;stroke-linecap:butt;stroke-linejoin:round;stroke-dasharray:5;fill-opacity:0;"/>
  <line class="stroke-red" data-name="line-red" x1="240.17" y1="2.5" x2="350" y2="2.5" style="stroke:#d42a20;stroke-width:5;stroke-opacity:1;stroke-linecap:round;stroke-linejoin:round;fill-opacity:0;"/>
  <line class="stroke-black" data-name="line-black" x1="153.58" y1="219.43" x2="43.75" y2="219.43" style="stroke:#000000;stroke-width:5;stroke-opacity:1;stroke-linecap:round;stroke-linejoin:round;fill-opacity:0;"/>
  <polygon class="fill-trans ignore" points="15.11,226.17 -30,2.5 -0.17,2.5 44.94,226.17 " style="fill:#fcf3d9;fill-opacity:1;stroke-opacity:0;"/>
  <polygon class="fill-trans ignore" points="351.78,-15.5 327.67,228.67 367.5,228.67 391.61,-15.5 " style="fill:#fcf3d9;fill-opacity:1;stroke-opacity:0;"/>
  <polygon class="fill-trans ignore" points="202.04,189.64 198.19,228.67 217.84,228.67 221.87,187.87 " style="fill:#fcf3d9;fill-opacity:1;stroke-opacity:0;"/>
</svg>