<svg xmlns="http://www.w3.org/2000/svg" viewBox="0 0 355 355" preserveAspectRatio="xMidYMid meet" role="img">
  <title>Proposition 6 figure</title>
  <path class="fill-yellow" data-name="angle-yellow" d="M219.59,44.59L177.5,2.5l-42.09,42.09c10.77,10.77,25.65,17.44,42.09,17.44S208.82,55.36,219.59,44.59z" style="fill:#fac22b;fill-opacity:1;stroke-opacity:0;"/>
  <path class="fill-black" data-name="angle-black" d="M310.41,135.41c-10.77,10.77-17.44,25.65-17.44,42.09s6.66,31.32,17.44,42.09l42.09-42.09L310.41,135.41z" style="fill:#000000;fill-opacity:1;stroke-opacity:0;"/>
  <path class="fill-red" data-name="angle-red" d="M177.5,117.97c0,26.72,0,59.53,0,59.53h59.53C237.03,144.62,210.38,117.97,177.5,117.97z" style="fill:#d42a20;fill-opacity:1;stroke-opacity:0;"/>
  <path class="fill-blue" data-name="angle-blue" d="M177.5,117.97c-32.88,0-59.53,26.65-59.53,59.53h59.53C177.5,177.5,177.5,144.69,177.5,117.97z" style="fill:#0e638e;fill-opacity:1;stroke-opacity:0;"/>
  <line class="stroke-trans" data-name="line-blue-dotted-trans" x1="177.5" y1="177.5" x2="352.5" y2="177.5" style="stroke:#fcf3d9;stroke-width:5;stroke-opacity:1;stroke-linecap:round;stroke-linejoin:round;fill-opacity:0;"/>
  <line class="stroke-blue stroke-dotted" data-name="line-blue-dotted" x1="177.5" y1="177.5" x2="352.5" y2="177.5" style="stroke:#0e638e;stroke-width:5;stroke-opacity:1;stroke-linecap:butt;stroke-linejoin:round;stroke-dasharray:5;fill-opacity:0;"/>
  <line class="stroke-trans" data-name="line-red-dotted-trans" x1="2.5" y1="177.5" x2="177.5" y2="177.5" style="stroke:#fcf3d9;stroke-width:5;stroke-opacity:1;stroke-linecap:round;stroke-linejoin:round;fill-opacity:0;"/>
  <line class="stroke-red stroke-dotted" data-name="line-red-dotted" x1="2.5" y1="177.5" x2="177.5" y2="177.5" style="stroke:#d42a20;stroke-width:5;stroke-opacity:1;stroke-linecap:butt;stroke-linejoin:round;stroke-dasharray:5;fill-opacity:0;"/>
  <line class="stroke-trans" data-name="line-black-dotted-trans" x1="177.5" y1="177.5" x2="177.5" y2="2.5" style="stroke:#fcf3d9;stroke-width:5;stroke-opacity:1;stroke-linecap:round;stroke-linejoin:round;fill-opacity:0;"/>
  <line class="stroke-black stroke-dotted" data-name="line-black-dotted" x1="177.5" y1="177.5" x2="177.5" y2="2.5" style="stroke:#000000;stroke-width:5;stroke-opacity:1;stroke-linecap:butt;stroke-linejoin:round;stroke-dasharray:5;fill-opacity:0;"/>
  <line class="stroke-black stroke-thin" data-name="line-black-thin" x1="177.5" y1="352.5" x2="177.5" y2="177.5" style="stroke:#000000;stroke-width:2;stroke-opacity:1;stroke-linecap:round;stroke-linejoin:round;fill-opacity:0;"/>
  <line class="stroke-blue" data-name="line-blue" x1="352.5" y1="177.5" x2="177.5" y2="352.5" style="stroke:#0e638e;stroke-width:5;stroke-opacity:1;stroke-linecap:round;stroke-linejoin:round;fill-opacity:0;"/>
  <line class="stroke-red" data-name="line-red" x1="177.5" y1="2.5" x2="352.5" y2="177.5" style="stroke:#d42a20;stroke-width:5;stroke-opacity:1;stroke-linecap:round;stroke-linejoin:round;fill-opacity:0;"/>
  <line class="stroke-black" data-name="line-black" x1="2.5" y1="177.5" x2="177.5" y2="2.5" style="stroke:#000000;stroke-width:5;stroke-opacity:1;stroke-linecap:round;stroke-linejoin:round;fill-opacity:0;"/>
  <line class="stroke-yellow" data-name="line-yellow" x1="177.5" y1="352.5" x2="2.5" y2="177.5" style="stroke:#fac22b;stroke-width:5;stroke-opacity:1;stroke-linecap:round;stroke-linejoin:round;fill-opacity:0;"/>
  <circle class="stroke-red" data-name="circle" cx="177.5" cy="177.5" r="175" style="stroke:#d42a20;stroke-width:5;stroke-opacity:1;stroke-linecap:round;stroke-linejoin:round;fill-opacity:0;"/>
</svg>