<svg xmlns="http://www.w3.org/2000/svg" viewBox="0 0 352 353.5" preserveAspectRatio="xMidYMid meet" role="img">
  <title>Proposition 33 figure</title>
  <line class="stroke-black stroke-thin" x1="176" y1="176" x2="314.93" y2="282.44" style="stroke:#000000;stroke-width:2;stroke-opacity:1;stroke-linecap:round;stroke-linejoin:round;fill-opacity:0;"/>
  <circle class="stroke-blue stroke-thin" data-name="circle-blue" cx="176" cy="176" r="175" style="stroke:#0e638e;stroke-width:2;stroke-opacity:1;stroke-linecap:round;stroke-linejoin:round;fill-opacity:0;"/>
  <path class="fill-yellow" d="M85.78,113.82c-4.83,1.02-9.82,1.59-14.93,1.68l0.44,24.53c6.71-0.12,13.26-0.88,19.6-2.22L85.78,113.82z" style="fill:#fac22b;fill-opacity:1;stroke-opacity:0;"/>
  <polyline class="stroke-black stroke-thin" points="135.27,346.22 69.46,37.17 74.47,318.56 " style="stroke:#000000;stroke-width:2;stroke-opacity:1;stroke-linecap:round;stroke-linejoin:round;fill-opacity:0;"/>
  <line class="stroke-black stroke-thin" x1="183.5" y1="225.92" x2="202" y2="349.09" style="stroke:#000000;stroke-width:2;stroke-opacity:1;stroke-linecap:round;stroke-linejoin:round;fill-opacity:0;"/>
  <line class="stroke-black stroke-thin" data-name="line-black-rb" x1="176" y1="176" x2="183.5" y2="225.92" style="stroke:#000000;stroke-width:2;stroke-opacity:1;stroke-linecap:round;stroke-linejoin:round;fill-opacity:0;"/>
  <line class="stroke-black stroke-thin" x1="164.25" y1="225.09" x2="135.27" y2="346.22" style="stroke:#000000;stroke-width:2;stroke-opacity:1;stroke-linecap:round;stroke-linejoin:round;fill-opacity:0;"/>
  <line class="stroke-black stroke-thin" data-name="line-black-kr" x1="176" y1="176" x2="164.25" y2="225.09" style="stroke:#000000;stroke-width:2;stroke-opacity:1;stroke-linecap:round;stroke-linejoin:round;fill-opacity:0;"/>
  <line class="stroke-black stroke-thin" x1="146.72" y1="217.11" x2="74.47" y2="318.56" style="stroke:#000000;stroke-width:2;stroke-opacity:1;stroke-linecap:round;stroke-linejoin:round;fill-opacity:0;"/>
  <line class="stroke-black stroke-thin" data-name="line-black-k" x1="176" y1="176" x2="146.72" y2="217.11" style="stroke:#000000;stroke-width:2;stroke-opacity:1;stroke-linecap:round;stroke-linejoin:round;fill-opacity:0;"/>
  <path class="stroke-black stroke-thin" d="M214.11,240.58c8.29-4.9,15.56-11.35,21.42-18.98" style="stroke:#000000;stroke-width:2;stroke-opacity:1;stroke-linecap:round;stroke-linejoin:round;fill-opacity:0;"/>
  <path class="stroke-black stroke-thin" d="M216.06,206.69c-3.94,5.13-8.84,9.48-14.41,12.77" style="stroke:#000000;stroke-width:2;stroke-opacity:1;stroke-linecap:round;stroke-linejoin:round;fill-opacity:0;"/>
  <path class="fill-blue stroke-blue stroke-thin" data-name="arc-blue" d="M214.11,240.58l-12.46-21.11c-5.48,3.24-11.62,5.47-18.15,6.45l3.64,24.25C196.84,248.72,205.96,245.4,214.11,240.58z" style="fill:#0e638e;fill-opacity:1;stroke:#0e638e;stroke-width:2;stroke-opacity:1;stroke-linecap:round;stroke-linejoin:round;"/>
  <line class="stroke-black stroke-thin" x1="214.11" y1="240.58" x2="264.94" y2="326.73" style="stroke:#000000;stroke-width:2;stroke-opacity:1;stroke-linecap:round;stroke-linejoin:round;fill-opacity:0;"/>
  <line class="stroke-black stroke-thin" data-name="line-black-b" x1="176" y1="176" x2="201.65" y2="219.47" style="stroke:#000000;stroke-width:2;stroke-opacity:1;stroke-linecap:round;stroke-linejoin:round;fill-opacity:0;"/>
  <path class="fill-red stroke-red stroke-thin" data-name="arc-red" d="M183.5,225.92c-3.13,0.47-6.35,0.66-9.62,0.52c-3.31-0.14-6.52-0.6-9.62-1.34l-5.71,23.84c4.61,1.1,9.38,1.79,14.3,1.99c4.87,0.21,9.65-0.08,14.3-0.77L183.5,225.92z" style="fill:#d42a20;fill-opacity:1;stroke:#d42a20;stroke-width:2;stroke-opacity:1;stroke-linecap:round;stroke-linejoin:round;"/>
  <path class="fill-black stroke-black stroke-thin" data-name="arc-black" d="M164.25,225.09c-6.42-1.53-12.34-4.28-17.53-7.98l-14.22,19.97c7.71,5.5,16.51,9.58,26.05,11.86L164.25,225.09z" style="fill:#000000;fill-opacity:1;stroke:#000000;stroke-width:2;stroke-opacity:1;stroke-linecap:round;stroke-linejoin:round;"/>
  <path class="stroke-trans" data-name="line-yellow-dotted-trans" d="M135.27,346.22c-22.26-5.3-42.81-14.83-60.79-27.66" style="stroke:#fcf3d9;stroke-width:5;stroke-opacity:1;stroke-linecap:round;stroke-linejoin:round;fill-opacity:0;"/>
  <path class="stroke-yellow stroke-dotted" data-name="line-yellow-dotted" d="M135.27,346.22c-22.26-5.3-42.81-14.83-60.79-27.66" style="stroke:#fac22b;stroke-width:5;stroke-opacity:1;stroke-linecap:butt;stroke-linejoin:round;stroke-dasharray:5;fill-opacity:0;"/>
  <path class="stroke-trans" data-name="line-red-dotted-trans" d="M202,349.09c-10.85,1.62-22,2.23-33.37,1.75c-11.46-0.48-22.61-2.06-33.36-4.62" style="stroke:#fcf3d9;stroke-width:5;stroke-opacity:1;stroke-linecap:round;stroke-linejoin:round;fill-opacity:0;"/>
  <path class="stroke-red stroke-dotted" data-name="line-red-dotted" d="M202,349.09c-10.85,1.62-22,2.23-33.37,1.75c-11.46-0.48-22.61-2.06-33.36-4.62" style="stroke:#d42a20;stroke-width:5;stroke-opacity:1;stroke-linecap:butt;stroke-linejoin:round;stroke-dasharray:5;fill-opacity:0;"/>
  <path class="stroke-trans" data-name="line-blue-dotted-trans" d="M264.94,326.73c-19.02,11.24-40.3,18.98-62.94,22.35" style="stroke:#fcf3d9;stroke-width:5;stroke-opacity:1;stroke-linecap:round;stroke-linejoin:round;fill-opacity:0;"/>
  <path class="stroke-blue stroke-dotted" data-name="line-blue-dotted" d="M264.94,326.73c-19.02,11.24-40.3,18.98-62.94,22.35" style="stroke:#0e638e;stroke-width:5;stroke-opacity:1;stroke-linecap:butt;stroke-linejoin:round;stroke-dasharray:5;fill-opacity:0;"/>
</svg>