<svg xmlns="http://www.w3.org/2000/svg" viewBox="0 0 355 355" preserveAspectRatio="xMidYMid meet" role="img">
  <title>Proposition 20 figure 1</title>
  <path class="fill-blue" data-name="angle-blue" d="M177.5,177.5l-30.07,56.8c8.97,4.76,19.21,7.46,30.07,7.46c19.12,0,36.29-8.35,48.06-21.61L177.5,177.5z" style="fill:#0e638e;fill-opacity:1;stroke-opacity:0;"/>
  <path class="fill-red" data-name="angle-red" d="M308.38,293.67l-11.44-63.25c-14.47,2.6-27.25,10.04-36.62,20.59L308.38,293.67z" style="fill:#d42a20;fill-opacity:1;stroke-opacity:0;"/>
  <path class="fill-yellow" data-name="angle-yellow" d="M229.33,79.61c8.97,4.76,19.21,7.46,30.07,7.46c3.9,0,7.73-0.35,11.44-1.02L259.4,22.81L229.33,79.61z" style="fill:#fac22b;fill-opacity:1;stroke-opacity:0;"/>
  <line class="stroke-trans" data-name="line-red-dotted-trans" x1="177.5" y1="177.5" x2="95.6" y2="332.19" style="stroke:#fcf3d9;stroke-width:5;stroke-opacity:1;stroke-linecap:round;stroke-linejoin:round;fill-opacity:0;"/>
  <line class="stroke-red stroke-dotted" data-name="line-red-dotted" x1="177.5" y1="177.5" x2="95.6" y2="332.19" style="stroke:#d42a20;stroke-width:5;stroke-opacity:1;stroke-linecap:butt;stroke-linejoin:round;stroke-dasharray:5;fill-opacity:0;"/>
  <line class="stroke-red" data-name="line-red" x1="259.4" y1="22.81" x2="177.5" y2="177.5" style="stroke:#d42a20;stroke-width:5;stroke-opacity:1;stroke-linecap:round;stroke-linejoin:round;fill-opacity:0;"/>
  <line class="stroke-black" data-name="line-black" x1="177.5" y1="177.5" x2="308.38" y2="293.67" style="stroke:#000000;stroke-width:5;stroke-opacity:1;stroke-linecap:round;stroke-linejoin:round;fill-opacity:0;"/>
  <line class="stroke-black stroke-thin" data-name="line-black-thin" x1="308.38" y1="293.67" x2="259.4" y2="22.81" style="stroke:#000000;stroke-width:2;stroke-opacity:1;stroke-linecap:round;stroke-linejoin:round;fill-opacity:0;"/>
  <circle class="stroke-blue" data-name="circle" cx="177.5" cy="177.5" r="175" style="stroke:#0e638e;stroke-width:5;stroke-opacity:1;stroke-linecap:round;stroke-linejoin:round;fill-opacity:0;"/>
</svg>