<svg xmlns="http://www.w3.org/2000/svg" viewBox="0 0 350 317.9" preserveAspectRatio="xMidYMid meet" role="img">
  <title>Proposition 23 figure</title>
  <polygon class="fill-blue" data-name="par-blue" points="299.57,188.21 221.15,188.21 271.58,0 350,0 " style="fill:#0e638e;fill-opacity:1;stroke-opacity:0;"/>
  <polygon class="fill-red" data-name="par-red" points="186.4,317.9 221.15,188.21 299.57,188.21 264.82,317.9 " style="fill:#d42a20;fill-opacity:1;stroke-opacity:0;"/>
  <polygon class="fill-yellow" data-name="par-yellow" points="34.75,188.21 221.15,188.21 186.4,317.9 0,317.9 " style="fill:#fac22b;fill-opacity:1;stroke-opacity:0;"/>
  <path class="fill-black" data-name="angle-black" d="M230.8,152.18l-9.65,36.03h37.3C258.45,170.95,246.72,156.43,230.8,152.18z" style="fill:#000000;fill-opacity:1;stroke-opacity:0;"/>
  <path class="fill-yellow" data-name="angle-yellow" d="M211.5,224.24c3.08,0.82,6.31,1.27,9.65,1.27c20.6,0,37.3-16.7,37.3-37.3h-37.3L211.5,224.24z" style="fill:#fac22b;fill-opacity:1;stroke-opacity:0;"/>
  <path class="fill-red" data-name="angle-red" d="M211.5,224.24l9.65-36.03h-37.3C183.85,205.47,195.58,219.98,211.5,224.24z" style="fill:#d42a20;fill-opacity:1;stroke-opacity:0;"/>
  <line class="stroke-blue" data-name="line-blue" x1="221.15" y1="188.21" x2="34.75" y2="188.21" style="stroke:#0e638e;stroke-width:5;stroke-opacity:1;stroke-linecap:round;stroke-linejoin:round;fill-opacity:0;"/>
  <line class="stroke-trans" data-name="line-yellow-dotted-trans" x1="221.15" y1="188.21" x2="299.57" y2="188.21" style="stroke:#fcf3d9;stroke-width:5;stroke-opacity:1;stroke-linecap:round;stroke-linejoin:round;fill-opacity:0;"/>
  <line class="stroke-yellow stroke-dotted" data-name="line-yellow-dotted" x1="221.15" y1="188.21" x2="299.57" y2="188.21" style="stroke:#fac22b;stroke-width:5;stroke-opacity:1;stroke-linecap:butt;stroke-linejoin:round;stroke-dasharray:5;fill-opacity:0;"/>
  <line class="stroke-red" data-name="line-red" x1="271.58" y1="0" x2="221.15" y2="188.21" style="stroke:#d42a20;stroke-width:5;stroke-opacity:1;stroke-linecap:round;stroke-linejoin:round;fill-opacity:0;"/>
  <line class="stroke-black" data-name="line-black" x1="186.4" y1="317.9" x2="221.15" y2="188.21" style="stroke:#000000;stroke-width:5;stroke-opacity:1;stroke-linecap:round;stroke-linejoin:round;fill-opacity:0;"/>
  <polygon class="fill-trans ignore" data-name="mask" points="18.64,173.71 -20,317.9 0,317.9 38.64,173.71 " style="fill:#fcf3d9;fill-opacity:1;stroke-opacity:0;"/>
</svg>