<svg xmlns="http://www.w3.org/2000/svg" viewBox="0 0 355 252.43" preserveAspectRatio="xMidYMid meet" role="img">
  <title>Proposition 10 figure</title>
  <path class="fill-blue" data-name="angle-blue-left" d="M105.07,2.5l40.43,40.43c10.35-10.35,16.75-24.64,16.75-40.43H105.07z" style="fill:#0e638e;fill-opacity:1;stroke-opacity:0;"/>
  <path class="fill-yellow" data-name="angle-yellow-right" d="M105.07,2.5v57.17c15.79,0,30.08-6.4,40.43-16.75L105.07,2.5z" style="fill:#fac22b;fill-opacity:1;stroke-opacity:0;"/>
  <path class="fill-red" data-name="angle-red-right" d="M207.64,105.07l40.43,40.43c10.35-10.35,16.75-24.64,16.75-40.43H207.64z" style="fill:#d42a20;fill-opacity:1;stroke-opacity:0;"/>
  <path class="fill-red" data-name="angle-red-left" d="M167.22,64.64c-10.35,10.35-16.75,24.64-16.75,40.43h57.17L167.22,64.64z" style="fill:#d42a20;fill-opacity:1;stroke-opacity:0;"/>
  <path class="fill-blue" data-name="angle-blue-right" d="M352.5,249.93v-57.17c-15.79,0-30.08,6.4-40.43,16.75L352.5,249.93z" style="fill:#0e638e;fill-opacity:1;stroke-opacity:0;"/>
  <path class="fill-yellow" data-name="angle-yellow-left" d="M64.64,42.93c10.35,10.35,24.64,16.75,40.43,16.75V2.5L64.64,42.93z" style="fill:#fac22b;fill-opacity:1;stroke-opacity:0;"/>
  <path class="fill-black" data-name="angle-black" d="M42.93,64.64L2.5,105.07h57.17C59.67,89.28,53.27,74.99,42.93,64.64z" style="fill:#000000;fill-opacity:1;stroke-opacity:0;"/>
  <line class="stroke-yellow" data-name="line-yellow-bottom" x1="207.64" y1="105.07" x2="105.07" y2="105.07" style="stroke:#fac22b;stroke-width:5;stroke-opacity:1;stroke-linecap:round;stroke-linejoin:round;fill-opacity:0;"/>
  <line class="stroke-black" data-name="line-black-top" x1="105.07" y1="2.5" x2="207.64" y2="105.07" style="stroke:#000000;stroke-width:5;stroke-opacity:1;stroke-linecap:round;stroke-linejoin:round;fill-opacity:0;"/>
  <line class="stroke-red" data-name="line-red-left" x1="105.07" y1="105.07" x2="2.5" y2="105.07" style="stroke:#d42a20;stroke-width:5;stroke-opacity:1;stroke-linecap:round;stroke-linejoin:round;fill-opacity:0;"/>
  <line class="stroke-black" data-name="line-black-middle" x1="103.07" y1="2.5" x2="103.07" y2="105.07" style="stroke:#000000;stroke-width:5;stroke-opacity:1;stroke-linecap:round;stroke-linejoin:round;fill-opacity:0;"/>
  <line class="stroke-red" data-name="line-red-middle" x1="107.07" y1="2.5" x2="107.07" y2="105.07" style="stroke:#d42a20;stroke-width:5;stroke-opacity:1;stroke-linecap:round;stroke-linejoin:round;fill-opacity:0;"/>
  <line class="stroke-black" data-name="line-black-bottom" x1="2.5" y1="105.07" x2="352.5" y2="249.93" style="stroke:#000000;stroke-width:5;stroke-opacity:1;stroke-linecap:round;stroke-linejoin:round;fill-opacity:0;"/>
  <line class="stroke-blue" data-name="line-blue-right" x1="207.64" y1="105.07" x2="352.5" y2="105.07" style="stroke:#0e638e;stroke-width:5;stroke-opacity:1;stroke-linecap:round;stroke-linejoin:round;fill-opacity:0;"/>
  <line class="stroke-trans" data-name="line-black-dotted-trans" x1="207.64" y1="105.07" x2="352.5" y2="249.93" style="stroke:#fcf3d9;stroke-width:5;stroke-opacity:1;stroke-linecap:round;stroke-linejoin:round;fill-opacity:0;"/>
  <line class="stroke-black stroke-dotted" data-name="line-black-dotted" x1="207.64" y1="105.07" x2="352.5" y2="249.93" style="stroke:#000000;stroke-width:5;stroke-opacity:1;stroke-linecap:butt;stroke-linejoin:round;stroke-dasharray:5;fill-opacity:0;"/>
  <line class="stroke-trans" data-name="line-red-dotted-trans" x1="352.5" y1="105.07" x2="352.5" y2="249.93" style="stroke:#fcf3d9;stroke-width:5;stroke-opacity:1;stroke-linecap:round;stroke-linejoin:round;fill-opacity:0;"/>
  <line class="stroke-red stroke-dotted" data-name="line-red-dotted" x1="352.5" y1="105.07" x2="352.5" y2="249.93" style="stroke:#d42a20;stroke-width:5;stroke-opacity:1;stroke-linecap:butt;stroke-linejoin:round;stroke-dasharray:5;fill-opacity:0;"/>
  <line class="stroke-red" data-name="line-red-right" x1="352.5" y1="2.5" x2="352.5" y2="105.07" style="stroke:#d42a20;stroke-width:5;stroke-opacity:1;stroke-linecap:round;stroke-linejoin:round;fill-opacity:0;"/>
  <line class="stroke-blue" data-name="line-blue-left" x1="53.79" y1="53.79" x2="105.07" y2="2.5" style="stroke:#0e638e;stroke-width:5;stroke-opacity:1;stroke-linecap:round;stroke-linejoin:round;fill-opacity:0;"/>
  <line class="stroke-trans" data-name="line-blue-dotted-trans" x1="2.5" y1="105.07" x2="53.79" y2="53.79" style="stroke:#fcf3d9;stroke-width:5;stroke-opacity:1;stroke-linecap:round;stroke-linejoin:round;fill-opacity:0;"/>
  <line class="stroke-blue stroke-dotted" data-name="line-blue-dotted" x1="2.5" y1="105.07" x2="53.79" y2="53.79" style="stroke:#0e638e;stroke-width:5;stroke-opacity:1;stroke-linecap:butt;stroke-linejoin:round;stroke-dasharray:5;fill-opacity:0;"/>
  <line class="stroke-yellow" data-name="line-yellow-top" x1="207.64" y1="2.5" x2="352.5" y2="2.5" style="stroke:#fac22b;stroke-width:5;stroke-opacity:1;stroke-linecap:round;stroke-linejoin:round;fill-opacity:0;"/>
  <line class="stroke-trans" data-name="line-yellow-dotted-trans" x1="105.07" y1="2.5" x2="207.64" y2="2.5" style="stroke:#fcf3d9;stroke-width:5;stroke-opacity:1;stroke-linecap:round;stroke-linejoin:round;fill-opacity:0;"/>
  <line class="stroke-yellow stroke-dotted" data-name="line-yellow-dotted" x1="105.07" y1="2.5" x2="207.64" y2="2.5" style="stroke:#fac22b;stroke-width:5;stroke-opacity:1;stroke-linecap:butt;stroke-linejoin:round;stroke-dasharray:5;fill-opacity:0;"/>
</svg>