<svg xmlns="http://www.w3.org/2000/svg" viewBox="0 0 355 355" preserveAspectRatio="xMidYMid meet" role="img">
  <title>Proposition 20 figure 3</title>
  <path class="fill-yellow" data-name="angle-yellow" d="M141.86,230.46c10.18,6.86,22.44,10.87,35.64,10.87c11.25,0,21.81-2.91,30.99-8.02L177.5,177.5L141.86,230.46z" style="fill:#fac22b;fill-opacity:1;stroke-opacity:0;"/>
  <path class="fill-blue" data-name="angle-blue" d="M114.12,185.05c2.23,18.9,12.71,35.27,27.74,45.41l35.64-52.96C177.5,177.5,148.46,180.96,114.12,185.05z" style="fill:#0e638e;fill-opacity:1;stroke-opacity:0;"/>
  <path class="fill-red" data-name="angle-red" d="M296.81,190.08c6.13,10,14.93,18.19,25.41,23.56l29.06-56.85L296.81,190.08z" style="fill:#d42a20;fill-opacity:1;stroke-opacity:0;"/>
  <path class="fill-black" data-name="angle-black" d="M296.81,190.08l54.47-33.29l-63.38,7.55C289,173.69,292.12,182.42,296.81,190.08z" style="fill:#000000;fill-opacity:1;stroke-opacity:0;"/>
  <line class="stroke-black stroke-thin" data-name="line-black" x1="177.5" y1="177.5" x2="262.46" y2="330.53" style="stroke:#000000;stroke-width:2;stroke-opacity:1;stroke-linecap:round;stroke-linejoin:round;fill-opacity:0;"/>
  <line class="stroke-black stroke-thin" data-name="line-black" x1="262.46" y1="330.53" x2="351.29" y2="156.79" style="stroke:#000000;stroke-width:2;stroke-opacity:1;stroke-linecap:round;stroke-linejoin:round;fill-opacity:0;"/>
  <line class="stroke-black stroke-thin" data-name="line-black" x1="351.29" y1="156.79" x2="79.78" y2="322.7" style="stroke:#000000;stroke-width:2;stroke-opacity:1;stroke-linecap:round;stroke-linejoin:round;fill-opacity:0;"/>
  <line class="stroke-black stroke-thin" data-name="line-black" x1="177.5" y1="177.5" x2="79.78" y2="322.7" style="stroke:#000000;stroke-width:2;stroke-opacity:1;stroke-linecap:round;stroke-linejoin:round;fill-opacity:0;"/>
  <line class="stroke-red" data-name="line-red" x1="351.29" y1="156.79" x2="3.72" y2="198.21" style="stroke:#d42a20;stroke-width:5;stroke-opacity:1;stroke-linecap:round;stroke-linejoin:round;fill-opacity:0;"/>
  <circle class="stroke-blue" data-name="circle" cx="177.5" cy="177.5" r="175" style="stroke:#0e638e;stroke-width:5;stroke-opacity:1;stroke-linecap:round;stroke-linejoin:round;fill-opacity:0;"/>
</svg>