<svg xmlns="http://www.w3.org/2000/svg" viewBox="0 0 352.5 445.66" preserveAspectRatio="xMidYMid meet" role="img">
  <title>Proposition 18 figure</title>
  <polygon class="fill-red" data-name="triangle-red-bottom" points="213.65,443.16 167.47,266.5 298.69,349.33 " style="fill:#d42a20;fill-opacity:1;stroke-opacity:0;"/>
  <polygon class="fill-blue" data-name="triangle-blue-bottom" points="17.93,302.42 213.65,443.16 167.47,266.5 " style="fill:#0e638e;fill-opacity:1;stroke-opacity:0;"/>
  <polygon class="fill-yellow" data-name="triangle-yellow-bottom" points="72.91,443.16 213.65,443.16 17.93,302.42 " style="fill:#fac22b;fill-opacity:1;stroke-opacity:0;"/>
  <path class="fill-red" data-name="angle-red-bottom-top-right" d="M202.5,288.61c-5.54,8.76-14.26,15.29-24.55,17.98l-10.48-40.09C167.47,266.5,202.5,288.61,202.5,288.61z" style="fill:#d42a20;fill-opacity:1;stroke-opacity:0;"/>
  <path class="fill-yellow" data-name="arc-yellow-bottom" d="M192.2,282.11c-3.91,6.18-10.07,10.8-17.33,12.69l3.08,11.79c10.29-2.68,19.01-9.22,24.55-17.98L192.2,282.11z" style="fill:#fac22b;fill-opacity:1;stroke-opacity:0;"/>
  <path class="fill-red" data-name="angle-red-bottom-top" d="M51.73,326.72c4.99-6.84,7.94-15.26,7.94-24.37c0-3.33-0.4-6.57-1.15-9.67l-40.58,9.75L51.73,326.72z" style="fill:#d42a20;fill-opacity:1;stroke-opacity:0;"/>
  <path class="fill-red" data-name="angle-red-bottom-bottom" d="M72.91,401.73c-5.32,0-10.4,1.01-15.07,2.84l15.07,38.59h41.43C114.34,420.28,95.79,401.73,72.91,401.73z" style="fill:#d42a20;fill-opacity:1;stroke-opacity:0;"/>
  <path class="fill-yellow" data-name="angle-yellow-bottom" d="M213.65,443.16l27.82-30.7c-7.35-6.67-17.11-10.73-27.82-10.73c-3.62,0-7.13,0.47-10.48,1.34L213.65,443.16z" style="fill:#fac22b;fill-opacity:1;stroke-opacity:0;"/>
  <path class="fill-black" data-name="angle-black-bottom" d="M213.65,443.16l-10.48-40.09c-9.46,2.47-17.59,8.19-23.15,15.91L213.65,443.16z" style="fill:#000000;fill-opacity:1;stroke-opacity:0;"/>
  <path class="fill-blue" data-name="angle-blue-bottom" d="M180.03,418.98c-4.9,6.81-7.8,15.15-7.8,24.18h41.43L180.03,418.98z" style="fill:#0e638e;fill-opacity:1;stroke-opacity:0;"/>
  <path class="fill-black" data-name="arc-black-bottom" d="M51.73,326.72c4.99-6.84,7.94-15.26,7.94-24.37c0-3.33-0.4-6.57-1.15-9.67l-11.85,2.85c0.52,2.19,0.81,4.48,0.81,6.83c0,6.46-2.1,12.42-5.64,17.26L51.73,326.72z" style="fill:#000000;fill-opacity:1;stroke-opacity:0;"/>
  <line class="stroke-blue" data-name="line-blue-bottom" x1="72.91" y1="443.16" x2="17.93" y2="302.42" style="stroke:#0e638e;stroke-width:5;stroke-opacity:1;stroke-linecap:round;stroke-linejoin:round;fill-opacity:0;"/>
  <line class="stroke-red" data-name="line-red-bottom" x1="213.65" y1="443.16" x2="17.93" y2="302.42" style="stroke:#d42a20;stroke-width:5;stroke-opacity:1;stroke-linecap:round;stroke-linejoin:round;fill-opacity:0;"/>
  <line class="stroke-trans" data-name="line-blue-dotted-bottom-trans" x1="17.93" y1="302.42" x2="167.47" y2="266.5" style="stroke:#fcf3d9;stroke-width:5;stroke-opacity:1;stroke-linecap:round;stroke-linejoin:round;fill-opacity:0;"/>
  <line class="stroke-blue stroke-dotted" data-name="line-blue-dotted-bottom" x1="17.93" y1="302.42" x2="167.47" y2="266.5" style="stroke:#0e638e;stroke-width:5;stroke-opacity:1;stroke-linecap:butt;stroke-linejoin:round;stroke-dasharray:5;fill-opacity:0;"/>
  <line class="stroke-black" data-name="line-black-bottom" x1="213.65" y1="443.16" x2="72.91" y2="443.16" style="stroke:#000000;stroke-width:5;stroke-opacity:1;stroke-linecap:round;stroke-linejoin:round;fill-opacity:0;"/>
  <polygon class="fill-red" data-name="triangle-red-top" points="246.49,222.73 188.92,2.5 352.5,105.76 " style="fill:#d42a20;fill-opacity:1;stroke-opacity:0;"/>
  <polygon class="fill-blue" data-name="triangle-blue-top" points="2.5,47.28 246.49,222.73 188.92,2.5 " style="fill:#0e638e;fill-opacity:1;stroke-opacity:0;"/>
  <polygon class="fill-yellow" data-name="triangle-yellow-top" points="71.04,222.73 246.49,222.73 2.5,47.28 " style="fill:#fac22b;fill-opacity:1;stroke-opacity:0;"/>
  <path class="fill-trans stroke-black stroke-thin" data-name="angle-outline-red-top" d="M71.04,169.94c-6.78,0-13.26,1.29-19.21,3.62l19.21,49.18h52.8C123.84,193.57,100.2,169.94,71.04,169.94z" style="fill:#fcf3d9;fill-opacity:1;stroke:#000000;stroke-width:2;stroke-opacity:1;stroke-linecap:round;stroke-linejoin:round;"/>
  <path class="fill-black" data-name="angle-black-top" d="M45.36,78.1c6.25-8.67,9.94-19.31,9.94-30.82c0-4.25-0.52-8.37-1.46-12.33L2.5,47.28L45.36,78.1z" style="fill:#000000;fill-opacity:1;stroke-opacity:0;"/>
  <path class="fill-red" data-name="arc-red-top-top" d="M45.36,78.1c6.25-8.67,9.94-19.31,9.94-30.82c0-4.25-0.52-8.37-1.46-12.33l-11.85,2.85c0.73,3.04,1.13,6.22,1.13,9.49c0,8.85-2.84,17.04-7.65,23.71L45.36,78.1z" style="fill:#d42a20;fill-opacity:1;stroke-opacity:0;"/>
  <path class="fill-red" data-name="angle-red-top" d="M233.56,30.68c-7.06,11.16-18.18,19.49-31.29,22.91L188.92,2.5C188.92,2.5,233.56,30.68,233.56,30.68z" style="fill:#d42a20;fill-opacity:1;stroke-opacity:0;"/>
  <path class="fill-yellow" data-name="arc-yellow-top-top" d="M223.26,24.18c-5.43,8.58-13.98,14.99-24.07,17.62l3.08,11.79c13.11-3.42,24.23-11.75,31.29-22.91L223.26,24.18z" style="fill:#fac22b;fill-opacity:1;stroke-opacity:0;"/>
  <path class="fill-red stroke-red stroke-thin" data-name="arc-red-top-bottom" d="M71.04,169.94c-6.78,0-13.26,1.29-19.21,3.62l4.43,11.35c4.58-1.79,9.56-2.78,14.78-2.78c22.43,0,40.62,18.18,40.62,40.62h12.18C123.84,193.57,100.2,169.94,71.04,169.94z" style="fill:#d42a20;fill-opacity:1;stroke:#d42a20;stroke-width:2;stroke-opacity:1;stroke-linecap:round;stroke-linejoin:round;"/>
  <path class="fill-trans stroke-black stroke-thin" data-name="angle-outline-blue-top" d="M194.41,185.28c-7.59,10.54-12.08,23.47-12.08,37.46h64.17L194.41,185.28z" style="fill:#fcf3d9;fill-opacity:1;stroke:#000000;stroke-width:2;stroke-opacity:1;stroke-linecap:round;stroke-linejoin:round;"/>
  <path class="fill-trans stroke-black stroke-thin" data-name="angle-outline-black-top" d="M246.49,222.73l-16.23-62.1c-14.65,3.82-27.25,12.69-35.86,24.64L246.49,222.73z" style="fill:#fcf3d9;fill-opacity:1;stroke:#000000;stroke-width:2;stroke-opacity:1;stroke-linecap:round;stroke-linejoin:round;"/>
  <path class="fill-trans stroke-black stroke-thin" data-name="angle-outline-yellow-top" d="M246.49,222.73l43.09-47.55c-11.39-10.33-26.51-16.62-43.09-16.62c-5.61,0-11.05,0.72-16.23,2.08L246.49,222.73z" style="fill:#fcf3d9;fill-opacity:1;stroke:#000000;stroke-width:2;stroke-opacity:1;stroke-linecap:round;stroke-linejoin:round;"/>
  <path class="fill-blue stroke-blue stroke-thin" data-name="arc-blue-top" d="M204.3,192.39l-9.89-7.11c-7.59,10.54-12.08,23.47-12.08,37.46h12.18C194.51,211.41,198.14,200.93,204.3,192.39z" style="fill:#0e638e;fill-opacity:1;stroke:#0e638e;stroke-width:2;stroke-opacity:1;stroke-linecap:round;stroke-linejoin:round;"/>
  <path class="fill-black" data-name="arc-black-top" d="M204.3,192.39c6.97-9.68,17.18-16.87,29.05-19.96l-3.08-11.79c-14.65,3.82-27.25,12.69-35.86,24.64L204.3,192.39z" style="fill:#000000;fill-opacity:1;stroke-opacity:0;"/>
  <path class="fill-yellow stroke-yellow stroke-thin" data-name="arc-yellow-top-bottom" d="M230.26,160.64l3.08,11.79c4.2-1.1,8.61-1.68,13.15-1.68c13.44,0,25.68,5.1,34.91,13.47l8.18-9.03c-11.39-10.33-26.51-16.62-43.09-16.62C240.89,158.56,235.45,159.29,230.26,160.64z" style="fill:#fac22b;fill-opacity:1;stroke:#fac22b;stroke-width:2;stroke-opacity:1;stroke-linecap:round;stroke-linejoin:round;"/>
  <line class="stroke-trans" data-name="line-black-dotted-top-trans" x1="246.49" y1="222.73" x2="71.04" y2="222.73" style="stroke:#fcf3d9;stroke-width:5;stroke-opacity:1;stroke-linecap:round;stroke-linejoin:round;fill-opacity:0;"/>
  <line class="stroke-black stroke-dotted" data-name="line-black-dotted-top" x1="246.49" y1="222.73" x2="71.04" y2="222.73" style="stroke:#000000;stroke-width:5;stroke-opacity:1;stroke-linecap:butt;stroke-linejoin:round;stroke-dasharray:5;fill-opacity:0;"/>
  <line class="stroke-trans" data-name="line-red-dotted-top-trans" x1="246.49" y1="222.73" x2="2.5" y2="47.28" style="stroke:#fcf3d9;stroke-width:5;stroke-opacity:1;stroke-linecap:round;stroke-linejoin:round;fill-opacity:0;"/>
  <line class="stroke-red stroke-dotted" data-name="line-red-dotted-top" x1="246.49" y1="222.73" x2="2.5" y2="47.28" style="stroke:#d42a20;stroke-width:5;stroke-opacity:1;stroke-linecap:butt;stroke-linejoin:round;stroke-dasharray:5;fill-opacity:0;"/>
  <line class="stroke-trans" data-name="line-yellow-dotted-top-trans" x1="246.49" y1="222.73" x2="188.92" y2="2.5" style="stroke:#fcf3d9;stroke-width:5;stroke-opacity:1;stroke-linecap:round;stroke-linejoin:round;fill-opacity:0;"/>
  <line class="stroke-yellow stroke-dotted" data-name="line-yellow-dotted-top" x1="246.49" y1="222.73" x2="188.92" y2="2.5" style="stroke:#fac22b;stroke-width:5;stroke-opacity:1;stroke-linecap:butt;stroke-linejoin:round;stroke-dasharray:5;fill-opacity:0;"/>
  <line class="stroke-yellow" data-name="line-yellow-top" x1="2.5" y1="47.28" x2="188.92" y2="2.5" style="stroke:#fac22b;stroke-width:5;stroke-opacity:1;stroke-linecap:round;stroke-linejoin:round;fill-opacity:0;"/>
  <line class="stroke-blue stroke-thin" data-name="line-blue-thin-top" x1="71.04" y1="222.73" x2="2.5" y2="47.28" style="stroke:#0e638e;stroke-width:2;stroke-opacity:1;stroke-linecap:round;stroke-linejoin:round;fill-opacity:0;"/>
</svg>