<svg xmlns="http://www.w3.org/2000/svg" viewBox="0 0 355 355" preserveAspectRatio="xMidYMid meet" role="img">
  <title>Proposition 34 figure</title>
  <path class="fill-yellow" data-name="segment" d="M328.7,89.33c15.13,25.89,23.8,56.02,23.8,88.17c0,96.65-78.35,175-175,175L328.7,89.33L328.7,89.33z" style="fill:#fac22b;fill-opacity:1;stroke-opacity:0;"/>
  <path class="fill-red" data-name="angle-red" d="M202.16,309.58c-7.26-4.18-15.68-6.59-24.66-6.59c-27.34,0-49.51,22.16-49.51,49.51h49.51L202.16,309.58z" style="fill:#d42a20;fill-opacity:1;stroke-opacity:0;"/>
  <path class="fill-blue" data-name="angle-blue" d="M202.16,309.58c-7.26-4.18-15.68-6.59-24.66-6.59c-27.34,0-49.51,22.16-49.51,49.51h49.51L202.16,309.58z" style="fill:#0e638e;fill-opacity:1;stroke-opacity:0;"/>
  <line class="stroke-red" data-name="line-red" x1="2.5" y1="352.5" x2="352.5" y2="352.5" style="stroke:#d42a20;stroke-width:5;stroke-opacity:1;stroke-linecap:round;stroke-linejoin:round;fill-opacity:0;"/>
  <line class="stroke-black" data-name="line-black" x1="177.5" y1="352.5" x2="328.7" y2="89.33" style="stroke:#000000;stroke-width:5;stroke-opacity:1;stroke-linecap:round;stroke-linejoin:round;fill-opacity:0;"/>
  <circle class="stroke-blue" data-name="circle" cx="177.5" cy="177.5" r="175" style="stroke:#0e638e;stroke-width:5;stroke-opacity:1;stroke-linecap:round;stroke-linejoin:round;fill-opacity:0;"/>
</svg>