<svg xmlns="http://www.w3.org/2000/svg" viewBox="0 0 355 321.76" preserveAspectRatio="xMidYMid meet" role="img">
  <title>Proposition 32 figure</title>
  <path class="fill-red" data-name="angle-red" d="M212.57,46.72l-42.7,55.4h69.96C239.83,79.56,229.14,59.51,212.57,46.72z" style="fill:#d42a20;fill-opacity:1;stroke-opacity:0;"/>
  <path class="fill-black" data-name="angle-black-top" d="M207.76,160.92c19.29-12.46,32.07-34.13,32.07-58.8h-69.96L207.76,160.92z" style="fill:#000000;fill-opacity:1;stroke-opacity:0;"/>
  <path class="fill-blue" data-name="angle-blue" d="M127.17,157.52c11.82,9.12,26.62,14.56,42.7,14.56c13.97,0,26.96-4.11,37.89-11.16l-37.89-58.8L127.17,157.52z" style="fill:#0e638e;fill-opacity:1;stroke-opacity:0;"/>
  <path class="fill-yellow" data-name="angle-yellow" d="M45.2,263.87l-42.7,55.4h69.96C72.46,296.71,61.77,276.66,45.2,263.87z" style="fill:#fac22b;fill-opacity:1;stroke-opacity:0;"/>
  <path class="fill-black" data-name="angle-black-bottom" d="M271.9,260.47c-19.29,12.46-32.07,34.13-32.07,58.8h69.96L271.9,260.47z" style="fill:#000000;fill-opacity:1;stroke-opacity:0;"/>
  <line class="stroke-red" data-name="line-red" x1="2.5" y1="319.26" x2="309.79" y2="319.26" style="stroke:#d42a20;stroke-width:5;stroke-opacity:1;stroke-linecap:round;stroke-linejoin:round;fill-opacity:0;"/>
  <line class="stroke-black" data-name="line-black" x1="169.87" y1="102.12" x2="2.5" y2="319.26" style="stroke:#000000;stroke-width:5;stroke-opacity:1;stroke-linecap:round;stroke-linejoin:round;fill-opacity:0;"/>
  <line class="stroke-blue" data-name="line-blue" x1="169.87" y1="102.12" x2="352.5" y2="102.12" style="stroke:#0e638e;stroke-width:5;stroke-opacity:1;stroke-linecap:round;stroke-linejoin:round;fill-opacity:0;"/>
  <line class="stroke-yellow" data-name="line-yellow" x1="309.79" y1="319.26" x2="169.87" y2="102.12" style="stroke:#fac22b;stroke-width:5;stroke-opacity:1;stroke-linecap:round;stroke-linejoin:round;fill-opacity:0;"/>
  <line class="stroke-trans" data-name="line-black-dotted-trans" x1="169.87" y1="102.12" x2="247.41" y2="1.53" style="stroke:#fcf3d9;stroke-width:5;stroke-opacity:1;stroke-linecap:round;stroke-linejoin:round;fill-opacity:0;"/>
  <line class="stroke-black stroke-dotted" data-name="line-black-dotted" x1="169.87" y1="102.12" x2="247.41" y2="1.53" style="stroke:#000000;stroke-width:5;stroke-opacity:1;stroke-linecap:butt;stroke-linejoin:round;stroke-dasharray:5;fill-opacity:0;"/>
</svg>