<svg xmlns="http://www.w3.org/2000/svg" viewBox="0 0 355 322.93" preserveAspectRatio="xMidYMid meet" role="img">
  <title>Proposition 7 figure</title>
  <path class="stroke-black stroke-thin" data-name="angle-outline-yellow" d="M331.88,63.06l5.2,47.89c-1.5,0.13-3.01,0.2-4.5,0.2c-9.88,0-19.41-2.82-27.65-8.16L331.88,63.06 M332.58,60.23l-29.04,43.03c8.29,5.61,18.28,8.88,29.04,8.88c1.89,0,3.76-0.1,5.61-0.3L332.58,60.23L332.58,60.23z" style="stroke:#000000;stroke-width:2;stroke-opacity:1;stroke-linecap:round;stroke-linejoin:round;fill-opacity:0;"/>
  <path class="fill-yellow stroke-yellow stroke-thin" data-name="arc-yellow" d="M338.19,111.84l-1.34-12.34c-1.4,0.15-2.82,0.23-4.27,0.23c-8.19,0-15.79-2.49-22.1-6.76l-6.95,10.29c8.29,5.61,18.28,8.88,29.04,8.88C334.47,112.15,336.34,112.04,338.19,111.84z" style="fill:#fac22b;fill-opacity:1;stroke:#fac22b;stroke-width:2;stroke-opacity:1;stroke-linecap:round;stroke-linejoin:round;"/>
  <path class="stroke-black stroke-thin" data-name="angle-outline-red" d="M258.93,171.15c8.41,6.07,13.41,15.79,13.41,26.2c0,3.91-0.69,7.73-2.06,11.36l-28.72-11.82L258.93,171.15 M258.67,169.75l-18.63,27.6l30.79,12.67c1.61-3.91,2.5-8.18,2.5-12.67C273.33,185.86,267.51,175.74,258.67,169.75L258.67,169.75z" style="stroke:#000000;stroke-width:2;stroke-opacity:1;stroke-linecap:round;stroke-linejoin:round;fill-opacity:0;"/>
  <path class="fill-red stroke-red stroke-thin" data-name="arc-red" d="M270.83,210.02c1.61-3.91,2.5-8.18,2.5-12.67c0-11.49-5.82-21.61-14.67-27.6l-6.95,10.29c5.55,3.75,9.2,10.1,9.2,17.31c0,2.81-0.56,5.5-1.57,7.94L270.83,210.02z" style="fill:#d42a20;fill-opacity:1;stroke:#d42a20;stroke-width:2;stroke-opacity:1;stroke-linecap:round;stroke-linejoin:round;"/>
  <path class="stroke-black stroke-thin" data-name="angle-outline-blue" d="M347.35,205.47l3.97,36.59l-34.04-14C322.71,215.79,334.09,207.24,347.35,205.47 M348.23,204.36c-14.63,1.57-26.87,11.13-32.27,24.24l36.53,15.03L348.23,204.36L348.23,204.36z" style="stroke:#000000;stroke-width:2;stroke-opacity:1;stroke-linecap:round;stroke-linejoin:round;fill-opacity:0;"/>
  <path class="fill-blue stroke-blue stroke-thin" data-name="arc-blue" d="M315.97,228.59l11.48,4.72c3.7-8.99,12.09-15.54,22.13-16.62l-1.34-12.34C333.6,205.93,321.37,215.49,315.97,228.59z" style="fill:#0e638e;fill-opacity:1;stroke:#0e638e;stroke-width:2;stroke-opacity:1;stroke-linecap:round;stroke-linejoin:round;"/>
  <path class="stroke-black stroke-thin" data-name="angle-outline-black" d="M189.64,286.9l46.2,33.53l-6.16-56.75C213.23,265.45,198.88,274.19,189.64,286.9z" style="stroke:#000000;stroke-width:2;stroke-opacity:1;stroke-linecap:round;stroke-linejoin:round;fill-opacity:0;"/>
  <path class="fill-black stroke-black stroke-thin" data-name="arc-black" d="M189.64,286.9l14.24,10.33c6.39-8.79,16.32-14.84,27.7-16.07l-1.9-17.49C213.23,265.45,198.88,274.19,189.64,286.9z" style="fill:#000000;fill-opacity:1;stroke:#000000;stroke-width:2;stroke-opacity:1;stroke-linecap:round;stroke-linejoin:round;"/>
  <path class="fill-black" data-name="angle-black" d="M179.03,314.75l56.8,5.69l-46.2-33.53C183.84,294.87,180.06,304.4,179.03,314.75z" style="fill:#000000;fill-opacity:1;stroke-opacity:0;"/>
  <path class="fill-red" data-name="angle-red-bottom" d="M63.42,303.17c0.2-2.01,0.3-4.04,0.3-6.1c0-21.12-10.7-39.75-26.97-50.75L2.5,297.07L63.42,303.17z" style="fill:#d42a20;fill-opacity:1;stroke-opacity:0;"/>
  <path class="fill-red" data-name="angle-red-top" d="M68.64,199.07c0,0-14.07,20.85-27.31,40.46c7.79,5.27,17.19,8.35,27.31,8.35c16.24,0,30.62-7.94,39.49-20.14L68.64,199.07z" style="fill:#d42a20;fill-opacity:1;stroke-opacity:0;"/>
  <path class="fill-blue" data-name="angle-blue" d="M201.3,70.21c2.47,0,4.91-0.14,7.31-0.39L201.3,2.5l-37.88,56.13C174.23,65.94,187.27,70.21,201.3,70.21z" style="fill:#0e638e;fill-opacity:1;stroke-opacity:0;"/>
  <path class="fill-yellow" data-name="angle-yellow" d="M108.13,227.74c5.85-8.05,9.32-17.95,9.32-28.67c0-16.84-8.53-31.69-21.5-40.46c-8.93,13.23-27.31,40.46-27.31,40.46L108.13,227.74z" style="fill:#fac22b;fill-opacity:1;stroke-opacity:0;"/>
  <line class="stroke-trans" data-name="line-blue-dotted-trans" x1="332.58" y1="60.23" x2="240.04" y2="197.35" style="stroke:#fcf3d9;stroke-width:5;stroke-opacity:1;stroke-linecap:round;stroke-linejoin:round;fill-opacity:0;"/>
  <line class="stroke-blue stroke-dotted" data-name="line-blue-dotted" x1="332.58" y1="60.23" x2="240.04" y2="197.35" style="stroke:#0e638e;stroke-width:5;stroke-opacity:1;stroke-linecap:butt;stroke-linejoin:round;stroke-dasharray:5;fill-opacity:0;"/>
  <line class="stroke-trans" data-name="line-red-dotted-trans" x1="352.5" y1="243.62" x2="332.58" y2="60.23" style="stroke:#fcf3d9;stroke-width:5;stroke-opacity:1;stroke-linecap:round;stroke-linejoin:round;fill-opacity:0;"/>
  <line class="stroke-red stroke-dotted" data-name="line-red-dotted" x1="352.5" y1="243.62" x2="332.58" y2="60.23" style="stroke:#d42a20;stroke-width:5;stroke-opacity:1;stroke-linecap:butt;stroke-linejoin:round;stroke-dasharray:5;fill-opacity:0;"/>
  <line class="stroke-trans" data-name="line-yellow-dotted-trans" x1="240.04" y1="197.35" x2="352.5" y2="243.62" style="stroke:#fcf3d9;stroke-width:5;stroke-opacity:1;stroke-linecap:round;stroke-linejoin:round;fill-opacity:0;"/>
  <line class="stroke-yellow stroke-dotted" data-name="line-yellow-dotted" x1="240.04" y1="197.35" x2="352.5" y2="243.62" style="stroke:#fac22b;stroke-width:5;stroke-opacity:1;stroke-linecap:butt;stroke-linejoin:round;stroke-dasharray:5;fill-opacity:0;"/>
  <line class="stroke-blue" data-name="line-blue" x1="235.84" y1="320.43" x2="68.64" y2="199.07" style="stroke:#0e638e;stroke-width:5;stroke-opacity:1;stroke-linecap:round;stroke-linejoin:round;fill-opacity:0;"/>
  <line class="stroke-yellow" data-name="line-yellow" x1="2.5" y1="297.07" x2="235.84" y2="320.43" style="stroke:#fac22b;stroke-width:5;stroke-opacity:1;stroke-linecap:round;stroke-linejoin:round;fill-opacity:0;"/>
  <line class="stroke-red" data-name="line-red" x1="235.84" y1="320.43" x2="201.3" y2="2.5" style="stroke:#d42a20;stroke-width:5;stroke-opacity:1;stroke-linecap:round;stroke-linejoin:round;fill-opacity:0;"/>
  <line class="stroke-black" data-name="line-black-bottom" x1="68.64" y1="199.07" x2="2.5" y2="297.07" style="stroke:#000000;stroke-width:5;stroke-opacity:1;stroke-linecap:round;stroke-linejoin:round;fill-opacity:0;"/>
  <line class="stroke-black" data-name="line-black-top" x1="201.3" y1="2.5" x2="68.64" y2="199.07" style="stroke:#000000;stroke-width:5;stroke-opacity:1;stroke-linecap:round;stroke-linejoin:round;fill-opacity:0;"/>
</svg>