<svg xmlns="http://www.w3.org/2000/svg" viewBox="0 0 352.51 257.36" preserveAspectRatio="xMidYMid meet" role="img">
  <title>Proposition 16 figure</title>
  <line class="stroke-black stroke-dotted" data-name="line-black-dotted-right" x1="260.58" y1="186.64" x2="352.5" y2="187.05" style="stroke:#000000;stroke-width:5;stroke-opacity:1;stroke-linecap:butt;stroke-linejoin:round;stroke-dasharray:5;fill-opacity:0;"/>
  <path class="stroke-black stroke-dotted" data-name="line-black-dotted-left" d="M214.6,186.44l45.98,0.2" style="stroke:#000000;stroke-width:5;stroke-opacity:1;stroke-linecap:butt;stroke-linejoin:round;stroke-dasharray:5;fill-opacity:0;"/>
  <path class="fill-black" data-name="arc" d="M241.58,149.21l-2.94,4.06c10.26,7.45,16.93,19.53,16.93,33.17c0,0.06,0,0.12,0,0.18l5.01,0.02l0,0c0-0.07,0.01-0.13,0.01-0.2C260.58,171.13,253.09,157.57,241.58,149.21z" style="fill:#000000;fill-opacity:1;stroke-opacity:0;"/>
  <path class="fill-black" data-name="angle-black-top" d="M108.15,39.73c7.58,5.5,16.9,8.76,26.98,8.76c6.48,0,12.65-1.35,18.24-3.77L135.13,2.5L108.15,39.73z" style="fill:#000000;fill-opacity:1;stroke-opacity:0;"/>
  <path class="fill-black" data-name="angle-black-bottom" d="M214.6,186.44c0,0,18.24-25.16,26.98-37.23c-7.58-5.5-16.9-8.76-26.98-8.76c-6.48,0-12.65,1.35-18.24,3.77L214.6,186.44z" style="fill:#000000;fill-opacity:1;stroke-opacity:0;"/>
  <path class="fill-red" data-name="angle-red" d="M214.6,186.44l-45.98-0.2c0,0.07-0.01,0.13-0.01,0.2c0,25.4,20.59,45.99,45.99,45.99c6.48,0,12.65-1.35,18.24-3.77C224.08,208.39,214.6,186.44,214.6,186.44z" style="fill:#d42a20;fill-opacity:1;stroke-opacity:0;"/>
  <path class="fill-yellow" data-name="angle-yellow-left" d="M159.9,59.84c-13.39,5.79-22.76,19.12-22.76,34.64c0,6.37,1.58,12.36,4.37,17.62l33.36-17.62L159.9,59.84z" style="fill:#fac22b;fill-opacity:1;stroke-opacity:0;"/>
  <path class="fill-blue" data-name="angle-blue" d="M48.48,185.72c0-0.07,0.01-0.13,0.01-0.2c0-15.31-7.49-28.87-19.01-37.23L2.5,185.51L48.48,185.72z" style="fill:#0e638e;fill-opacity:1;stroke-opacity:0;"/>
  <path class="fill-yellow" data-name="angle-yellow-right" d="M189.83,129.11c13.39-5.79,22.76-19.12,22.76-34.64c0-6.37-1.58-12.36-4.37-17.62l-33.36,17.62L189.83,129.11z" style="fill:#fac22b;fill-opacity:1;stroke-opacity:0;"/>
  <line class="stroke-trans" data-name="line-blue-dotted-trans" x1="174.87" y1="94.47" x2="214.6" y2="186.44" style="stroke:#fcf3d9;stroke-width:5;stroke-opacity:1;stroke-linecap:round;stroke-linejoin:round;fill-opacity:0;"/>
  <line class="stroke-blue stroke-dotted" data-name="line-blue-dotted" x1="174.87" y1="94.47" x2="214.6" y2="186.44" style="stroke:#0e638e;stroke-width:5;stroke-opacity:1;stroke-linecap:butt;stroke-linejoin:round;stroke-dasharray:5;fill-opacity:0;"/>
  <line class="stroke-trans" data-name="line-yellow-dotted-trans" x1="2.5" y1="185.51" x2="135.13" y2="2.5" style="stroke:#fcf3d9;stroke-width:5;stroke-opacity:1;stroke-linecap:round;stroke-linejoin:round;fill-opacity:0;"/>
  <line class="stroke-yellow stroke-dotted" data-name="line-yellow-dotted" x1="2.5" y1="185.51" x2="135.13" y2="2.5" style="stroke:#fac22b;stroke-width:5;stroke-opacity:1;stroke-linecap:butt;stroke-linejoin:round;stroke-dasharray:5;fill-opacity:0;"/>
  <line class="stroke-trans" data-name="line-red-dotted-trans" x1="174.87" y1="94.47" x2="347.23" y2="3.43" style="stroke:#fcf3d9;stroke-width:5;stroke-opacity:1;stroke-linecap:round;stroke-linejoin:round;fill-opacity:0;"/>
  <line class="stroke-red stroke-dotted" data-name="line-red-dotted" x1="174.87" y1="94.47" x2="347.23" y2="3.43" style="stroke:#d42a20;stroke-width:5;stroke-opacity:1;stroke-linecap:butt;stroke-linejoin:round;stroke-dasharray:5;fill-opacity:0;"/>
  <line class="stroke-black" data-name="line-black-bottom" x1="245.02" y1="256.86" x2="214.6" y2="186.44" style="stroke:#000000;stroke-width:5;stroke-opacity:1;stroke-linecap:round;stroke-linejoin:round;fill-opacity:0;"/>
  <line class="stroke-blue" data-name="line-blue" x1="135.13" y1="2.5" x2="174.87" y2="94.47" style="stroke:#0e638e;stroke-width:5;stroke-opacity:1;stroke-linecap:round;stroke-linejoin:round;fill-opacity:0;"/>
  <line class="stroke-yellow" data-name="line-yellow" x1="214.6" y1="186.44" x2="347.23" y2="3.43" style="stroke:#fac22b;stroke-width:5;stroke-opacity:1;stroke-linecap:round;stroke-linejoin:round;fill-opacity:0;"/>
  <line class="stroke-red" data-name="line-red" x1="2.5" y1="185.51" x2="174.87" y2="94.47" style="stroke:#d42a20;stroke-width:5;stroke-opacity:1;stroke-linecap:round;stroke-linejoin:round;fill-opacity:0;"/>
  <line class="stroke-black" data-name="line-black-top" x1="2.5" y1="185.51" x2="214.6" y2="186.44" style="stroke:#000000;stroke-width:5;stroke-opacity:1;stroke-linecap:round;stroke-linejoin:round;fill-opacity:0;"/>
</svg>