<svg xmlns="http://www.w3.org/2000/svg" viewBox="0 0 350 261.01" preserveAspectRatio="xMidYMid meet" role="img">
  <title>Proposition 31 figure</title>
  <rect class="fill-red" data-name="rect-red" x="34.51" y="181.46" width="280.98" height="79.55" style="fill:#d42a20;fill-opacity:1;stroke-opacity:0;"/>
  <polyline class="fill-blue" data-name="rect-blue" points="70.57,39.59 105.08,59.57 34.51,181.46 0,161.48 70.57,39.59 " style="fill:#0e638e;fill-opacity:1;stroke-opacity:0;"/>
  <polyline class="fill-yellow" data-name="rect-yellow" points="139.59,0 350,121.89 315.49,181.46 105.08,59.57 139.59,0 " style="fill:#fac22b;fill-opacity:1;stroke-opacity:0;"/>
  <line class="stroke-yellow" data-name="line-yellow" x1="105.08" y1="59.57" x2="34.51" y2="181.46" style="stroke:#fac22b;stroke-width:5;stroke-opacity:1;stroke-linecap:round;stroke-linejoin:round;fill-opacity:0;"/>
  <line class="stroke-red" data-name="line-red" x1="105.08" y1="59.57" x2="315.49" y2="181.46" style="stroke:#d42a20;stroke-width:5;stroke-opacity:1;stroke-linecap:round;stroke-linejoin:round;fill-opacity:0;"/>
  <line class="stroke-black" data-name="line-black" x1="105.08" y1="59.57" x2="105.08" y2="181.46" style="stroke:#000000;stroke-width:5;stroke-opacity:1;stroke-linecap:round;stroke-linejoin:round;fill-opacity:0;"/>
  <line class="stroke-trans" data-name="line-blue-dotted-trans" x1="34.51" y1="181.46" x2="105.08" y2="181.46" style="stroke:#fcf3d9;stroke-width:5;stroke-opacity:1;stroke-linecap:round;stroke-linejoin:round;fill-opacity:0;"/>
  <line class="stroke-blue stroke-dotted" data-name="line-blue-dotted" x1="34.51" y1="181.46" x2="105.08" y2="181.46" style="stroke:#0e638e;stroke-width:5;stroke-opacity:1;stroke-linecap:butt;stroke-linejoin:round;stroke-dasharray:5;fill-opacity:0;"/>
  <line class="stroke-blue" data-name="line-blue" x1="105.08" y1="181.46" x2="315.49" y2="181.46" style="stroke:#0e638e;stroke-width:5;stroke-opacity:1;stroke-linecap:round;stroke-linejoin:round;fill-opacity:0;"/>
  <polygon class="fill-trans ignore" data-name="mask" points="350,121.89 315.49,181.46 315.49,261.01 " style="fill:#fcf3d9;fill-opacity:1;stroke-opacity:0;"/>
  <polygon class="fill-trans ignore" data-name="mask" points="0,161.48 34.51,181.46 34.51,261.01 " style="fill:#fcf3d9;fill-opacity:1;stroke-opacity:0;"/>
  <polygon class="fill-trans ignore" data-name="mask" points="139.59,0 105.08,59.57 70.57,39.59 " style="fill:#fcf3d9;fill-opacity:1;stroke-opacity:0;"/>
</svg>