<svg xmlns="http://www.w3.org/2000/svg" viewBox="0 0 355 337.87" preserveAspectRatio="xMidYMid meet" role="img">
  <title>Proposition 12 figure</title>
  <circle class="stroke-red" data-name="circle" cx="177.5" cy="186.51" r="148.86" style="stroke:#d42a20;stroke-width:5;stroke-opacity:1;stroke-linecap:round;stroke-linejoin:round;fill-opacity:0;"/>
  <path class="fill-red" data-name="angle-red-right" d="M177.5,186.51l18.43,25.36c5.29-3.85,9.33-9.31,11.39-15.67L177.5,186.51z" style="fill:#d42a20;fill-opacity:1;stroke-opacity:0;"/>
  <path class="fill-blue" data-name="angle-blue" d="M177.5,186.51v31.35c6.89,0,13.25-2.23,18.43-5.99L177.5,186.51z" style="fill:#0e638e;fill-opacity:1;stroke-opacity:0;"/>
  <path class="fill-yellow" data-name="angle-yellow" d="M159.07,211.87c5.17,3.76,11.54,5.99,18.43,5.99v-31.35L159.07,211.87z" style="fill:#fac22b;fill-opacity:1;stroke-opacity:0;"/>
  <path class="fill-red" data-name="angle-red-left" d="M147.68,196.19c2.06,6.36,6.1,11.82,11.39,15.67c5.65-7.78,18.43-25.36,18.43-25.36L147.68,196.19z" style="fill:#d42a20;fill-opacity:1;stroke-opacity:0;"/>
  <line class="stroke-trans" data-name="line-yellow-dotted-trans" x1="319.08" y1="232.51" x2="177.5" y2="186.51" style="stroke:#fcf3d9;stroke-width:5;stroke-opacity:1;stroke-linecap:round;stroke-linejoin:round;fill-opacity:0;"/>
  <line class="stroke-yellow stroke-dotted" data-name="line-yellow-dotted" x1="319.08" y1="232.51" x2="177.5" y2="186.51" style="stroke:#fac22b;stroke-width:5;stroke-opacity:1;stroke-linecap:butt;stroke-linejoin:round;stroke-dasharray:5;fill-opacity:0;"/>
  <line class="stroke-trans" data-name="line-red-dotted-trans" x1="35.88" y1="232.52" x2="177.5" y2="186.51" style="stroke:#fcf3d9;stroke-width:5;stroke-opacity:1;stroke-linecap:round;stroke-linejoin:round;fill-opacity:0;"/>
  <line class="stroke-red stroke-dotted" data-name="line-red-dotted" x1="35.88" y1="232.52" x2="177.5" y2="186.51" style="stroke:#d42a20;stroke-width:5;stroke-opacity:1;stroke-linecap:butt;stroke-linejoin:round;stroke-dasharray:5;fill-opacity:0;"/>
  <line class="stroke-trans" data-name="line-blue-dotted-trans" x1="2.5" y1="129.64" x2="35.92" y2="232.51" style="stroke:#fcf3d9;stroke-width:5;stroke-opacity:1;stroke-linecap:round;stroke-linejoin:round;fill-opacity:0;"/>
  <line class="stroke-blue stroke-dotted" data-name="line-blue-dotted" x1="2.5" y1="129.64" x2="35.92" y2="232.51" style="stroke:#0e638e;stroke-width:5;stroke-opacity:1;stroke-linecap:butt;stroke-linejoin:round;stroke-dasharray:5;fill-opacity:0;"/>
  <path class="fill-black" data-name="angle-black-right" d="M267.23,310.01c-7.83,5.7-12.93,14.93-12.93,25.36h31.35L267.23,310.01z" style="fill:#000000;fill-opacity:1;stroke-opacity:0;"/>
  <path class="stroke-black stroke-thin" data-name="angle-outline-right" d="M285.66,335.37l9.69-29.82c-3.05-0.99-6.31-1.53-9.69-1.53c-6.89,0-13.25,2.23-18.43,5.99L285.66,335.37z" style="stroke:#000000;stroke-width:2;stroke-opacity:1;stroke-linecap:round;stroke-linejoin:round;fill-opacity:0;"/>
  <path class="fill-black" data-name="arc-black" d="M267.23,310.01l3.19,4.39c4.28-3.11,9.54-4.95,15.23-4.95c2.8,0,5.49,0.45,8.01,1.27l1.68-5.17c-3.05-0.99-6.31-1.53-9.69-1.53C278.77,304.02,272.4,306.24,267.23,310.01z" style="fill:#000000;fill-opacity:1;stroke-opacity:0;"/>
  <path class="stroke-black stroke-thin" data-name="angle-outline-left" d="M59.66,305.55l9.69,29.82l18.43-25.36" style="stroke:#000000;stroke-width:2;stroke-opacity:1;stroke-linecap:round;stroke-linejoin:round;fill-opacity:0;"/>
  <path class="fill-black" data-name="angle-black-left" d="M87.77,310.01l-18.43,25.36h31.35C100.7,324.94,95.6,315.71,87.77,310.01z" style="fill:#000000;fill-opacity:1;stroke-opacity:0;"/>
  <path class="fill-yellow" data-name="arc-yellow" d="M59.66,305.55l1.68,5.17c2.52-0.82,5.21-1.27,8.01-1.27c5.69,0,10.96,1.84,15.23,4.95l3.19-4.39c-5.17-3.76-11.54-5.99-18.43-5.99C65.96,304.02,62.71,304.56,59.66,305.55z" style="fill:#fac22b;fill-opacity:1;stroke-opacity:0;"/>
  <path class="stroke-black stroke-thin" data-name="corner-left" d="M146.15,335.37c13.69,0,31.35,0,31.35,0v-31.35" style="stroke:#000000;stroke-width:2;stroke-opacity:1;stroke-linecap:round;stroke-linejoin:round;fill-opacity:0;"/>
  <path class="stroke-black stroke-thin" data-name="corner-right" d="M177.5,304.02v31.35c0,0,17.66,0,31.35,0" style="stroke:#000000;stroke-width:2;stroke-opacity:1;stroke-linecap:round;stroke-linejoin:round;fill-opacity:0;"/>
  <line class="stroke-black" data-name="line-black-long" x1="177.5" y1="2.5" x2="2.5" y2="129.64" style="stroke:#000000;stroke-width:5;stroke-opacity:1;stroke-linecap:round;stroke-linejoin:round;fill-opacity:0;"/>
  <line class="stroke-black" data-name="line-black-long" x1="352.5" y1="129.64" x2="177.5" y2="2.5" style="stroke:#000000;stroke-width:5;stroke-opacity:1;stroke-linecap:round;stroke-linejoin:round;fill-opacity:0;"/>
  <line class="stroke-black" data-name="line-black-left" x1="35.92" y1="232.51" x2="69.34" y2="335.37" style="stroke:#000000;stroke-width:5;stroke-opacity:1;stroke-linecap:round;stroke-linejoin:round;fill-opacity:0;"/>
  <line class="stroke-black" data-name="line-black-long" x1="285.66" y1="335.37" x2="352.5" y2="129.64" style="stroke:#000000;stroke-width:5;stroke-opacity:1;stroke-linecap:round;stroke-linejoin:round;fill-opacity:0;"/>
  <line class="stroke-trans" data-name="line-black-dotted-trans" x1="177.5" y1="335.37" x2="177.5" y2="186.51" style="stroke:#fcf3d9;stroke-width:5;stroke-opacity:1;stroke-linecap:round;stroke-linejoin:round;fill-opacity:0;"/>
  <line class="stroke-black stroke-dotted" data-name="line-black-dotted" x1="177.5" y1="335.37" x2="177.5" y2="186.51" style="stroke:#000000;stroke-width:5;stroke-opacity:1;stroke-linecap:butt;stroke-linejoin:round;stroke-dasharray:5;fill-opacity:0;"/>
  <line class="stroke-black" data-name="line-black-right" x1="177.5" y1="186.51" x2="285.66" y2="335.37" style="stroke:#000000;stroke-width:5;stroke-opacity:1;stroke-linecap:round;stroke-linejoin:round;fill-opacity:0;"/>
  <line class="stroke-blue" data-name="line-blue" x1="69.34" y1="335.37" x2="177.5" y2="186.51" style="stroke:#0e638e;stroke-width:5;stroke-opacity:1;stroke-linecap:round;stroke-linejoin:round;fill-opacity:0;"/>
  <path class="stroke-blue stroke-thin" data-name="arc-blue-left" d="M177.5,304.02c-17.32,0-31.35,14.04-31.35,31.35" style="stroke:#0e638e;stroke-width:2;stroke-opacity:1;stroke-linecap:round;stroke-linejoin:round;fill-opacity:0;"/>
  <path class="stroke-blue stroke-thin" data-name="arc-blue-right" d="M208.85,335.37c0-17.32-14.04-31.35-31.35-31.35" style="stroke:#0e638e;stroke-width:2;stroke-opacity:1;stroke-linecap:round;stroke-linejoin:round;fill-opacity:0;"/>
  <line class="stroke-yellow" data-name="line-yellow" x1="177.5" y1="335.37" x2="285.66" y2="335.37" style="stroke:#fac22b;stroke-width:5;stroke-opacity:1;stroke-linecap:round;stroke-linejoin:round;fill-opacity:0;"/>
  <line class="stroke-red" data-name="line-red" x1="69.34" y1="335.37" x2="177.5" y2="335.37" style="stroke:#d42a20;stroke-width:5;stroke-opacity:1;stroke-linecap:round;stroke-linejoin:round;fill-opacity:0;"/>
</svg>