<svg xmlns="http://www.w3.org/2000/svg" viewBox="0 0 355 355" preserveAspectRatio="xMidYMid meet" role="img">
  <title>Proposition 27 figure</title>
  <path class="fill-blue" data-name="angle-blue-bottom" d="M177.5,177.5l44.18,69.26c9.62-6.15,17.89-14.24,24.22-23.74L177.5,177.5z" style="fill:#0e638e;fill-opacity:1;stroke-opacity:0;"/>
  <path class="fill-yellow" data-name="angle-yellow-bottom" d="M119.54,235.73c14.86,14.79,35.34,23.93,57.96,23.93c16.27,0,31.42-4.75,44.18-12.9L177.5,177.5L119.54,235.73z" style="fill:#fac22b;fill-opacity:1;stroke-opacity:0;"/>
  <path class="fill-blue" data-name="angle-blue-top" d="M206.51,4.9l16.38,80.53c5.66-1.14,11.09-2.88,16.26-5.12L206.51,4.9z" style="fill:#0e638e;fill-opacity:1;stroke-opacity:0;"/>
  <path class="fill-yellow" data-name="angle-yellow-top" d="M168.95,77.97c11.26,5.8,24.02,9.09,37.56,9.09c5.61,0,11.08-0.57,16.38-1.64L206.51,4.9L168.95,77.97z" style="fill:#fac22b;fill-opacity:1;stroke-opacity:0;"/>
  <line class="stroke-black stroke-thin" data-name="line-black-thin" x1="177.5" y1="177.5" x2="54.05" y2="301.53" style="stroke:#000000;stroke-width:2;stroke-opacity:1;stroke-linecap:round;stroke-linejoin:round;fill-opacity:0;"/>
  <line class="stroke-black stroke-thin" data-name="line-black-thin" x1="271.62" y1="325.06" x2="177.5" y2="177.5" style="stroke:#000000;stroke-width:2;stroke-opacity:1;stroke-linecap:round;stroke-linejoin:round;fill-opacity:0;"/>
  <line class="stroke-black stroke-thin" data-name="line-black-thin" x1="54.05" y1="301.53" x2="206.51" y2="4.9" style="stroke:#000000;stroke-width:2;stroke-opacity:1;stroke-linecap:round;stroke-linejoin:round;fill-opacity:0;"/>
  <line class="stroke-black stroke-thin" data-name="line-black-thin" x1="271.62" y1="325.06" x2="206.51" y2="4.9" style="stroke:#000000;stroke-width:2;stroke-opacity:1;stroke-linecap:round;stroke-linejoin:round;fill-opacity:0;"/>
  <line class="stroke-black stroke-thin" data-name="line-black-thin" x1="177.5" y1="177.5" x2="323.19" y2="274.47" style="stroke:#000000;stroke-width:2;stroke-opacity:1;stroke-linecap:round;stroke-linejoin:round;fill-opacity:0;"/>
  <line class="stroke-black stroke-thin" data-name="line-black-thin" x1="206.51" y1="4.9" x2="323.19" y2="274.47" style="stroke:#000000;stroke-width:2;stroke-opacity:1;stroke-linecap:round;stroke-linejoin:round;fill-opacity:0;"/>
  <circle class="stroke-red" data-name="circle-red" cx="177.5" cy="177.5" r="175" style="stroke:#d42a20;stroke-width:5;stroke-opacity:1;stroke-linecap:round;stroke-linejoin:round;fill-opacity:0;"/>
  <path class="stroke-trans" data-name="arc-red-dotted-trans" d="M323.2,274.47c-13.49,20.22-31.08,37.48-51.57,50.58" style="stroke:#fcf3d9;stroke-width:5;stroke-opacity:1;stroke-linecap:round;stroke-linejoin:round;fill-opacity:0;"/>
  <path class="stroke-red stroke-dotted" data-name="arc-red-dotted" d="M323.2,274.47c-13.49,20.22-31.08,37.48-51.57,50.58" style="stroke:#d42a20;stroke-width:5;stroke-opacity:1;stroke-linecap:butt;stroke-dasharray:5;fill-opacity:0;"/>
  <path class="stroke-black" data-name="arc-black" d="M271.62,325.06c-27.18,17.37-59.47,27.44-94.12,27.44c-48.18,0-91.81-19.47-123.46-50.97" style="stroke:#000000;stroke-width:5;stroke-opacity:1;stroke-linecap:round;stroke-linejoin:round;fill-opacity:0;"/>
</svg>
