<svg xmlns="http://www.w3.org/2000/svg" viewBox="0 0 355 200.01" preserveAspectRatio="xMidYMid meet" role="img">
  <title>Proposition 42 figure</title>
  <path class="fill-yellow" data-name="angle-yellow" d="M330.38,2.5c-13.92,7.77-23.34,22.64-23.34,39.71h45.46L330.38,2.5z" style="fill:#fac22b;fill-opacity:1;stroke-opacity:0;"/>
  <polygon class="fill-blue" data-name="tri-blue" points="228.68,197.51 183.33,116.1 284.09,2.5 " style="fill:#0e638e;fill-opacity:1;stroke-opacity:0;"/>
  <polygon class="fill-black" data-name="tri-black" points="352.5,197.51 228.68,197.51 284.09,2.5 " style="fill:#000000;fill-opacity:1;stroke-opacity:0;"/>
  <polygon class="fill-yellow" data-name="tri-yellow" points="228.68,197.51 111.12,197.51 183.33,116.1 " style="fill:#fac22b;fill-opacity:1;stroke-opacity:0;"/>
  <polygon class="fill-yellow" data-name="trap-yellow" points="2.5,2.5 120.05,2.5 183.33,116.1 111.12,197.51 " style="fill:#fac22b;fill-opacity:1;stroke-opacity:0;"/>
  <path class="fill-blue" data-name="angle-blue" d="M206.56,157.8c-13.92,7.77-23.34,22.64-23.34,39.71h45.46L206.56,157.8z" style="fill:#0e638e;fill-opacity:1;stroke-opacity:0;"/>
  <line class="stroke-red" data-name="line-red" x1="120.05" y1="2.5" x2="228.68" y2="197.51" style="stroke:#d42a20;stroke-width:5;stroke-opacity:1;stroke-linecap:round;stroke-linejoin:round;fill-opacity:0;"/>
  <line class="stroke-trans" data-name="line-red-dotted-trans" x1="111.12" y1="197.51" x2="2.5" y2="2.5" style="stroke:#fcf3d9;stroke-width:5;stroke-opacity:1;stroke-linecap:round;stroke-linejoin:round;fill-opacity:0;"/>
  <line class="stroke-red stroke-dotted" data-name="line-red-dotted" x1="111.12" y1="197.51" x2="2.5" y2="2.5" style="stroke:#d42a20;stroke-width:5;stroke-opacity:1;stroke-linecap:butt;stroke-linejoin:round;stroke-dasharray:5;fill-opacity:0;"/>
  <line class="stroke-trans" data-name="line-black-dotted-trans" x1="352.5" y1="197.51" x2="228.68" y2="197.51" style="stroke:#fcf3d9;stroke-width:5;stroke-opacity:1;stroke-linecap:round;stroke-linejoin:round;fill-opacity:0;"/>
  <line class="stroke-black stroke-dotted" data-name="line-black-dotted" x1="352.5" y1="197.51" x2="228.68" y2="197.51" style="stroke:#000000;stroke-width:5;stroke-opacity:1;stroke-linecap:butt;stroke-linejoin:round;stroke-dasharray:5;fill-opacity:0;"/>
  <line class="stroke-black" data-name="line-black-right" x1="284.09" y1="2.5" x2="352.5" y2="197.51" style="stroke:#000000;stroke-width:5;stroke-opacity:1;stroke-linecap:round;stroke-linejoin:round;fill-opacity:0;"/>
  <line class="stroke-yellow" data-name="line-yellow" x1="284.09" y1="2.5" x2="228.68" y2="197.51" style="stroke:#fac22b;stroke-width:5;stroke-opacity:1;stroke-linecap:round;stroke-linejoin:round;fill-opacity:0;"/>
  <line class="stroke-black" data-name="line-black-bottom" x1="228.68" y1="197.51" x2="111.12" y2="197.51" style="stroke:#000000;stroke-width:5;stroke-opacity:1;stroke-linecap:round;stroke-linejoin:round;fill-opacity:0;"/>
  <line class="stroke-blue" data-name="line-blue" x1="284.09" y1="2.5" x2="2.5" y2="2.5" style="stroke:#0e638e;stroke-width:5;stroke-opacity:1;stroke-linecap:round;stroke-linejoin:round;fill-opacity:0;"/>
</svg>