<svg xmlns="http://www.w3.org/2000/svg" viewBox="0 0 355 355" preserveAspectRatio="xMidYMid meet" role="img">
  <title>Proposition 32 figure</title>
  <path class="stroke-black stroke-thin" data-name="angle-outline-left" d="M177.5,304.45c-26.54,0-48.05,21.51-48.05,48.05h48.05V304.45z" style="stroke:#000000;stroke-width:2;stroke-opacity:1;stroke-linecap:round;stroke-linejoin:round;fill-opacity:0;"/>
  <path class="stroke-black stroke-thin" data-name="angle-outline-right" d="M310,111.23c3.06,0,6.05-0.3,8.95-0.85L310,63.18l-20.01,43.69C296.09,109.66,302.86,111.23,310,111.23z" style="stroke:#000000;stroke-width:2;stroke-opacity:1;stroke-linecap:round;stroke-linejoin:round;fill-opacity:0;"/>
  <path class="fill-red" data-name="angle-red" d="M333.72,188.24c-22.26,4.2-39.1,23.73-39.1,47.21c0,10.35,3.29,19.93,8.86,27.78l39.2-27.78L333.72,188.24z" style="fill:#d42a20;fill-opacity:1;stroke-opacity:0;"/>
  <path class="fill-black" data-name="angle-black" d="M266.31,43.17c-2.8,6.09-4.37,12.87-4.37,20.01c0,19.4,11.5,36.1,28.05,43.69L310,63.18L266.31,43.17z" style="fill:#000000;fill-opacity:1;stroke-opacity:0;"/>
  <path class="fill-yellow" data-name="angle-yellow-top" d="M221.19,22.51L177.5,2.5v48.05C196.9,50.55,213.6,39.05,221.19,22.51z" style="fill:#fac22b;fill-opacity:1;stroke-opacity:0;"/>
  <path class="fill-blue" data-name="angle-blue" d="M197.51,308.81c-6.09-2.8-12.87-4.37-20.01-4.37v48.05L197.51,308.81z" style="fill:#0e638e;fill-opacity:1;stroke-opacity:0;"/>
  <path class="fill-yellow" data-name="angle-yellow-bottom" d="M197.51,308.81L177.5,352.5h48.05C225.55,333.1,214.05,316.4,197.51,308.81z" style="fill:#fac22b;fill-opacity:1;stroke-opacity:0;"/>
  <line class="stroke-blue" data-name="line-blue" x1="2.5" y1="352.5" x2="352.5" y2="352.5" style="stroke:#0e638e;stroke-width:5;stroke-opacity:1;stroke-linecap:round;stroke-linejoin:round;fill-opacity:0;"/>
  <line class="stroke-black" data-name="line-black" x1="177.5" y1="352.5" x2="177.5" y2="2.5" style="stroke:#000000;stroke-width:5;stroke-opacity:1;stroke-linecap:round;stroke-linejoin:round;fill-opacity:0;"/>
  <line class="stroke-red" data-name="line-red" x1="177.5" y1="352.5" x2="310" y2="63.18" style="stroke:#d42a20;stroke-width:5;stroke-opacity:1;stroke-linecap:round;stroke-linejoin:round;fill-opacity:0;"/>
  <line class="stroke-black stroke-thin" data-name="line-black-thin" x1="177.5" y1="352.5" x2="342.68" y2="235.44" style="stroke:#000000;stroke-width:2;stroke-opacity:1;stroke-linecap:round;stroke-linejoin:round;fill-opacity:0;"/>
  <line class="stroke-black stroke-thin" data-name="line-black-thin" x1="342.68" y1="235.44" x2="310" y2="63.18" style="stroke:#000000;stroke-width:2;stroke-opacity:1;stroke-linecap:round;stroke-linejoin:round;fill-opacity:0;"/>
  <line class="stroke-black stroke-thin" data-name="line-black-thin" x1="310" y1="63.18" x2="177.5" y2="2.5" style="stroke:#000000;stroke-width:2;stroke-opacity:1;stroke-linecap:round;stroke-linejoin:round;fill-opacity:0;"/>
  <circle class="stroke-red" data-name="circle" cx="177.5" cy="177.5" r="175" style="stroke:#d42a20;stroke-width:5;stroke-opacity:1;stroke-linecap:round;stroke-linejoin:round;fill-opacity:0;"/>
  <path class="fill-black" data-name="arc" d="M177.5,314.56v-10.11c-26.54,0-48.05,21.51-48.05,48.05h10.11C139.56,331.55,156.55,314.56,177.5,314.56z" style="fill:#000000;fill-opacity:1;stroke-opacity:0;"/>
</svg>