<svg xmlns="http://www.w3.org/2000/svg" viewBox="0 0 355 228.3" preserveAspectRatio="xMidYMid meet" role="img">
  <title>Proposition 23 figure</title>
  <path class="fill-blue" data-name="angle-blue" d="M153.42,34.46c6.7,5.06,15.04,8.06,24.08,8.06c9.04,0,17.38-3,24.08-8.06L177.5,2.5L153.42,34.46z" style="fill:#0e638e;fill-opacity:1;stroke-opacity:0;"/>
  <path class="fill-yellow" data-name="angle-yellow" d="M232.3,75.23l-29.52,19.93c6.4,9.47,17.24,15.69,29.52,15.69c8.05,0,15.47-2.67,21.43-7.17C246.57,94.16,232.3,75.23,232.3,75.23z" style="fill:#fac22b;fill-opacity:1;stroke-opacity:0;"/>
  <line class="stroke-blue" data-name="line-blue" x1="9.25" y1="225.8" x2="232.3" y2="75.23" style="stroke:#0e638e;stroke-width:5;stroke-opacity:1;stroke-linecap:round;stroke-linejoin:round;fill-opacity:0;"/>
  <path class="stroke-red" data-name="curve-red" d="M9.25,225.8C13.82,136.84,87.4,66.12,177.5,66.12s163.68,70.72,168.25,159.68" style="stroke:#d42a20;stroke-width:5;stroke-opacity:1;stroke-linecap:round;stroke-linejoin:round;fill-opacity:0;"/>
  <line class="stroke-yellow" data-name="line-yellow" x1="177.5" y1="2.5" x2="9.25" y2="225.8" style="stroke:#fac22b;stroke-width:5;stroke-opacity:1;stroke-linecap:round;stroke-linejoin:round;fill-opacity:0;"/>
  <line class="stroke-red" data-name="line-red" x1="345.75" y1="225.8" x2="177.5" y2="2.5" style="stroke:#d42a20;stroke-width:5;stroke-opacity:1;stroke-linecap:round;stroke-linejoin:round;fill-opacity:0;"/>
  <path class="stroke-blue" data-name="curve-blue" d="M9.25,225.8c-4.4-15.34-6.75-31.54-6.75-48.3c0-96.65,78.35-175,175-175s175,78.35,175,175c0,16.75-2.35,32.96-6.75,48.3" style="stroke:#0e638e;stroke-width:5;stroke-opacity:1;stroke-linecap:round;stroke-linejoin:round;fill-opacity:0;"/>
  <line class="stroke-black" data-name="line-black" x1="9.25" y1="225.8" x2="345.75" y2="225.8" style="stroke:#000000;stroke-width:5;stroke-opacity:1;stroke-linecap:round;stroke-linejoin:round;fill-opacity:0;"/>
</svg>