<svg xmlns="http://www.w3.org/2000/svg" viewBox="0 0 355 355" preserveAspectRatio="xMidYMid meet" role="img">
  <title>Proposition 11 figure</title>
  <path class="stroke-black stroke-thin" data-name="angle-outline-thin" d="M28.48,177.14c22.64-7.36,39-28.62,39-53.71c0-12.4-4-23.87-10.78-33.19l-45.69,33.19L28.48,177.14z" style="stroke:#000000;stroke-width:2;stroke-opacity:1;stroke-linecap:round;stroke-linejoin:round;fill-opacity:0;"/>
  <path class="stroke-black stroke-thin" data-name="angle-outline-thin" d="M223.19,35.69L177.5,2.5l-45.69,33.19c10.27,14.11,26.91,23.28,45.69,23.28S212.92,49.8,223.19,35.69z" style="stroke:#000000;stroke-width:2;stroke-opacity:1;stroke-linecap:round;stroke-linejoin:round;fill-opacity:0;"/>
  <path class="stroke-black stroke-thin" data-name="angle-outline-thin" d="M280.36,319.08l17.47-53.71c-5.5-1.79-11.37-2.76-17.47-2.76c-6.09,0-11.96,0.97-17.45,2.75L280.36,319.08z" style="stroke:#000000;stroke-width:2;stroke-opacity:1;stroke-linecap:round;stroke-linejoin:round;fill-opacity:0;"/>
  <path class="stroke-black stroke-thin" data-name="angle-outline-thin" d="M298.3,90.24c-6.78,9.32-10.78,20.78-10.78,33.19c0,25.09,16.37,46.36,39,53.71l17.47-53.71L298.3,90.24z" style="stroke:#000000;stroke-width:2;stroke-opacity:1;stroke-linecap:round;stroke-linejoin:round;fill-opacity:0;"/>
  <polygon class="fill-yellow" data-name="triangle" points="177.5,2.5 74.64,319.08 280.36,319.08 " style="fill:#fac22b;fill-opacity:1;stroke-opacity:0;"/>
  <line class="stroke-black stroke-thin" data-name="line-black-thin" x1="216.79" y1="123.42" x2="343.99" y2="123.42" style="stroke:#000000;stroke-width:2;stroke-opacity:1;stroke-linecap:round;stroke-linejoin:round;fill-opacity:0;"/>
  <line class="stroke-trans stroke-thin" data-name="line-trans-thin" x1="138.21" y1="123.42" x2="216.79" y2="123.42" style="stroke:#fcf3d9;stroke-width:2;stroke-opacity:1;stroke-linecap:round;stroke-linejoin:round;fill-opacity:0;"/>
  <line class="stroke-black stroke-thin" data-name="line-black-thin" x1="11.01" y1="123.42" x2="138.21" y2="123.42" style="stroke:#000000;stroke-width:2;stroke-opacity:1;stroke-linecap:round;stroke-linejoin:round;fill-opacity:0;"/>
  <line class="stroke-trans stroke-thin" data-name="line-trans-thin" x1="113.92" y1="198.18" x2="280.36" y2="319.08" style="stroke:#fcf3d9;stroke-width:2;stroke-opacity:1;stroke-linecap:round;stroke-linejoin:round;fill-opacity:0;"/>
  <line class="stroke-black stroke-thin" data-name="line-black-thin" x1="11.01" y1="123.42" x2="113.92" y2="198.18" style="stroke:#000000;stroke-width:2;stroke-opacity:1;stroke-linecap:round;stroke-linejoin:round;fill-opacity:0;"/>
  <line class="stroke-trans stroke-thin" data-name="line-trans-thin" x1="241.08" y1="198.18" x2="74.64" y2="319.08" style="stroke:#fcf3d9;stroke-width:2;stroke-opacity:1;stroke-linecap:round;stroke-linejoin:round;fill-opacity:0;"/>
  <line class="stroke-black stroke-thin" data-name="line-black-thin" x1="343.99" y1="123.42" x2="241.08" y2="198.18" style="stroke:#000000;stroke-width:2;stroke-opacity:1;stroke-linecap:round;stroke-linejoin:round;fill-opacity:0;"/>
  <path class="fill-yellow" data-name="angle-yellow" d="M120.33,285.89c-6.94-9.53-16.79-16.81-28.24-20.53l-17.45,53.72L120.33,285.89z" style="fill:#fac22b;fill-opacity:1;stroke-opacity:0;"/>
  <line class="stroke-blue" data-name="line-blue" x1="177.5" y1="2.5" x2="11.01" y2="123.42" style="stroke:#0e638e;stroke-width:5;stroke-opacity:1;stroke-linecap:round;stroke-linejoin:round;fill-opacity:0;"/>
  <line class="stroke-yellow" data-name="line-yellow" x1="343.99" y1="123.42" x2="177.5" y2="2.5" style="stroke:#fac22b;stroke-width:5;stroke-opacity:1;stroke-linecap:round;stroke-linejoin:round;fill-opacity:0;"/>
  <path class="fill-red" data-name="angle-red" d="M234.68,285.89c-6.78,9.32-10.78,20.78-10.78,33.19h56.47L234.68,285.89z" style="fill:#d42a20;fill-opacity:1;stroke-opacity:0;"/>
  <path class="fill-blue" data-name="angle-blue" d="M74.64,319.08h56.48c0-12.41-4-23.88-10.79-33.19L74.64,319.08z" style="fill:#0e638e;fill-opacity:1;stroke-opacity:0;"/>
  <line class="stroke-trans" data-name="line-red-dotted-trans" x1="280.36" y1="319.08" x2="343.99" y2="123.42" style="stroke:#fcf3d9;stroke-width:5;stroke-opacity:1;stroke-linecap:round;stroke-linejoin:round;fill-opacity:0;"/>
  <line class="stroke-red stroke-dotted" data-name="line-red-dotted" x1="280.36" y1="319.08" x2="343.99" y2="123.42" style="stroke:#d42a20;stroke-width:5;stroke-opacity:1;stroke-linecap:butt;stroke-linejoin:round;stroke-dasharray:5;fill-opacity:0;"/>
  <path class="fill-black" data-name="angle-black" d="M160.05,56.22c5.5,1.78,11.36,2.75,17.45,2.75s11.96-0.97,17.45-2.75L177.5,2.5L160.05,56.22z" style="fill:#000000;fill-opacity:1;stroke-opacity:0;"/>
  <path class="stroke-black stroke-thin" data-name="arc-thin" d="M120.33,285.89c-10.27-14.11-26.9-23.28-45.68-23.28c-6.1,0-11.97,0.97-17.47,2.76" style="stroke:#000000;stroke-width:2;stroke-opacity:1;stroke-linecap:round;stroke-linejoin:round;fill-opacity:0;"/>
  <line class="stroke-red" data-name="line-red" x1="11.01" y1="123.42" x2="74.64" y2="319.08" style="stroke:#d42a20;stroke-width:5;stroke-opacity:1;stroke-linecap:round;stroke-linejoin:round;fill-opacity:0;"/>
  <line class="stroke-black" data-name="line-black" x1="74.64" y1="319.08" x2="280.36" y2="319.08" style="stroke:#000000;stroke-width:5;stroke-opacity:1;stroke-linecap:round;stroke-linejoin:round;fill-opacity:0;"/>
  <path class="fill-trans" data-name="angle-outline-trans" d="M280.36,319.08l-17.45-53.72c-11.45,3.72-21.3,11-28.23,20.53L280.36,319.08z" style="fill:#fcf3d9;fill-opacity:1;stroke-opacity:0;"/>
  <path class="stroke-black stroke-thin" data-name="angle-outline" d="M280.36,319.08l-17.45-53.72c-11.45,3.72-21.3,11-28.23,20.53L280.36,319.08z" style="stroke:#000000;stroke-width:2;stroke-opacity:1;stroke-linecap:round;stroke-linejoin:round;fill-opacity:0;"/>
  <path class="fill-black" data-name="arc" d="M240.97,290.46c5.98-8.22,14.47-14.49,24.35-17.7l-2.4-7.4c-11.45,3.72-21.3,11-28.23,20.53L240.97,290.46z" style="fill:#000000;fill-opacity:1;stroke-opacity:0;"/>
  <circle class="stroke-blue" data-name="circle" cx="177.5" cy="177.5" r="175" style="stroke:#0e638e;stroke-width:5;stroke-opacity:1;stroke-linecap:round;stroke-linejoin:round;fill-opacity:0;"/>
</svg>