<svg xmlns="http://www.w3.org/2000/svg" viewBox="0 0 355 320.32" preserveAspectRatio="xMidYMid meet" role="img">
  <title>Proposition 6 figure</title>
  <path class="fill-blue" data-name="angle-blue-left" d="M32.53,193.3c9.02-8.18,14.69-20,14.69-33.14H2.5L32.53,193.3z" style="fill:#0e638e;fill-opacity:1;stroke-opacity:0;"/>
  <path class="stroke-black stroke-thin" data-name="angle-outline-blue" d="M32.53,127.02L2.5,160.16h44.72C47.22,147.02,41.56,135.21,32.53,127.02z" style="stroke:#000000;stroke-width:2;stroke-opacity:1;stroke-linecap:round;stroke-linejoin:round;fill-opacity:0;"/>
  <path class="fill-blue stroke-blue stroke-thin" data-name="arc-blue" d="M32.53,127.02l-6.12,6.75c7.18,6.51,11.7,15.92,11.7,26.38h9.11C47.22,147.02,41.56,135.21,32.53,127.02z" style="fill:#0e638e;fill-opacity:1;stroke:#0e638e;stroke-width:2;stroke-opacity:1;stroke-linecap:round;stroke-linejoin:round;"/>
  <path class="stroke-black stroke-thin" data-name="angle-outline-yellow" d="M115.36,35.64c7.94,7.2,18.47,11.59,30.03,11.59c4.1,0,8.06-0.56,11.83-1.59L145.39,2.5L115.36,35.64z" style="stroke:#000000;stroke-width:2;stroke-opacity:1;stroke-linecap:round;stroke-linejoin:round;fill-opacity:0;"/>
  <path class="fill-yellow stroke-yellow stroke-thin" data-name="arc-yellow" d="M157.22,45.63l-2.41-8.79c-3,0.82-6.16,1.27-9.42,1.27c-9.2,0-17.59-3.49-23.91-9.22l-6.12,6.75c7.94,7.2,18.47,11.59,30.03,11.59C149.49,47.22,153.45,46.66,157.22,45.63z" style="fill:#fac22b;fill-opacity:1;stroke:#fac22b;stroke-width:2;stroke-opacity:1;stroke-linecap:round;stroke-linejoin:round;"/>
  <path class="fill-black" data-name="angle-black" d="M145.39,317.82l9.42-34.34c-3-0.82-6.16-1.27-9.42-1.27c-9.2,0-17.59,3.49-23.91,9.22L145.39,317.82z" style="fill:#000000;fill-opacity:1;stroke-opacity:0;"/>
  <path class="fill-blue" data-name="angle-blue-right" d="M203.7,250.82l-30.06,33.16h44.76C218.4,270.83,212.73,259,203.7,250.82z" style="fill:#0e638e;fill-opacity:1;stroke-opacity:0;"/>
  <path class="fill-red" data-name="angle-red-right" d="M340.66,240.82c-18.97,5.19-32.92,22.54-32.92,43.16h44.76L340.66,240.82z" style="fill:#d42a20;fill-opacity:1;stroke-opacity:0;"/>
  <path class="fill-yellow" data-name="angle-yellow" d="M280.89,165.64c7.94,7.2,18.49,11.59,30.06,11.59c4.1,0,8.07-0.56,11.84-1.59l-11.84-43.16L280.89,165.64z" style="fill:#fac22b;fill-opacity:1;stroke-opacity:0;"/>
  <path class="fill-red" data-name="angle-red-left" d="M176.8,203.29l11.83-43.13h-44.72C143.91,180.76,157.85,198.1,176.8,203.29z" style="fill:#d42a20;fill-opacity:1;stroke-opacity:0;"/>
  <path class="stroke-black stroke-thin" data-name="angle-outline-red" d="M176.8,117.03c-18.96,5.19-32.89,22.53-32.89,43.13h44.72L176.8,117.03z" style="stroke:#000000;stroke-width:2;stroke-opacity:1;stroke-linecap:round;stroke-linejoin:round;fill-opacity:0;"/>
  <path class="fill-red stroke-red stroke-thin" data-name="arc-red" d="M179.21,125.82l-2.41-8.79c-18.96,5.19-32.89,22.53-32.89,43.13h9.11C153.02,143.76,164.12,129.95,179.21,125.82z" style="fill:#d42a20;fill-opacity:1;stroke:#d42a20;stroke-width:2;stroke-opacity:1;stroke-linecap:round;stroke-linejoin:round;"/>
  <line class="stroke-trans" data-name="line-blue-dotted-trans" x1="352.5" y1="283.98" x2="310.95" y2="132.48" style="stroke:#fcf3d9;stroke-width:5;stroke-opacity:1;stroke-linecap:round;stroke-linejoin:round;fill-opacity:0;"/>
  <line class="stroke-blue stroke-dotted" data-name="line-blue-dotted" x1="352.5" y1="283.98" x2="310.95" y2="132.48" style="stroke:#0e638e;stroke-width:5;stroke-opacity:1;stroke-linecap:butt;stroke-linejoin:round;stroke-dasharray:5;fill-opacity:0;"/>
  <line class="stroke-trans" data-name="line-black-dotted-trans" x1="173.64" y1="283.98" x2="352.5" y2="283.98" style="stroke:#fcf3d9;stroke-width:5;stroke-opacity:1;stroke-linecap:round;stroke-linejoin:round;fill-opacity:0;"/>
  <line class="stroke-black stroke-dotted" data-name="line-black-dotted" x1="173.64" y1="283.98" x2="352.5" y2="283.98" style="stroke:#000000;stroke-width:5;stroke-opacity:1;stroke-linecap:butt;stroke-linejoin:round;stroke-dasharray:5;fill-opacity:0;"/>
  <path class="stroke-trans" data-name="line-red-dotted-trans" d="M310.95,132.48l-137.31,151.5L310.95,132.48z" style="stroke:#fcf3d9;stroke-width:5;stroke-opacity:1;stroke-linecap:round;stroke-linejoin:round;fill-opacity:0;"/>
  <line class="stroke-red stroke-dotted" data-name="line-red-dotted" x1="310.95" y1="132.48" x2="173.64" y2="283.98" style="stroke:#d42a20;stroke-width:5;stroke-opacity:1;stroke-linecap:butt;stroke-linejoin:round;stroke-dasharray:5;fill-opacity:0;"/>
  <line class="stroke-red" data-name="line-red" x1="145.39" y1="2.5" x2="2.5" y2="160.16" style="stroke:#d42a20;stroke-width:5;stroke-opacity:1;stroke-linecap:round;stroke-linejoin:round;fill-opacity:0;"/>
  <line class="stroke-blue" data-name="line-blue" x1="188.63" y1="160.16" x2="145.39" y2="2.5" style="stroke:#0e638e;stroke-width:5;stroke-opacity:1;stroke-linecap:round;stroke-linejoin:round;fill-opacity:0;"/>
  <line class="stroke-yellow" data-name="line-yellow" x1="145.39" y1="317.82" x2="2.5" y2="160.16" style="stroke:#fac22b;stroke-width:5;stroke-opacity:1;stroke-linecap:round;stroke-linejoin:round;fill-opacity:0;"/>
  <line class="stroke-trans" data-name="line-yellow-dotted-trans" x1="188.63" y1="160.16" x2="145.39" y2="317.82" style="stroke:#fcf3d9;stroke-width:5;stroke-opacity:1;stroke-linecap:round;stroke-linejoin:round;fill-opacity:0;"/>
  <line class="stroke-yellow stroke-dotted" data-name="line-yellow-dotted" x1="188.63" y1="160.16" x2="145.39" y2="317.82" style="stroke:#fac22b;stroke-width:5;stroke-opacity:1;stroke-linecap:butt;stroke-linejoin:round;stroke-dasharray:5;fill-opacity:0;"/>
  <line class="stroke-black" data-name="line-black" x1="2.5" y1="160.16" x2="188.63" y2="160.16" style="stroke:#000000;stroke-width:5;stroke-opacity:1;stroke-linecap:round;stroke-linejoin:round;fill-opacity:0;"/>
</svg>