<svg xmlns="http://www.w3.org/2000/svg" viewBox="0 0 355 355" preserveAspectRatio="xMidYMid meet" role="img">
  <title>Proposition 15 figure 1</title>
  <path class="fill-red" data-name="angle-red-right" d="M226.29,159.74c-2.98-8.19-7.97-15.41-14.37-21.08L177.5,177.5L226.29,159.74z" style="fill:#d42a20;fill-opacity:1;stroke-opacity:0;"/>
  <path class="fill-yellow" data-name="angle-yellow" d="M177.5,177.5l34.42-38.84c-9.16-8.12-21.21-13.07-34.42-13.07c-13.21,0-25.26,4.94-34.42,13.07L177.5,177.5z" style="fill:#fac22b;fill-opacity:1;stroke-opacity:0;"/>
  <path class="fill-red" data-name="angle-red-left" d="M177.5,177.5l-34.42-38.84c-6.4,5.67-11.39,12.89-14.37,21.08L177.5,177.5z" style="fill:#d42a20;fill-opacity:1;stroke-opacity:0;"/>
  <line class="stroke-yellow" data-name="line-yellow" x1="177.5" y1="177.5" x2="13.01" y2="117.63" style="stroke:#fac22b;stroke-width:5;stroke-opacity:1;stroke-linecap:round;stroke-linejoin:round;fill-opacity:0;"/>
  <line class="stroke-trans" data-name="line-yellow-dotted-trans" x1="177.5" y1="177.5" x2="341.99" y2="117.63" style="stroke:#fcf3d9;stroke-width:5;stroke-opacity:1;stroke-linecap:round;stroke-linejoin:round;fill-opacity:0;"/>
  <line class="stroke-yellow stroke-dotted" data-name="line-yellow-dotted" x1="177.5" y1="177.5" x2="341.99" y2="117.63" style="stroke:#fac22b;stroke-width:5;stroke-opacity:1;stroke-linecap:butt;stroke-linejoin:round;stroke-dasharray:5;fill-opacity:0;"/>
  <line class="stroke-red stroke-dotted" data-name="line-red-dotted" x1="61.44" y1="46.52" x2="293.56" y2="46.52" style="stroke:#d42a20;stroke-width:5;stroke-opacity:1;stroke-linecap:butt;stroke-linejoin:round;stroke-dasharray:5;fill-opacity:0;"/>
  <line class="stroke-trans" data-name="line-black-dotted-trans" x1="177.5" y1="177.5" x2="61.44" y2="46.52" style="stroke:#fcf3d9;stroke-width:5;stroke-opacity:1;stroke-linecap:round;stroke-linejoin:round;fill-opacity:0;"/>
  <line class="stroke-black stroke-dotted" data-name="line-black-dotted" x1="177.5" y1="177.5" x2="61.44" y2="46.52" style="stroke:#000000;stroke-width:5;stroke-opacity:1;stroke-linecap:butt;stroke-linejoin:round;stroke-dasharray:5;fill-opacity:0;"/>
  <line class="stroke-trans" data-name="line-blue-dotted-trans" x1="293.56" y1="46.52" x2="177.5" y2="177.5" style="stroke:#fcf3d9;stroke-width:5;stroke-opacity:1;stroke-linecap:round;stroke-linejoin:round;fill-opacity:0;"/>
  <line class="stroke-blue stroke-dotted" data-name="line-blue-dotted" x1="293.56" y1="46.52" x2="177.5" y2="177.5" style="stroke:#0e638e;stroke-width:5;stroke-opacity:1;stroke-linecap:butt;stroke-linejoin:round;stroke-dasharray:5;fill-opacity:0;"/>
  <line class="stroke-blue" data-name="line-blue" x1="13.01" y1="117.63" x2="341.99" y2="117.63" style="stroke:#0e638e;stroke-width:5;stroke-opacity:1;stroke-linecap:round;stroke-linejoin:round;fill-opacity:0;"/>
  <line class="stroke-red" data-name="line-red" x1="2.5" y1="177.5" x2="177.5" y2="177.5" style="stroke:#d42a20;stroke-width:5;stroke-opacity:1;stroke-linecap:round;stroke-linejoin:round;fill-opacity:0;"/>
  <line class="stroke-black" data-name="line-black" x1="177.5" y1="177.5" x2="352.5" y2="177.5" style="stroke:#000000;stroke-width:5;stroke-opacity:1;stroke-linecap:round;stroke-linejoin:round;fill-opacity:0;"/>
  <circle class="stroke-black" data-name="circle" cx="177.5" cy="177.5" r="175" style="stroke:#000000;stroke-width:5;stroke-opacity:1;stroke-linecap:round;stroke-linejoin:round;fill-opacity:0;"/>
</svg>