<svg xmlns="http://www.w3.org/2000/svg" viewBox="0 0 355 205.79" preserveAspectRatio="xMidYMid meet" role="img">
  <title>Proposition 4 figure</title>
  <path class="fill-yellow" data-name="angle-yellow" d="M2.5,203.29h51.02c0-12.75-4.67-24.4-12.4-33.34L2.5,203.29z" style="fill:#fac22b;fill-opacity:1;stroke-opacity:0;"/>
  <path class="fill-red" data-name="angle-red" d="M142.92,203.29h49.25c0-12.3-4.51-23.56-11.97-32.19L142.92,203.29z" style="fill:#d42a20;fill-opacity:1;stroke-opacity:0;"/>
  <path class="fill-black" data-name="angle-black" d="M327.63,160.78c-14.58,8.55-24.38,24.39-24.38,42.51h49.25L327.63,160.78z" style="fill:#000000;fill-opacity:1;stroke-opacity:0;"/>
  <path class="fill-blue" data-name="angle-blue" d="M121.33,166.4c-12.66,7.42-21.17,21.16-21.17,36.9h42.75L121.33,166.4z" style="fill:#0e638e;fill-opacity:1;stroke-opacity:0;"/>
  <path class="stroke-black stroke-thin" data-name="angle-outline-left" d="M95.79,122.74L71.2,143.97c5.96,6.9,14.76,11.27,24.59,11.27c5.99,0,11.59-1.63,16.41-4.45L95.79,122.74z" style="stroke:#000000;stroke-width:2;stroke-opacity:1;stroke-linecap:round;stroke-linejoin:round;fill-opacity:0;"/>
  <path class="fill-black stroke-black stroke-thin" data-name="arc-black" d="M95.79,155.24c5.99,0,11.59-1.63,16.41-4.45l-3.79-6.47c-3.71,2.17-8.02,3.42-12.62,3.42c-7.56,0-14.33-3.36-18.92-8.67l-5.68,4.9C77.16,150.87,85.96,155.24,95.79,155.24z" style="fill:#000000;fill-opacity:1;stroke:#000000;stroke-width:2;stroke-opacity:1;stroke-linecap:round;stroke-linejoin:round;"/>
  <path class="stroke-black stroke-thin" data-name="angle-outline-right" d="M282.16,83.06l-29.32,25.32c7.11,8.22,17.6,13.43,29.32,13.43c7.14,0,13.82-1.94,19.56-5.31L282.16,83.06z" style="stroke:#000000;stroke-width:2;stroke-opacity:1;stroke-linecap:round;stroke-linejoin:round;fill-opacity:0;"/>
  <path class="fill-red stroke-red stroke-thin" data-name="arc-red" d="M282.16,121.81c7.14,0,13.82-1.94,19.56-5.31l-3.79-6.47c-4.63,2.72-10.02,4.28-15.78,4.28c-9.45,0-17.92-4.2-23.65-10.83l-5.68,4.9C259.95,116.6,270.44,121.81,282.16,121.81z" style="fill:#d42a20;fill-opacity:1;stroke:#d42a20;stroke-width:2;stroke-opacity:1;stroke-linecap:round;stroke-linejoin:round;"/>
  <line class="stroke-trans" data-name="line-red-dotted-trans" x1="282.16" y1="83.06" x2="352.5" y2="203.29" style="stroke:#fcf3d9;stroke-width:5;stroke-opacity:1;stroke-linecap:round;stroke-linejoin:round;fill-opacity:0;"/>
  <line class="stroke-red stroke-dotted" data-name="line-red-dotted" x1="282.16" y1="83.06" x2="352.5" y2="203.29" style="stroke:#d42a20;stroke-width:5;stroke-opacity:1;stroke-linecap:butt;stroke-linejoin:round;stroke-dasharray:5;fill-opacity:0;"/>
  <line class="stroke-trans" data-name="line-blue-dotted-trans" x1="142.92" y1="203.29" x2="282.16" y2="83.06" style="stroke:#fcf3d9;stroke-width:5;stroke-opacity:1;stroke-linecap:round;stroke-linejoin:round;fill-opacity:0;"/>
  <line class="stroke-blue stroke-dotted" data-name="line-blue-dotted" x1="142.92" y1="203.29" x2="282.16" y2="83.06" style="stroke:#0e638e;stroke-width:5;stroke-opacity:1;stroke-linecap:butt;stroke-linejoin:round;stroke-dasharray:5;fill-opacity:0;"/>
  <line class="stroke-yellow stroke-dotted" data-name="line-yellow-dotted" x1="95.79" y1="122.74" x2="235.04" y2="2.5" style="stroke:#fac22b;stroke-width:5;stroke-opacity:1;stroke-linecap:butt;stroke-linejoin:round;stroke-dasharray:5;fill-opacity:0;"/>
  <line class="stroke-trans" data-name="line-black-dotted-trans" x1="142.92" y1="203.29" x2="352.5" y2="203.29" style="stroke:#fcf3d9;stroke-width:5;stroke-opacity:1;stroke-linecap:round;stroke-linejoin:round;fill-opacity:0;"/>
  <line class="stroke-black stroke-dotted" data-name="line-black-dotted" x1="142.92" y1="203.29" x2="352.5" y2="203.29" style="stroke:#000000;stroke-width:5;stroke-opacity:1;stroke-linecap:butt;stroke-linejoin:round;stroke-dasharray:5;fill-opacity:0;"/>
  <line class="stroke-red" data-name="line-red" x1="95.79" y1="122.74" x2="142.92" y2="203.29" style="stroke:#d42a20;stroke-width:5;stroke-opacity:1;stroke-linecap:round;stroke-linejoin:round;fill-opacity:0;"/>
  <line class="stroke-blue" data-name="line-blue" x1="2.5" y1="203.29" x2="95.79" y2="122.74" style="stroke:#0e638e;stroke-width:5;stroke-opacity:1;stroke-linecap:round;stroke-linejoin:round;fill-opacity:0;"/>
  <line class="stroke-yellow" data-name="line-yellow" x1="235.04" y1="2.5" x2="282.16" y2="83.06" style="stroke:#fac22b;stroke-width:5;stroke-opacity:1;stroke-linecap:round;stroke-linejoin:round;fill-opacity:0;"/>
  <line class="stroke-black" data-name="line-black" x1="2.5" y1="203.29" x2="142.92" y2="203.29" style="stroke:#000000;stroke-width:5;stroke-opacity:1;stroke-linecap:round;stroke-linejoin:round;fill-opacity:0;"/>
</svg>