<svg xmlns="http://www.w3.org/2000/svg" viewBox="0 0 355 355" preserveAspectRatio="xMidYMid meet" role="img">
  <title>Proposition 21 figure 1</title>
  <path class="fill-yellow" data-name="angle-yellow" d="M232.81,208.74L177.5,177.5l-55.28,31.31c10.92,19.23,31.58,32.21,55.28,32.21C201.22,241.02,221.91,228.01,232.81,208.74z" style="fill:#fac22b;fill-opacity:1;stroke-opacity:0;"/>
  <path class="fill-red" data-name="angle-red" d="M112.91,69.75c8.76,3.97,18.49,6.18,28.73,6.18c15.41,0,29.65-5,41.2-13.47l-41.2-56.27L112.91,69.75z" style="fill:#d42a20;fill-opacity:1;stroke-opacity:0;"/>
  <path class="fill-blue" data-name="angle-blue" d="M272,30.19l-50.65,47.94c12.71,13.43,30.7,21.8,50.65,21.8c5.82,0,11.47-0.72,16.87-2.06L272,30.19z" style="fill:#0e638e;fill-opacity:1;stroke-opacity:0;"/>
  <line class="stroke-black stroke-dotted" data-name="line-black-dotted" x1="25.21" y1="263.76" x2="329.8" y2="263.76" style="stroke:#000000;stroke-width:5;stroke-opacity:1;stroke-linecap:butt;stroke-linejoin:round;stroke-dasharray:5;fill-opacity:0;"/>
  <line class="stroke-blue" data-name="line-blue" x1="25.21" y1="263.76" x2="177.5" y2="177.5" style="stroke:#0e638e;stroke-width:5;stroke-opacity:1;stroke-linecap:round;stroke-linejoin:round;fill-opacity:0;"/>
  <line class="stroke-red" data-name="line-red" x1="329.8" y1="263.76" x2="177.5" y2="177.5" style="stroke:#d42a20;stroke-width:5;stroke-opacity:1;stroke-linecap:round;stroke-linejoin:round;fill-opacity:0;"/>
  <line class="stroke-black stroke-thin" data-name="line-black" x1="25.21" y1="263.76" x2="141.64" y2="6.18" style="stroke:#000000;stroke-width:2;stroke-opacity:1;stroke-linecap:round;stroke-linejoin:round;fill-opacity:0;"/>
  <line class="stroke-black stroke-thin" data-name="line-black" x1="329.8" y1="263.76" x2="141.64" y2="6.18" style="stroke:#000000;stroke-width:2;stroke-opacity:1;stroke-linecap:round;stroke-linejoin:round;fill-opacity:0;"/>
  <line class="stroke-black stroke-thin" data-name="line-black" x1="25.21" y1="263.76" x2="272" y2="30.19" style="stroke:#000000;stroke-width:2;stroke-opacity:1;stroke-linecap:round;stroke-linejoin:round;fill-opacity:0;"/>
  <line class="stroke-black stroke-thin" data-name="line-black" x1="329.8" y1="263.76" x2="272" y2="30.19" style="stroke:#000000;stroke-width:2;stroke-opacity:1;stroke-linecap:round;stroke-linejoin:round;fill-opacity:0;"/>
  <circle class="stroke-blue" data-name="circle" cx="177.5" cy="177.5" r="175" style="stroke:#0e638e;stroke-width:5;stroke-opacity:1;stroke-linecap:round;stroke-linejoin:round;fill-opacity:0;"/>
</svg>