<svg xmlns="http://www.w3.org/2000/svg" viewBox="0 0 355 355" preserveAspectRatio="xMidYMid meet" role="img">
  <title>Proposition 28 figure</title>
  <circle class="stroke-yellow" data-name="circle-yellow" cx="177.5" cy="177.5" r="175" style="stroke:#fac22b;stroke-width:5;stroke-opacity:1;stroke-linecap:round;stroke-linejoin:round;fill-opacity:0;"/>
  <path class="stroke-yellow" data-name="arc-yellow" d="M42.46,288.82C17.5,258.57,2.5,219.78,2.5,177.5c0-96.65,78.35-175,175-175s175,78.35,175,175c0,42.11-14.87,80.74-39.65,110.94" style="stroke:#fac22b;stroke-width:5;stroke-opacity:1;stroke-linecap:round;stroke-linejoin:round;fill-opacity:0;"/>
  <path class="fill-red" data-name="angle-red" d="M220.14,212.45L177.5,177.5l-42.64,34.95c10.11,12.32,25.46,20.19,42.64,20.19C194.68,232.64,210.03,224.77,220.14,212.45z" style="fill:#d42a20;fill-opacity:1;stroke-opacity:0;"/>
  <line class="stroke-red" data-name="line-red" x1="42.15" y1="288.44" x2="312.85" y2="288.44" style="stroke:#d42a20;stroke-width:5;stroke-opacity:1;stroke-linecap:round;stroke-linejoin:round;fill-opacity:0;"/>
  <line class="stroke-blue" data-name="line-blue" x1="177.5" y1="177.5" x2="312.85" y2="288.44" style="stroke:#0e638e;stroke-width:5;stroke-opacity:1;stroke-linecap:round;stroke-linejoin:round;fill-opacity:0;"/>
  <line class="stroke-black" data-name="line-black" x1="177.5" y1="177.5" x2="42.15" y2="288.44" style="stroke:#000000;stroke-width:5;stroke-opacity:1;stroke-linecap:round;stroke-linejoin:round;fill-opacity:0;"/>
  <path class="stroke-blue" data-name="arc-blue" d="M312.85,288.44c-32.09,39.11-80.81,64.06-135.35,64.06c-54.37,0-102.94-24.79-135.04-63.68" style="stroke:#0e638e;stroke-width:5;stroke-opacity:1;stroke-linecap:round;stroke-linejoin:round;fill-opacity:0;"/>
</svg>